<svg width="140" height="140" viewBox="0 0 140 140" xmlns="http://www.w3.org/2000/svg">
<path fill-rule="evenodd" clip-rule="evenodd" d="M31.5186 4.46143C25.4941 4.46143 20.6152 9.31606 20.6152 15.3105V114.502C20.6152 120.497 25.4941 125.351 31.5186 125.351H94.6021V128.451H31.5186C23.7736 128.451 17.5 122.208 17.5 114.502V15.3105C17.5 7.60412 23.7736 1.36169 31.5186 1.36169H107.842C115.587 1.36169 121.86 7.60412 121.86 15.3105V100.553H118.745V15.3105C118.745 9.31606 113.866 4.46143 107.842 4.46143H31.5186Z"/>
<path fill-rule="evenodd" clip-rule="evenodd" d="M34.6338 64.9063C34.6338 64.0503 35.3312 63.3564 36.1914 63.3564H103.169C104.029 63.3564 104.727 64.0503 104.727 64.9063C104.727 65.7623 104.029 66.4562 103.169 66.4562H36.1914C35.3312 66.4562 34.6338 65.7623 34.6338 64.9063Z"/>
<path fill-rule="evenodd" clip-rule="evenodd" d="M34.6338 47.0828C34.6338 46.2268 35.3312 45.5329 36.1914 45.5329H103.169C104.029 45.5329 104.727 46.2268 104.727 47.0828C104.727 47.9388 104.029 48.6327 103.169 48.6327H36.1914C35.3312 48.6327 34.6338 47.9388 34.6338 47.0828Z"/>
<path fill-rule="evenodd" clip-rule="evenodd" d="M35.4126 30.0343C35.4126 29.1783 36.11 28.4844 36.9702 28.4844H103.948C104.808 28.4844 105.505 29.1783 105.505 30.0343C105.505 30.8902 104.808 31.5841 103.948 31.5841H36.9702C36.11 31.5841 35.4126 30.8902 35.4126 30.0343Z"/>
<path fill-rule="evenodd" clip-rule="evenodd" d="M34.6338 99.0034C34.6338 98.1474 35.3312 97.4535 36.1914 97.4535H86.0352C86.8954 97.4535 87.5928 98.1474 87.5928 99.0034C87.5928 99.8594 86.8954 100.553 86.0352 100.553H36.1914C35.3312 100.553 34.6338 99.8594 34.6338 99.0034Z"/>
<path fill-rule="evenodd" clip-rule="evenodd" d="M34.6338 81.9548C34.6338 81.0989 35.3312 80.405 36.1914 80.405H103.169C104.029 80.405 104.727 81.0989 104.727 81.9548C104.727 82.8108 104.029 83.5047 103.169 83.5047H36.1914C35.3312 83.5047 34.6338 82.8108 34.6338 81.9548Z"/>
<path fill-rule="evenodd" clip-rule="evenodd" d="M112.515 100.553C102.622 100.553 94.6021 108.533 94.6021 118.377C94.6021 128.22 102.622 136.2 112.515 136.2C122.408 136.2 130.427 128.22 130.427 118.377C130.427 108.533 122.408 100.553 112.515 100.553ZM91.4868 118.377C91.4868 106.821 100.901 97.4535 112.515 97.4535C124.128 97.4535 133.543 106.821 133.543 118.377C133.543 129.932 124.128 139.3 112.515 139.3C100.901 139.3 91.4868 129.932 91.4868 118.377Z"/>
<path fill-rule="evenodd" clip-rule="evenodd" d="M112.515 107.528C113.375 107.528 114.072 108.222 114.072 109.078V127.676C114.072 128.532 113.375 129.226 112.515 129.226C111.654 129.226 110.957 128.532 110.957 127.676V109.078C110.957 108.222 111.654 107.528 112.515 107.528Z"/>
<path fill-rule="evenodd" clip-rule="evenodd" d="M101.611 118.377C101.611 117.521 102.309 116.827 103.169 116.827H121.86C122.721 116.827 123.418 117.521 123.418 118.377C123.418 119.233 122.721 119.927 121.86 119.927H103.169C102.309 119.927 101.611 119.233 101.611 118.377Z"/>
</svg>
