<svg width="42" height="42" viewBox="0 0 42 42"  xmlns="http://www.w3.org/2000/svg">
<path d="M21 10.5C18.9233 10.5 16.8933 11.1158 15.1666 12.2696C13.4398 13.4233 12.094 15.0632 11.2993 16.9818C10.5046 18.9005 10.2966 21.0117 10.7018 23.0485C11.1069 25.0853 12.107 26.9562 13.5754 28.4246C15.0439 29.8931 16.9148 30.8931 18.9516 31.2983C20.9884 31.7034 23.0996 31.4955 25.0182 30.7007C26.9368 29.906 28.5767 28.5602 29.7305 26.8335C30.8842 25.1068 31.5 23.0767 31.5 21C31.5 18.2152 30.3938 15.5445 28.4247 13.5754C26.4555 11.6063 23.7848 10.5 21 10.5ZM21 28.5C19.5167 28.5 18.0666 28.0601 16.8333 27.236C15.5999 26.4119 14.6386 25.2406 14.0709 23.8701C13.5033 22.4997 13.3548 20.9917 13.6441 19.5368C13.9335 18.082 14.6478 16.7456 15.6967 15.6967C16.7456 14.6478 18.082 13.9335 19.5369 13.6441C20.9917 13.3547 22.4997 13.5033 23.8702 14.0709C25.2406 14.6386 26.412 15.5999 27.2361 16.8332C28.0602 18.0666 28.5 19.5166 28.5 21C28.5 22.9891 27.7099 24.8968 26.3033 26.3033C24.8968 27.7098 22.9892 28.5 21 28.5ZM41.025 25.2L38.2313 21.4875C38.25 21.15 38.2313 20.7938 38.2313 20.5313L41.025 16.8C41.164 16.6184 41.2584 16.4068 41.3007 16.1821C41.343 15.9574 41.3321 15.7259 41.2688 15.5063C40.7963 13.7776 40.1097 12.1147 39.225 10.5563C39.1109 10.3583 38.9541 10.1882 38.7659 10.0585C38.5778 9.92877 38.3631 9.8426 38.1375 9.80626L33.5438 9.15001L32.85 8.45626L32.1938 3.86251C32.1574 3.6369 32.0713 3.42222 31.9415 3.2341C31.8118 3.04598 31.6418 2.88915 31.4438 2.77501C29.8853 1.89036 28.2224 1.2038 26.4938 0.731258C26.2741 0.667932 26.0426 0.656996 25.8179 0.699328C25.5933 0.741659 25.3816 0.836079 25.2 0.975008L21.4875 3.75001H20.5125L16.8 0.975008C16.6185 0.836079 16.4068 0.741659 16.1821 0.699328C15.9575 0.656996 15.726 0.667932 15.5063 0.731258C13.7776 1.2038 12.1148 1.89036 10.5563 2.77501C10.3583 2.88915 10.1883 3.04598 10.0585 3.2341C9.9288 3.42222 9.84263 3.6369 9.80629 3.86251L9.15004 8.45626L8.45629 9.15001L3.86254 9.80626C3.63693 9.8426 3.42225 9.92877 3.23413 10.0585C3.04601 10.1882 2.88918 10.3583 2.77504 10.5563C1.89039 12.1147 1.20383 13.7776 0.731289 15.5063C0.667963 15.7259 0.657027 15.9574 0.699358 16.1821C0.74169 16.4068 0.83611 16.6184 0.975039 16.8L3.76879 20.5125V21.4688L0.975039 25.2C0.83611 25.3816 0.74169 25.5932 0.699358 25.8179C0.657027 26.0426 0.667963 26.2741 0.731289 26.4938C1.20383 28.2224 1.89039 29.8853 2.77504 31.4438C2.88918 31.6417 3.04601 31.8118 3.23413 31.9415C3.42225 32.0712 3.63693 32.1574 3.86254 32.1938L8.45629 32.85L9.15004 33.5438L9.80629 38.1375C9.84263 38.3631 9.9288 38.5778 10.0585 38.7659C10.1883 38.954 10.3583 39.1109 10.5563 39.225C12.1148 40.1097 13.7776 40.7962 15.5063 41.2688C15.6343 41.3058 15.7668 41.3248 15.9 41.325C16.2253 41.3292 16.5424 41.2235 16.8 41.025L20.5125 38.25H21.4875L25.2 41.025C25.3816 41.1639 25.5933 41.2584 25.8179 41.3007C26.0426 41.343 26.2741 41.3321 26.4938 41.2688C28.2224 40.7962 29.8853 40.1097 31.4438 39.225C31.6418 39.1109 31.8118 38.954 31.9415 38.7659C32.0713 38.5778 32.1574 38.3631 32.1938 38.1375L32.85 33.525C33.075 33.3 33.3375 33.0563 33.525 32.85L38.1375 32.1938C38.3631 32.1574 38.5778 32.0712 38.7659 31.9415C38.9541 31.8118 39.1109 31.6417 39.225 31.4438C40.1097 29.8853 40.7963 28.2224 41.2688 26.4938C41.3321 26.2741 41.343 26.0426 41.3007 25.8179C41.2584 25.5932 41.164 25.3816 41.025 25.2ZM36.9563 29.325L32.5875 29.9438C32.2503 29.999 31.9406 30.1637 31.7063 30.4125C31.4813 30.6563 30.7875 31.3688 30.45 31.6688C30.1762 31.9041 29.9965 32.2303 29.9438 32.5875L29.325 36.9563C28.3911 37.4548 27.4116 37.8629 26.4 38.175L22.8563 35.5125C22.571 35.2994 22.2171 35.1993 21.8625 35.2313H20.1375C19.7829 35.1993 19.429 35.2994 19.1438 35.5125L15.6 38.175C14.5884 37.8629 13.609 37.4548 12.675 36.9563L12.0563 32.5875C12.0036 32.2303 11.8239 31.9041 11.55 31.6688C11.1162 31.2911 10.7089 30.8839 10.3313 30.45C10.0959 30.1762 9.76974 29.9964 9.41254 29.9438L5.04379 29.325C4.55313 28.3874 4.14533 27.4086 3.82504 26.4L6.48754 22.8563C6.68059 22.5816 6.78525 22.2545 6.78754 21.9188C6.76879 21.5813 6.75004 20.6063 6.76879 20.1375C6.80078 19.7829 6.70061 19.429 6.48754 19.1438L3.82504 15.6C4.14533 14.5914 4.55313 13.6127 5.04379 12.675L9.41254 12.0563C9.76974 12.0036 10.0959 11.8238 10.3313 11.55C10.7089 11.1161 11.1162 10.7089 11.55 10.3313C11.8239 10.0959 12.0036 9.76971 12.0563 9.41251L12.675 5.04376C13.6127 4.5531 14.5914 4.1453 15.6 3.82501L19.1438 6.48751C19.429 6.70058 19.7829 6.80075 20.1375 6.76876C20.7 6.75001 21.3 6.75001 21.8625 6.76876C22.2171 6.80075 22.571 6.70058 22.8563 6.48751L26.4 3.82501C27.4116 4.13713 28.3911 4.54524 29.325 5.04376L29.9438 9.41251C29.9965 9.76971 30.1762 10.0959 30.45 10.3313C30.8839 10.7089 31.2911 11.1161 31.6688 11.55C31.9041 11.8238 32.2303 12.0036 32.5875 12.0563L36.9563 12.675C37.4548 13.6089 37.8629 14.5884 38.175 15.6L35.5125 19.1438C35.3195 19.4185 35.2148 19.7455 35.2125 20.0813C35.2313 20.4188 35.25 21.3938 35.2313 21.8625C35.1993 22.2171 35.2995 22.571 35.5125 22.8563L38.175 26.4C37.8629 27.4116 37.4548 28.3911 36.9563 29.325Z"/>
</svg>
