<svg width="48" height="48" viewBox="0 0 48 48" xmlns="http://www.w3.org/2000/svg">
<path d="M44.3 15.3001L33.1 4.0001C32.8 3.7001 32.4 3.6001 32 3.6001C31.6 3.6001 31.2 3.8001 30.9 4.0001L6.49998 28.4001C4.99998 30.0001 4.09998 32.1001 4.09998 34.4001C4.09998 36.6001 4.99998 38.8001 6.59998 40.3001C8.19998 41.8001 10.3 42.8001 12.5 42.8001C14.7 42.8001 16.9 41.9001 18.4 40.3001L39.5 19.2001L43.7 17.8001C43.9 17.7001 44.2 17.6001 44.3 17.4001C44.5 17.2001 44.6 17.0001 44.7 16.7001C44.8 16.5001 44.7 16.2001 44.7 15.9001C44.6 15.7001 44.5 15.5001 44.3 15.3001ZM16.3 38.2001C15.8 38.7001 15.2 39.1001 14.6 39.4001C13.9 39.7001 13.2 39.8001 12.5 39.8001C11.8 39.8001 11.1 39.7001 10.4 39.4001C9.69998 39.1001 9.19998 38.7001 8.69998 38.2001C8.19998 37.7001 7.79998 37.1001 7.49998 36.5001C7.19998 35.8001 7.09998 35.1001 7.09998 34.4001C7.09998 33.7001 7.19998 33.0001 7.49998 32.3001C7.79998 31.6001 8.19998 31.1001 8.69998 30.6001L13.5 25.8001C13.9 25.5001 16.9 23.6001 21.6 26.0001C23.7 27.0001 25.5 27.4001 27.1 27.5001L16.3 38.2001ZM38.3 16.4001C38.1 16.5001 37.9 16.6001 37.7 16.8001L31 23.5001C30.6 23.8001 27.7 25.7001 22.9 23.3001C20.8 22.3001 19 21.9001 17.4 21.8001L32 7.2001L40.5 15.7001L38.3 16.4001Z"/>
<path d="M32.6 35.5001C33.6 35.1001 34.4 34.4001 34.9 33.6001C35.5 32.7001 35.8 31.7001 35.8 30.7001C35.8 29.4001 35.3 28.2001 34.5 27.2001L33.4 28.3001C33.5 28.4001 33.6 28.5001 33.7 28.6001C34.1 29.2001 34.3 29.9001 34.3 30.7001C34.3 31.7001 33.9 32.6001 33.2 33.3001C32.5 34.0001 31.6 34.4001 30.6 34.4001C29.9 34.4001 29.1 34.2001 28.5 33.8001C28.4 33.7001 28.3 33.6001 28.2 33.5001L27.1 34.6001C27.8 35.2001 28.6 35.7001 29.6 35.8001C30.6 36.0001 31.7 35.9001 32.6 35.5001Z"/>
<path fill-rule="evenodd" clip-rule="evenodd" d="M34.5414 26.4515L34.8904 26.8878C35.7483 27.9601 36.3 29.2673 36.3 30.7001C36.3 31.7996 35.9704 32.8934 35.32 33.8714C34.7656 34.7555 33.8873 35.5215 32.7944 35.9608C31.8006 36.4001 30.6085 36.5067 29.5257 36.2951C28.3916 36.1748 27.5047 35.6056 26.7746 34.9797L26.3646 34.6283L28.2 32.793L28.8168 33.4098C29.3175 33.7293 29.9967 33.9001 30.6 33.9001C31.4587 33.9001 32.2339 33.5591 32.8464 32.9465C33.459 32.334 33.8 31.5588 33.8 30.7001C33.8 30.0061 33.6323 29.4177 33.3101 28.9173L32.6929 28.3001L34.5414 26.4515ZM34.1034 28.3038L34.116 28.3227C34.5767 29.0137 34.8 29.8126 34.8 30.7001C34.8 31.8414 34.341 32.8662 33.5535 33.6537C32.7661 34.4411 31.7413 34.9001 30.6 34.9001C29.8193 34.9001 28.9186 34.6801 28.2226 34.2161L28.2037 34.2035L27.8494 34.5578C28.3921 34.954 28.9745 35.2351 29.6497 35.3026L29.6741 35.305L29.698 35.3098C30.6058 35.4914 31.5997 35.3975 32.3969 35.0432L32.4055 35.0394L32.4143 35.0359C33.3147 34.6757 34.0317 34.046 34.476 33.3351L34.4799 33.3289L34.484 33.3227C35.0309 32.5023 35.3 31.5983 35.3 30.7001C35.3 29.7183 34.9828 28.7892 34.4404 27.9668L34.1034 28.3038Z"/>
<path d="M40.7 28.2001C40.7 28.1001 40.7 28.0001 40.7 27.9001C40.5 27.0001 40.1 26.2001 39.7 25.4001C39.6 25.3001 39.6 25.2001 39.5 25.2001C39.4 25.1001 39.3 25.1001 39.2 25.1001L37 24.8001L35.9 25.9001L36 26.0001C36.1 26.1001 36.3 26.2001 36.5 26.3001L38.7 26.6001C38.9 27.1001 39.2 27.6001 39.3 28.1001L38 29.9001C37.9 30.0001 37.9 30.2001 37.9 30.4001C37.9 30.6001 37.9 31.1001 37.9 31.3001C37.9 31.5001 37.9 31.7001 38 31.8001L39.3 33.6001C39.1 34.1001 38.9 34.6001 38.7 35.1001L36.5 35.4001C36.3 35.4001 36.2 35.5001 36.1 35.6001C36 35.7001 35.6 36.1001 35.5 36.2001C35.4 36.3001 35.3 36.5001 35.2 36.7001L34.9 38.9001C34.4 39.1001 33.9 39.4001 33.4 39.5001L31.6 38.2001C31.5 38.1001 31.3 38.0001 31.1 38.0001H30.2C30 38.1001 29.8 38.1001 29.7 38.2001L27.9 39.5001C27.4 39.3001 26.9 39.1001 26.4 38.9001L26.1 36.7001C26.1 36.5001 26 36.4001 25.8 36.2001L25.7 36.1001L24.6 37.2001L24.9 39.4001C24.9 39.5001 25 39.6001 25 39.7001C25.1 39.8001 25.1 39.9001 25.2 39.9001C26 40.3001 26.8 40.7001 27.7 40.9001C27.8 40.9001 27.8 40.9001 27.9 40.9001C28.1 40.9001 28.2 40.8001 28.3 40.8001L30.1 39.8001H30.6L32.4 40.8001C32.5 40.9001 32.6 40.9001 32.7 40.9001C32.8 40.9001 32.9 40.9001 33 40.9001C33.9 40.7001 34.7 40.3001 35.5 39.9001C35.6 39.8001 35.7 39.8001 35.7 39.7001C35.8 39.6001 35.8 39.5001 35.8 39.4001L36.1 37.1001C36.2 37.0001 36.3 36.9001 36.4 36.8001L38.7 36.5001C38.8 36.5001 38.9 36.4001 39 36.4001C39.1 36.3001 39.2 36.3001 39.2 36.2001C39.6 35.4001 40 34.6001 40.2 33.7001C40.2 33.6001 40.2 33.5001 40.2 33.4001C40.2 33.3001 40.1 33.2001 40.1 33.1001L38.7 31.3001C38.7 31.1001 38.7 31.0001 38.7 30.8001L40.1 28.9001C40.7 28.5001 40.7 28.4001 40.7 28.2001Z"/>
<path fill-rule="evenodd" clip-rule="evenodd" d="M36.8218 24.2712L39.2338 24.6001C39.3385 24.6006 39.5358 24.6101 39.7324 24.7454C39.7714 24.7615 39.8095 24.7821 39.8461 24.8077C39.9395 24.8731 39.9937 24.9518 40.016 24.9852C40.027 25.0018 40.0374 25.0186 40.043 25.0276L40.0444 25.03C40.0511 25.0408 40.0541 25.0455 40.0566 25.0493L40.0573 25.0503L40.1109 25.1039L40.1587 25.1995C40.5513 25.9847 40.9747 26.8314 41.1881 27.7916L41.2 27.8452V28.2001C41.2 28.2028 41.2 28.2057 41.2 28.2089C41.2001 28.2532 41.2004 28.3449 41.1795 28.4424C41.1538 28.5623 41.1024 28.6719 41.025 28.7751C40.9037 28.9368 40.7104 29.0901 40.4511 29.2665L39.2 30.9644V31.1285L40.6 32.9285V33.032C40.6114 33.0548 40.6339 33.1 40.6525 33.1495C40.6735 33.2056 40.7 33.2932 40.7 33.4001V33.755L40.6881 33.8086C40.4784 34.752 40.0661 35.5857 39.6794 36.3593C39.6622 36.4238 39.6338 36.4871 39.5924 36.5462C39.527 36.6397 39.4483 36.6938 39.4148 36.7161C39.3983 36.7271 39.3816 36.7375 39.3725 36.7431L39.3701 36.7445C39.3593 36.7512 39.3546 36.7542 39.3508 36.7567L39.3498 36.7574L39.2071 36.9001H39.068C39.0453 36.9115 39 36.9341 38.9505 36.9526C38.9023 36.9707 38.8308 36.9928 38.7437 36.9986L36.6333 37.2739L36.5738 37.3334L36.3 39.4324C36.2996 39.5367 36.2907 39.735 36.1547 39.9325C36.1386 39.9716 36.118 40.0097 36.0924 40.0462C36.027 40.1397 35.9483 40.1938 35.9148 40.2161C35.8983 40.2271 35.8816 40.2375 35.8725 40.2431L35.8701 40.2445C35.8593 40.2512 35.8546 40.2542 35.8508 40.2567L35.8498 40.2574L35.7962 40.311L35.7006 40.3588C34.9154 40.7515 34.0687 41.1748 33.1084 41.3882L33.0549 41.4001H32.7C32.6966 41.4001 32.6931 41.4001 32.6894 41.4001C32.5839 41.4004 32.3391 41.401 32.1083 41.2101L30.4704 40.3001H30.2295L28.4295 41.3001H28.358C28.3478 41.3043 28.3348 41.3097 28.3232 41.3143C28.2335 41.3502 28.0907 41.4001 27.9 41.4001H27.6451L27.5915 41.3882C26.6481 41.1785 25.8144 40.7663 25.0408 40.3795C24.9763 40.3623 24.913 40.3339 24.8539 40.2925C24.7604 40.2271 24.7063 40.1484 24.684 40.1149C24.6729 40.0984 24.6626 40.0817 24.657 40.0726L24.6555 40.0702C24.6489 40.0594 24.6459 40.0547 24.6433 40.0509L24.6426 40.0499L24.5 39.9072V39.7681C24.4886 39.7454 24.466 39.7002 24.4474 39.6507C24.4295 39.6028 24.4076 39.532 24.4016 39.4458L24.0711 37.0219L25.7 35.393L26.1535 35.8465C26.1642 35.8572 26.1753 35.8682 26.1868 35.8795C26.3526 36.0435 26.5844 36.2727 26.5992 36.6607L26.856 38.544L27.8302 38.9337L29.385 37.8108C29.5263 37.6895 29.693 37.6425 29.7645 37.6223C29.7683 37.6213 29.7719 37.6203 29.7751 37.6193C29.7872 37.6159 29.7986 37.6127 29.8092 37.6096C29.8931 37.5858 29.9335 37.5743 29.9764 37.5529L30.0819 37.5001H31.1C31.4211 37.5001 31.7277 37.6409 31.919 37.8137L33.5022 38.9572C33.6382 38.9139 33.7839 38.8541 33.9448 38.7816C34.0148 38.7501 34.091 38.7146 34.1706 38.6775C34.2583 38.6366 34.3502 38.5937 34.4428 38.5521L34.7157 36.5505L34.7559 36.4702C34.8037 36.3747 34.8589 36.2642 34.9159 36.1645C34.9706 36.0687 35.0474 35.9456 35.1464 35.8465L35.7464 35.2465C35.7493 35.2436 35.7523 35.2406 35.7554 35.2375C35.8609 35.1317 36.0772 34.9148 36.4609 34.9008L38.3439 34.644L38.7336 33.6698L37.6113 32.1159C37.4743 31.9578 37.4338 31.7722 37.4175 31.6583C37.3999 31.5348 37.3999 31.4038 37.4 31.3132V30.387C37.3999 30.2964 37.3999 30.1654 37.4175 30.0419C37.4338 29.928 37.4743 29.7424 37.6113 29.5842L38.757 27.9979C38.7137 27.8618 38.6539 27.7162 38.5815 27.5553C38.55 27.4852 38.5145 27.4091 38.4774 27.3295C38.4365 27.2418 38.3936 27.1499 38.352 27.0573L36.3504 26.7843L36.2701 26.7442C36.1745 26.6964 36.0641 26.6412 35.9644 26.5842C35.8686 26.5295 35.7455 26.4527 35.6464 26.3537L35.1929 25.9001L36.8218 24.2712ZM37.1782 25.329L36.6863 25.8209L39.0561 26.144L39.1642 26.4144C39.226 26.5688 39.2935 26.7133 39.3673 26.8712C39.4074 26.9573 39.4495 27.0472 39.4934 27.1449C39.6093 27.4024 39.7288 27.6945 39.7903 28.002L39.8331 28.216L38.4064 30.1914C38.4042 30.2096 38.4024 30.2343 38.4013 30.2678C38.4003 30.2973 38.4001 30.3285 38.4 30.3643L39.7495 28.5328L39.8226 28.4841C39.9662 28.3883 40.0641 28.317 40.131 28.2625C40.1634 28.2361 40.1854 28.2161 40.2 28.2019L40.2 28.2001V27.9563C40.0175 27.1717 39.6705 26.4599 39.289 25.6963L39.1929 25.6001H39.166L37.1782 25.329ZM38.9547 35.57L36.5339 35.9001H36.509L36.5073 35.9016C36.4944 35.913 36.4804 35.9268 36.4535 35.9537L35.8542 36.553C35.8527 36.5548 35.8461 36.5624 35.8354 36.5778C35.8215 36.5979 35.8045 36.625 35.7841 36.6607C35.7656 36.693 35.7468 36.728 35.7271 36.7658L36.1667 36.3263L38.6194 36.0064C38.6215 36.0053 38.6238 36.0042 38.6264 36.0029L38.6306 36.0007C38.6529 35.9896 38.699 35.9665 38.7494 35.9476C38.7562 35.945 38.7634 35.9424 38.7711 35.9397C38.8334 35.8152 38.8947 35.6922 38.9547 35.57ZM35.3122 39.2737L35.0857 39.3643C34.9313 39.4261 34.7867 39.4936 34.6288 39.5674C34.5428 39.6076 34.4528 39.6496 34.3552 39.6936C34.0977 39.8094 33.8056 39.9289 33.498 39.9904L33.2841 40.0332L31.2748 38.582L31.2475 38.5548C31.2475 38.5548 31.2428 38.5508 31.2347 38.5455C31.2234 38.5381 31.2083 38.5298 31.1905 38.5222C31.1524 38.5058 31.1195 38.5001 31.1 38.5001H30.304C30.2129 38.5356 30.13 38.5586 30.0765 38.5734C30.0666 38.5762 30.0576 38.5786 30.0498 38.5809C30.0329 38.5857 30.0204 38.5894 30.0105 38.5926L27.9697 40.0665L25.9439 39.2562L25.6208 36.8864L25.1289 37.3783L25.3936 39.3192C25.3947 39.3214 25.3959 39.3239 25.3972 39.3265L25.3993 39.3307C25.4105 39.353 25.4336 39.3991 25.4525 39.4495C25.4551 39.4563 25.4577 39.4636 25.4603 39.4713C26.2376 39.8597 26.9592 40.2148 27.7561 40.4001H27.8994C27.9087 40.4001 27.9164 40.4 27.9518 40.3859C27.9598 40.3827 27.9658 40.3802 27.9739 40.3768C27.9789 40.3747 27.9847 40.3723 27.9921 40.3693C28.0081 40.3627 28.0313 40.3533 28.057 40.3442C28.0766 40.3373 28.1019 40.329 28.132 40.3214L29.9704 39.3001H30.7295L32.704 40.397L32.7071 40.4001H32.9437C33.7284 40.2176 34.4402 39.8706 35.2038 39.4891L35.3 39.393V39.3676L35.3122 39.2737Z"/>
</svg>
