<svg width="48" height="48" viewBox="0 0 48 48" xmlns="http://www.w3.org/2000/svg">
<path d="M48.0001 25.5C48.0001 25.8979 47.8421 26.2794 47.5607 26.5607C47.2794 26.842 46.8979 27 46.5001 27H43.5001V30C43.5001 30.3979 43.3421 30.7794 43.0607 31.0607C42.7794 31.342 42.3979 31.5 42.0001 31.5C41.6023 31.5 41.2207 31.342 40.9394 31.0607C40.6581 30.7794 40.5001 30.3979 40.5001 30V27H37.5001C37.1023 27 36.7207 26.842 36.4394 26.5607C36.1581 26.2794 36.0001 25.8979 36.0001 25.5C36.0001 25.1022 36.1581 24.7207 36.4394 24.4394C36.7207 24.1581 37.1023 24 37.5001 24H40.5001V21C40.5001 20.6022 40.6581 20.2207 40.9394 19.9394C41.2207 19.6581 41.6023 19.5 42.0001 19.5C42.3979 19.5 42.7794 19.6581 43.0607 19.9394C43.3421 20.2207 43.5001 20.6022 43.5001 21V24H46.5001C46.8979 24 47.2794 24.1581 47.5607 24.4394C47.8421 24.7207 48.0001 25.1022 48.0001 25.5ZM37.4813 36.5438C37.6081 36.6935 37.7039 36.8668 37.7632 37.0538C37.8224 37.2407 37.8439 37.4376 37.8265 37.633C37.8091 37.8283 37.753 38.0183 37.6616 38.1918C37.5701 38.3653 37.4451 38.519 37.2938 38.6438C37.1453 38.773 36.9722 38.8709 36.7849 38.9316C36.5976 38.9923 36.4 39.0146 36.2039 38.9971C36.0078 38.9795 35.8173 38.9226 35.6437 38.8297C35.4702 38.7368 35.3171 38.6098 35.1938 38.4563C33.3599 36.2787 31.0722 34.5283 28.4909 33.3275C25.9096 32.1266 23.097 31.5044 20.2501 31.5044C17.4031 31.5044 14.5906 32.1266 12.0093 33.3275C9.42797 34.5283 7.14028 36.2787 5.30634 38.4563C5.03974 38.7116 4.68834 38.8597 4.3194 38.8722C3.95046 38.8846 3.58988 38.7606 3.30667 38.5238C3.02346 38.287 2.83751 37.9541 2.78441 37.5888C2.7313 37.2235 2.81477 36.8514 3.01884 36.5438C5.75872 33.2522 9.39224 30.8233 13.4813 29.55C11.1361 28.0809 9.33259 25.8886 8.34305 23.3042C7.35351 20.7197 7.23169 17.8835 7.996 15.2238C8.7603 12.564 10.3692 10.2252 12.5798 8.56034C14.7904 6.89551 17.4827 5.99512 20.2501 5.99512C23.0175 5.99512 25.7097 6.89551 27.9203 8.56034C30.1309 10.2252 31.7399 12.564 32.5042 15.2238C33.2685 17.8835 33.1467 20.7197 32.1571 23.3042C31.1676 25.8886 29.364 28.0809 27.0188 29.55C31.1079 30.8233 34.7414 33.2522 37.4813 36.5438V36.5438ZM20.2501 28.5C22.1785 28.5 24.0635 27.9282 25.6669 26.8569C27.2703 25.7855 28.52 24.2628 29.2579 22.4812C29.9959 20.6996 30.189 18.7392 29.8127 16.8479C29.4365 14.9566 28.5079 13.2193 27.1444 11.8558C25.7808 10.4922 24.0435 9.5636 22.1522 9.18739C20.2609 8.81119 18.3005 9.00427 16.5189 9.74222C14.7373 10.4802 13.2146 11.7299 12.1433 13.3332C11.0719 14.9366 10.5001 16.8217 10.5001 18.75C10.5001 21.3359 11.5273 23.8159 13.3558 25.6443C15.1843 27.4728 17.6642 28.5 20.2501 28.5V28.5Z"/>
</svg>
