<svg width="11" height="18" viewBox="0 0 11 18" xmlns="http://www.w3.org/2000/svg">
<path d="M9.00008 17.625C8.70183 17.6237 8.41588 17.506 8.2032 17.2969L0.703202 9.79687C0.598322 9.69236 0.515105 9.56816 0.458324 9.43142C0.401543 9.29467 0.372314 9.14806 0.372314 9C0.372314 8.85193 0.401543 8.70532 0.458324 8.56858C0.515105 8.43183 0.598322 8.30764 0.703202 8.20312L8.2032 0.703123C8.41455 0.491779 8.70119 0.373047 9.00008 0.373047C9.14807 0.373047 9.29461 0.402196 9.43134 0.458831C9.56807 0.515466 9.6923 0.598476 9.79695 0.703123C9.9016 0.807771 9.98461 0.932005 10.0412 1.06873C10.0979 1.20546 10.127 1.35201 10.127 1.5C10.127 1.64799 10.0979 1.79454 10.0412 1.93126C9.98461 2.06799 9.9016 2.19223 9.79695 2.29687L3.09383 9L9.79695 15.7031C9.90183 15.8076 9.98505 15.9318 10.0418 16.0686C10.0986 16.2053 10.1278 16.3519 10.1278 16.5C10.1278 16.6481 10.0986 16.7947 10.0418 16.9314C9.98505 17.0682 9.90183 17.1924 9.79695 17.2969C9.58427 17.506 9.29832 17.6237 9.00008 17.625Z"/>
</svg>
