<svg width="24" height="24" viewBox="0 0 24 24" xmlns="http://www.w3.org/2000/svg">
<path d="M20.2969 11.2031C20.4018 11.3076 20.485 11.4318 20.5418 11.5686C20.5985 11.7053 20.6278 11.8519 20.6278 12C20.6278 12.1481 20.5985 12.2947 20.5418 12.4314C20.485 12.5682 20.4018 12.6924 20.2969 12.7969L12.7969 20.2969C12.5846 20.5064 12.2983 20.6239 12 20.6239C11.7017 20.6239 11.4154 20.5064 11.2031 20.2969L3.70312 12.7969C3.49178 12.5855 3.37305 12.2989 3.37305 12C3.37305 11.7011 3.49178 11.4145 3.70312 11.2031C3.91447 10.9918 4.20111 10.873 4.5 10.873C4.79888 10.873 5.08553 10.9918 5.29687 11.2031L12 17.9062L18.7031 11.2031C18.8076 11.0982 18.9318 11.015 19.0686 10.9582C19.2053 10.9015 19.3519 10.8722 19.5 10.8722C19.6481 10.8722 19.7947 10.9015 19.9314 10.9582C20.0682 11.015 20.1924 11.0982 20.2969 11.2031ZM11.2031 12.7969C11.4154 13.0064 11.7017 13.1239 12 13.1239C12.2983 13.1239 12.5846 13.0064 12.7969 12.7969L20.2969 5.29687C20.5082 5.08553 20.6269 4.79888 20.6269 4.5C20.6269 4.20111 20.5082 3.91447 20.2969 3.70312C20.0855 3.49178 19.7989 3.37305 19.5 3.37305C19.2011 3.37305 18.9145 3.49178 18.7031 3.70312L12 10.4062L5.29687 3.70312C5.19223 3.59848 5.06799 3.51547 4.93126 3.45883C4.79454 3.4022 4.64799 3.37305 4.5 3.37305C4.35201 3.37305 4.20546 3.4022 4.06873 3.45883C3.932 3.51547 3.80777 3.59848 3.70312 3.70312C3.49178 3.91447 3.37305 4.20111 3.37305 4.5C3.37305 4.79888 3.49178 5.08553 3.70312 5.29687L11.2031 12.7969Z"/>
</svg>
