<svg xmlns="http://www.w3.org/2000/svg">
<path d="M30.5688 27.4312C30.8504 27.7156 31.0085 28.0997 31.0085 28.4999C31.0085 28.9002 30.8504 29.2843 30.5688 29.5687C30.2821 29.8459 29.8988 30.0009 29.5 30.0009C29.1012 30.0009 28.718 29.8459 28.4313 29.5687L16 17.1187L3.56877 29.5687C3.28205 29.8459 2.89884 30.0009 2.50002 30.0009C2.10119 30.0009 1.71798 29.8459 1.43126 29.5687C1.14959 29.2843 0.991577 28.9002 0.991577 28.4999C0.991577 28.0997 1.14959 27.7156 1.43126 27.4312L13.8813 14.9999L1.43126 2.56869C1.19207 2.27725 1.06983 1.90725 1.08833 1.53068C1.10682 1.1541 1.26473 0.797861 1.53133 0.531258C1.79793 0.264656 2.15417 0.106751 2.53075 0.0882556C2.90733 0.0697604 3.27732 0.191998 3.56877 0.431193L16 12.8812L28.4313 0.431193C28.7227 0.191998 29.0927 0.0697604 29.4693 0.0882556C29.8459 0.106751 30.2021 0.264656 30.4687 0.531258C30.7353 0.797861 30.8932 1.1541 30.9117 1.53068C30.9302 1.90725 30.808 2.27725 30.5688 2.56869L18.1188 14.9999L30.5688 27.4312Z"/>
</svg>
