<svg width="140" height="140" viewBox="0 0 140 140" xmlns="http://www.w3.org/2000/svg">
<path fill-rule="evenodd" clip-rule="evenodd" d="M69.0878 12.5057C63.8555 12.5057 59.6181 16.743 59.6181 21.9753V23.3281H56.9125V21.9753C56.9125 15.2488 62.3612 9.80005 69.0878 9.80005H111.025C117.751 9.80005 123.2 15.2488 123.2 21.9753V78.1169C123.2 84.8435 117.751 90.2922 111.025 90.2922H108.319V87.5866H111.025C116.257 87.5866 120.495 83.3492 120.495 78.1169V21.9753C120.495 16.743 116.257 12.5057 111.025 12.5057H69.0878Z"/>
<path fill-rule="evenodd" clip-rule="evenodd" d="M106.966 50.3843C106.966 49.6372 107.572 49.0315 108.319 49.0315H111.025C111.772 49.0315 112.378 49.6372 112.378 50.3843C112.378 51.1315 111.772 51.7371 111.025 51.7371H108.319C107.572 51.7371 106.966 51.1315 106.966 50.3843Z"/>
<path fill-rule="evenodd" clip-rule="evenodd" d="M106.966 38.8854C106.966 38.1383 107.572 37.5326 108.319 37.5326H111.025C111.772 37.5326 112.378 38.1383 112.378 38.8854C112.378 39.6326 111.772 40.2383 111.025 40.2383H108.319C107.572 40.2383 106.966 39.6326 106.966 38.8854Z"/>
<path fill-rule="evenodd" clip-rule="evenodd" d="M106.966 28.7394C106.966 27.9922 107.572 27.3866 108.319 27.3866H111.025C111.772 27.3866 112.378 27.9922 112.378 28.7394C112.378 29.4865 111.772 30.0922 111.025 30.0922H108.319C107.572 30.0922 106.966 29.4865 106.966 28.7394Z"/>
<path fill-rule="evenodd" clip-rule="evenodd" d="M106.966 72.0293C106.966 71.2821 107.572 70.6765 108.319 70.6765H111.025C111.772 70.6765 112.378 71.2821 112.378 72.0293C112.378 72.7764 111.772 73.3821 111.025 73.3821H108.319C107.572 73.3821 106.966 72.7764 106.966 72.0293Z"/>
<path fill-rule="evenodd" clip-rule="evenodd" d="M106.966 61.2068C106.966 60.4597 107.572 59.854 108.319 59.854H111.025C111.772 59.854 112.378 60.4597 112.378 61.2068C112.378 61.9539 111.772 62.5596 111.025 62.5596H108.319C107.572 62.5596 106.966 61.9539 106.966 61.2068Z"/>
<path fill-rule="evenodd" clip-rule="evenodd" d="M49.472 24.6809C44.2398 24.6809 40.0024 28.9183 40.0024 34.1506H37.2968C37.2968 27.4241 42.7455 21.9753 49.472 21.9753H97.4968C104.223 21.9753 109.672 27.4241 109.672 34.1506V98.409C109.672 105.136 104.223 110.584 97.4968 110.584H94.7911V107.879H97.4968C102.729 107.879 106.966 103.641 106.966 98.409V34.1506C106.966 28.9183 102.729 24.6809 97.4968 24.6809H49.472Z"/>
<path fill-rule="evenodd" clip-rule="evenodd" d="M93.4383 69.3236C93.4383 68.5765 94.044 67.9708 94.7911 67.9708H96.8204C97.5675 67.9708 98.1732 68.5765 98.1732 69.3236C98.1732 70.0708 97.5675 70.6765 96.8204 70.6765H94.7911C94.044 70.6765 93.4383 70.0708 93.4383 69.3236Z"/>
<path fill-rule="evenodd" clip-rule="evenodd" d="M93.4383 56.472C93.4383 55.7248 94.044 55.1191 94.7911 55.1191H96.8204C97.5675 55.1191 98.1732 55.7248 98.1732 56.472C98.1732 57.2191 97.5675 57.8248 96.8204 57.8248H94.7911C94.044 57.8248 93.4383 57.2191 93.4383 56.472Z"/>
<path fill-rule="evenodd" clip-rule="evenodd" d="M93.4383 44.9731C93.4383 44.2259 94.044 43.6203 94.7911 43.6203H96.8204C97.5675 43.6203 98.1732 44.2259 98.1732 44.9731C98.1732 45.7202 97.5675 46.3259 96.8204 46.3259H94.7911C94.044 46.3259 93.4383 45.7202 93.4383 44.9731Z"/>
<path fill-rule="evenodd" clip-rule="evenodd" d="M93.4383 92.9978C93.4383 92.2507 94.044 91.645 94.7911 91.645H96.8204C97.5675 91.645 98.1732 92.2507 98.1732 92.9978C98.1732 93.7449 97.5675 94.3506 96.8204 94.3506H94.7911C94.044 94.3506 93.4383 93.7449 93.4383 92.9978Z"/>
<path fill-rule="evenodd" clip-rule="evenodd" d="M93.4383 80.8225C93.4383 80.0754 94.044 79.4697 94.7911 79.4697H96.8204C97.5675 79.4697 98.1732 80.0754 98.1732 80.8225C98.1732 81.5697 97.5675 82.1753 96.8204 82.1753H94.7911C94.044 82.1753 93.4383 81.5697 93.4383 80.8225Z"/>
<path fill-rule="evenodd" clip-rule="evenodd" d="M29.8563 36.8562C24.624 36.8562 20.3866 41.0936 20.3866 46.3259V118.025C20.3866 123.257 24.624 127.494 29.8563 127.494H83.9687C89.201 127.494 93.4383 123.257 93.4383 118.025V46.3259C93.4383 41.0936 89.201 36.8562 83.9687 36.8562H29.8563ZM17.681 46.3259C17.681 39.5993 23.1298 34.1506 29.8563 34.1506H83.9687C90.6952 34.1506 96.144 39.5993 96.144 46.3259V118.025C96.144 124.751 90.6952 130.2 83.9687 130.2H29.8563C23.1298 130.2 17.681 124.751 17.681 118.025V46.3259Z"/>
<path fill-rule="evenodd" clip-rule="evenodd" d="M30.5327 82.1753C30.5327 81.4282 31.1384 80.8225 31.8855 80.8225H81.9395C82.6866 80.8225 83.2923 81.4282 83.2923 82.1753C83.2923 82.9225 82.6866 83.5281 81.9395 83.5281H31.8855C31.1384 83.5281 30.5327 82.9225 30.5327 82.1753Z"/>
<path fill-rule="evenodd" clip-rule="evenodd" d="M30.5327 68.6472C30.5327 67.9001 31.1384 67.2944 31.8855 67.2944H81.9395C82.6866 67.2944 83.2923 67.9001 83.2923 68.6472C83.2923 69.3944 82.6866 70 81.9395 70H31.8855C31.1384 70 30.5327 69.3944 30.5327 68.6472Z"/>
<path fill-rule="evenodd" clip-rule="evenodd" d="M30.5327 55.7956C30.5327 55.0484 31.1384 54.4427 31.8855 54.4427H81.9395C82.6866 54.4427 83.2923 55.0484 83.2923 55.7956C83.2923 56.5427 82.6866 57.1484 81.9395 57.1484H31.8855C31.1384 57.1484 30.5327 56.5427 30.5327 55.7956Z"/>
<path fill-rule="evenodd" clip-rule="evenodd" d="M30.5327 108.555C30.5327 107.808 31.1384 107.202 31.8855 107.202H81.9395C82.6866 107.202 83.2923 107.808 83.2923 108.555C83.2923 109.302 82.6866 109.908 81.9395 109.908H31.8855C31.1384 109.908 30.5327 109.302 30.5327 108.555Z"/>
<path fill-rule="evenodd" clip-rule="evenodd" d="M30.5327 95.027C30.5327 94.2799 31.1384 93.6742 31.8855 93.6742H81.9395C82.6866 93.6742 83.2923 94.2799 83.2923 95.027C83.2923 95.7741 82.6866 96.3798 81.9395 96.3798H31.8855C31.1384 96.3798 30.5327 95.7741 30.5327 95.027Z"/>
</svg>
