<svg aria-hidden="true" style="position: absolute; width: 0; height: 0; overflow: hidden;" version="1.1" xmlns="http://www.w3.org/2000/svg" xmlns:xlink="http://www.w3.org/1999/xlink">
<defs>
<symbol id="arrows-clockwise-24" viewBox="0 0 32 32">
<path d="M29.525 6.462v6c0 0.398-0.158 0.779-0.439 1.061s-0.663 0.439-1.061 0.439h-6c-0.398 0-0.779-0.158-1.061-0.439s-0.439-0.663-0.439-1.061 0.158-0.779 0.439-1.061c0.281-0.281 0.663-0.439 1.061-0.439h2.375l-1.687-1.675c-0.881-0.882-1.927-1.582-3.079-2.059s-2.386-0.723-3.633-0.723c-1.247 0-2.481 0.246-3.633 0.723s-2.198 1.177-3.079 2.059c-0.285 0.276-0.666 0.431-1.063 0.431s-0.778-0.155-1.063-0.431c-0.14-0.139-0.251-0.305-0.327-0.487s-0.115-0.378-0.115-0.575c0-0.197 0.039-0.393 0.115-0.575s0.187-0.348 0.327-0.487c2.346-2.34 5.524-3.655 8.838-3.655s6.492 1.314 8.837 3.655l1.687 1.675v-2.375c0-0.398 0.158-0.779 0.439-1.061s0.663-0.439 1.061-0.439c0.398 0 0.779 0.158 1.061 0.439s0.439 0.663 0.439 1.061zM22.712 22.713c-0.881 0.882-1.927 1.582-3.079 2.059s-2.386 0.723-3.633 0.723c-1.247 0-2.481-0.246-3.633-0.723s-2.198-1.177-3.079-2.059l-1.688-1.675h2.375c0.398 0 0.779-0.158 1.061-0.439s0.439-0.663 0.439-1.061c0-0.398-0.158-0.779-0.439-1.061s-0.663-0.439-1.061-0.439h-6c-0.398 0-0.779 0.158-1.061 0.439s-0.439 0.663-0.439 1.061v6c0 0.398 0.158 0.779 0.439 1.061s0.663 0.439 1.061 0.439c0.398 0 0.779-0.158 1.061-0.439s0.439-0.663 0.439-1.061v-2.375l1.688 1.675c1.16 1.162 2.537 2.084 4.054 2.712s3.142 0.953 4.784 0.953c1.642 0 3.267-0.324 4.784-0.953s2.894-1.551 4.054-2.712c0.14-0.139 0.251-0.305 0.327-0.487s0.115-0.378 0.115-0.575c0-0.197-0.039-0.393-0.115-0.575s-0.187-0.348-0.327-0.487c-0.285-0.277-0.666-0.431-1.063-0.431s-0.778 0.155-1.063 0.431z"></path>
</symbol>
<symbol id="calendar-blank-48" viewBox="0 0 32 32">
<path d="M26 4h-3v-1c0-0.265-0.105-0.52-0.293-0.707s-0.442-0.293-0.707-0.293c-0.265 0-0.52 0.105-0.707 0.293s-0.293 0.442-0.293 0.707v1h-10v-1c0-0.265-0.105-0.52-0.293-0.707s-0.442-0.293-0.707-0.293c-0.265 0-0.52 0.105-0.707 0.293s-0.293 0.442-0.293 0.707v1h-3c-0.53 0-1.039 0.211-1.414 0.586s-0.586 0.884-0.586 1.414v20c0 0.53 0.211 1.039 0.586 1.414s0.884 0.586 1.414 0.586h20c0.53 0 1.039-0.211 1.414-0.586s0.586-0.884 0.586-1.414v-20c0-0.53-0.211-1.039-0.586-1.414s-0.884-0.586-1.414-0.586zM9 6v1c0 0.265 0.105 0.52 0.293 0.707s0.442 0.293 0.707 0.293c0.265 0 0.52-0.105 0.707-0.293s0.293-0.442 0.293-0.707v-1h10v1c0 0.265 0.105 0.52 0.293 0.707s0.442 0.293 0.707 0.293c0.265 0 0.52-0.105 0.707-0.293s0.293-0.442 0.293-0.707v-1h3v4h-20v-4h3zM26 26h-20v-14h20v14z"></path>
</symbol>
<symbol id="caret-double-down-24" viewBox="0 0 32 32">
<path d="M27.063 14.937c0.14 0.139 0.251 0.305 0.327 0.487s0.115 0.378 0.115 0.575-0.039 0.393-0.115 0.575c-0.076 0.182-0.187 0.348-0.327 0.487l-10 10c-0.283 0.279-0.665 0.436-1.063 0.436s-0.779-0.157-1.063-0.436l-10-10c-0.282-0.282-0.44-0.664-0.44-1.063s0.158-0.781 0.44-1.063c0.282-0.282 0.664-0.44 1.063-0.44s0.781 0.158 1.063 0.44l8.938 8.937 8.937-8.937c0.139-0.14 0.305-0.251 0.487-0.327s0.378-0.115 0.575-0.115 0.393 0.039 0.575 0.115c0.182 0.076 0.348 0.187 0.487 0.327zM14.937 17.063c0.283 0.279 0.665 0.436 1.063 0.436s0.779-0.157 1.063-0.436l10-10c0.282-0.282 0.44-0.664 0.44-1.063s-0.158-0.781-0.44-1.063c-0.282-0.282-0.664-0.44-1.063-0.44s-0.781 0.158-1.063 0.44l-8.937 8.937-8.938-8.937c-0.14-0.14-0.305-0.25-0.487-0.326s-0.378-0.114-0.575-0.114c-0.197 0-0.393 0.039-0.575 0.114s-0.348 0.186-0.487 0.326c-0.282 0.282-0.44 0.664-0.44 1.063s0.158 0.781 0.44 1.063l10 10z"></path>
</symbol>
<symbol id="caret-double-up-24" viewBox="0 0 32 32">
<path d="M27.063 24.938c0.14 0.139 0.251 0.305 0.327 0.487s0.115 0.378 0.115 0.575c0 0.197-0.039 0.393-0.115 0.575s-0.187 0.348-0.327 0.487c-0.283 0.279-0.665 0.436-1.063 0.436s-0.779-0.157-1.063-0.436l-8.937-8.938-8.938 8.938c-0.282 0.282-0.664 0.44-1.063 0.44s-0.781-0.158-1.063-0.44c-0.282-0.282-0.44-0.664-0.44-1.063s0.158-0.781 0.44-1.063l10-10c0.139-0.14 0.305-0.251 0.487-0.327s0.378-0.115 0.575-0.115 0.393 0.039 0.575 0.115c0.182 0.076 0.348 0.187 0.487 0.327l10 10zM7.063 17.063l8.938-8.938 8.937 8.938c0.283 0.279 0.665 0.436 1.063 0.436s0.779-0.157 1.063-0.436c0.14-0.139 0.251-0.305 0.327-0.487s0.115-0.378 0.115-0.575c0-0.197-0.039-0.393-0.115-0.575s-0.187-0.348-0.327-0.487l-10-10c-0.139-0.14-0.305-0.251-0.487-0.327s-0.378-0.115-0.575-0.115-0.393 0.039-0.575 0.115c-0.182 0.076-0.348 0.187-0.487 0.327l-10 10c-0.282 0.282-0.44 0.664-0.44 1.063s0.158 0.781 0.44 1.063c0.282 0.282 0.664 0.44 1.063 0.44s0.781-0.158 1.063-0.44z"></path>
</symbol>
<symbol id="caret-left-bold-48" viewBox="0 0 32 32">
<path d="M18 21.75c-0.199-0.001-0.389-0.079-0.531-0.219l-5-5c-0.070-0.070-0.125-0.152-0.163-0.244s-0.057-0.189-0.057-0.288 0.019-0.196 0.057-0.288c0.038-0.091 0.093-0.174 0.163-0.244l5-5c0.141-0.141 0.332-0.22 0.531-0.22 0.099 0 0.196 0.019 0.287 0.057s0.174 0.093 0.244 0.163c0.070 0.070 0.125 0.153 0.163 0.244s0.057 0.189 0.057 0.288-0.019 0.196-0.057 0.288c-0.038 0.091-0.093 0.174-0.163 0.244l-4.469 4.469 4.469 4.469c0.070 0.070 0.125 0.152 0.163 0.244s0.057 0.189 0.057 0.288-0.019 0.196-0.057 0.288c-0.038 0.091-0.093 0.174-0.163 0.244-0.142 0.139-0.332 0.218-0.531 0.219z"></path>
</symbol>
<symbol id="caret-right-bold-48" viewBox="0 0 32 32">
<path d="M14 21.75c-0.199-0.001-0.389-0.079-0.531-0.219-0.070-0.070-0.125-0.152-0.163-0.244s-0.057-0.189-0.057-0.288 0.019-0.196 0.057-0.288c0.038-0.091 0.093-0.174 0.163-0.244l4.469-4.469-4.469-4.469c-0.141-0.141-0.22-0.332-0.22-0.531 0-0.099 0.019-0.196 0.057-0.288s0.093-0.174 0.163-0.244c0.070-0.070 0.153-0.125 0.244-0.163s0.189-0.057 0.288-0.057c0.199 0 0.39 0.079 0.531 0.22l5 5c0.070 0.070 0.125 0.152 0.163 0.244s0.057 0.189 0.057 0.288-0.019 0.196-0.057 0.288c-0.038 0.091-0.093 0.174-0.163 0.244l-5 5c-0.142 0.139-0.332 0.218-0.531 0.219z"></path>
</symbol>
<symbol id="check-24" viewBox="0 0 32 32">
<path d="M13 24.5c-0.398-0.002-0.779-0.159-1.063-0.437l-7-7c-0.282-0.282-0.44-0.664-0.44-1.063s0.158-0.781 0.44-1.063c0.282-0.282 0.664-0.44 1.063-0.44s0.781 0.158 1.063 0.44l5.938 5.937 12.937-12.937c0.14-0.14 0.305-0.25 0.487-0.326s0.378-0.114 0.575-0.114 0.393 0.039 0.575 0.114c0.182 0.076 0.348 0.186 0.487 0.326s0.25 0.305 0.326 0.487c0.075 0.182 0.114 0.378 0.114 0.575s-0.039 0.393-0.114 0.575c-0.076 0.182-0.186 0.348-0.326 0.487l-14 14c-0.284 0.279-0.665 0.436-1.063 0.437z"></path>
</symbol>
<symbol id="check-48" viewBox="0 0 32 32">
<path d="M13 24c-0.265-0.004-0.519-0.106-0.712-0.287l-7-7c-0.159-0.194-0.241-0.441-0.229-0.692s0.118-0.489 0.295-0.666c0.178-0.178 0.415-0.283 0.666-0.295s0.498 0.069 0.692 0.229l6.287 6.3 13.288-13.3c0.194-0.159 0.441-0.241 0.692-0.229s0.489 0.118 0.666 0.295c0.178 0.178 0.283 0.415 0.295 0.666s-0.069 0.498-0.229 0.692l-14 14c-0.193 0.181-0.447 0.284-0.713 0.287z"></path>
</symbol>
<symbol id="clipboard-text-24" viewBox="0 0 32 32">
<path d="M21.5 19.5c0 0.398-0.158 0.779-0.439 1.061s-0.663 0.439-1.061 0.439h-8c-0.398 0-0.779-0.158-1.061-0.439s-0.439-0.663-0.439-1.061c0-0.398 0.158-0.779 0.439-1.061s0.663-0.439 1.061-0.439h8c0.398 0 0.779 0.158 1.061 0.439s0.439 0.663 0.439 1.061zM20 13h-8c-0.398 0-0.779 0.158-1.061 0.439s-0.439 0.663-0.439 1.061c0 0.398 0.158 0.779 0.439 1.061s0.663 0.439 1.061 0.439h8c0.398 0 0.779-0.158 1.061-0.439s0.439-0.663 0.439-1.061c0-0.398-0.158-0.779-0.439-1.061s-0.663-0.439-1.061-0.439zM27.5 6v21c-0.003 0.662-0.268 1.296-0.736 1.764s-1.102 0.733-1.764 0.736h-18c-0.662-0.003-1.296-0.268-1.764-0.736s-0.733-1.102-0.736-1.764v-21c0.003-0.662 0.268-1.296 0.736-1.764s1.102-0.733 1.764-0.736h4.313c0.606-0.633 1.333-1.137 2.139-1.481s1.673-0.522 2.549-0.522c0.876 0 1.743 0.177 2.549 0.522s1.533 0.848 2.139 1.481h4.313c0.662 0.003 1.296 0.268 1.764 0.736s0.733 1.102 0.736 1.764zM16 4.5c-0.842-0.002-1.657 0.3-2.293 0.852s-1.052 1.314-1.17 2.148h6.925c-0.118-0.834-0.533-1.597-1.17-2.148s-1.451-0.854-2.293-0.852zM24.5 6.5h-2.175c0.115 0.492 0.174 0.995 0.175 1.5v1c0 0.398-0.158 0.779-0.439 1.061s-0.663 0.439-1.061 0.439h-10c-0.398 0-0.779-0.158-1.061-0.439s-0.439-0.663-0.439-1.061v-1c0.001-0.505 0.060-1.008 0.175-1.5h-2.175v20h17v-20z"></path>
</symbol>
<symbol id="create-document-200" viewBox="0 0 32 32">
<path d="M7.204 1.020c-1.377 0-2.492 1.11-2.492 2.48v22.672c0 1.37 1.115 2.48 2.492 2.48h14.419v0.708h-14.419c-1.77 0-3.204-1.427-3.204-3.188v-22.672c0-1.761 1.434-3.188 3.204-3.188h17.445c1.77 0 3.204 1.427 3.204 3.188v19.484h-0.712v-19.484c0-1.37-1.115-2.48-2.492-2.48h-17.445z"></path>
<path d="M7.916 14.836c0-0.196 0.159-0.354 0.356-0.354h15.309c0.197 0 0.356 0.159 0.356 0.354s-0.159 0.354-0.356 0.354h-15.309c-0.197 0-0.356-0.159-0.356-0.354z"></path>
<path d="M7.916 10.762c0-0.196 0.159-0.354 0.356-0.354h15.309c0.197 0 0.356 0.159 0.356 0.354s-0.159 0.354-0.356 0.354h-15.309c-0.197 0-0.356-0.159-0.356-0.354z"></path>
<path d="M8.094 6.865c0-0.196 0.159-0.354 0.356-0.354h15.309c0.197 0 0.356 0.159 0.356 0.354s-0.159 0.354-0.356 0.354h-15.309c-0.197 0-0.356-0.159-0.356-0.354z"></path>
<path d="M7.916 22.629c0-0.196 0.159-0.354 0.356-0.354h11.393c0.197 0 0.356 0.159 0.356 0.354s-0.16 0.354-0.356 0.354h-11.393c-0.197 0-0.356-0.159-0.356-0.354z"></path>
<path d="M7.916 18.732c0-0.196 0.159-0.354 0.356-0.354h15.309c0.197 0 0.356 0.159 0.356 0.354s-0.159 0.354-0.356 0.354h-15.309c-0.197 0-0.356-0.159-0.356-0.354z"></path>
<path d="M25.718 22.984c-2.261 0-4.094 1.824-4.094 4.074s1.833 4.074 4.094 4.074c2.261 0 4.094-1.824 4.094-4.074s-1.833-4.074-4.094-4.074zM20.911 27.058c0-2.641 2.152-4.783 4.806-4.783s4.806 2.141 4.806 4.783-2.152 4.782-4.806 4.782c-2.654 0-4.806-2.141-4.806-4.782z"></path>
<path d="M25.718 24.578c0.197 0 0.356 0.159 0.356 0.354v4.251c0 0.196-0.159 0.354-0.356 0.354s-0.356-0.159-0.356-0.354v-4.251c0-0.196 0.159-0.354 0.356-0.354z"></path>
<path d="M23.225 27.058c0-0.196 0.159-0.354 0.356-0.354h4.272c0.197 0 0.356 0.159 0.356 0.354s-0.159 0.354-0.356 0.354h-4.272c-0.197 0-0.356-0.159-0.356-0.354z"></path>
</symbol>
<symbol id="cross-24" viewBox="0 0 32 32">
<path d="M26.063 23.937c0.14 0.139 0.251 0.305 0.326 0.487s0.115 0.378 0.115 0.575-0.039 0.393-0.115 0.575c-0.076 0.182-0.187 0.348-0.326 0.487-0.283 0.279-0.665 0.436-1.063 0.436s-0.779-0.157-1.063-0.436l-7.937-7.938-7.938 7.938c-0.283 0.279-0.665 0.436-1.063 0.436s-0.779-0.157-1.063-0.436c-0.14-0.139-0.251-0.305-0.327-0.487s-0.115-0.378-0.115-0.575 0.039-0.393 0.115-0.575c0.076-0.182 0.187-0.348 0.327-0.487l7.937-7.937-7.937-7.938c-0.282-0.282-0.44-0.664-0.44-1.063 0-0.197 0.039-0.393 0.114-0.575s0.186-0.348 0.326-0.487c0.14-0.14 0.305-0.25 0.487-0.326s0.378-0.114 0.575-0.114c0.399 0 0.781 0.158 1.062 0.44l7.938 7.937 7.937-7.937c0.282-0.282 0.664-0.44 1.063-0.44s0.781 0.158 1.063 0.44c0.282 0.282 0.44 0.664 0.44 1.063s-0.158 0.781-0.44 1.063l-7.938 7.938 7.938 7.937z"></path>
</symbol>
<symbol id="cross-48" viewBox="0 0 32 32">
<path d="M25.713 24.287c0.188 0.19 0.293 0.446 0.293 0.712s-0.105 0.523-0.293 0.713c-0.191 0.185-0.447 0.288-0.713 0.288s-0.521-0.103-0.712-0.288l-8.288-8.3-8.287 8.3c-0.191 0.185-0.447 0.288-0.713 0.288s-0.521-0.103-0.713-0.288c-0.188-0.19-0.293-0.446-0.293-0.713s0.105-0.523 0.293-0.712l8.3-8.288-8.3-8.287c-0.159-0.194-0.241-0.441-0.229-0.692s0.118-0.489 0.295-0.666c0.178-0.178 0.415-0.283 0.666-0.295s0.498 0.069 0.692 0.229l8.287 8.3 8.288-8.3c0.194-0.159 0.441-0.241 0.692-0.229s0.489 0.118 0.666 0.295c0.178 0.178 0.283 0.415 0.295 0.666s-0.069 0.498-0.229 0.692l-8.3 8.287 8.3 8.288z"></path>
</symbol>
<symbol id="documents-200" viewBox="0 0 32 32">
<path d="M15.791 2.858c-1.196 0-2.164 0.969-2.164 2.164v0.309h-0.618v-0.309c0-1.538 1.245-2.783 2.783-2.783h9.586c1.537 0 2.783 1.245 2.783 2.783v12.832c0 1.537-1.245 2.783-2.783 2.783h-0.618v-0.618h0.618c1.196 0 2.164-0.969 2.164-2.164v-12.832c0-1.196-0.968-2.164-2.164-2.164h-9.586z"></path>
<path d="M24.449 11.516c0-0.171 0.138-0.309 0.309-0.309h0.618c0.171 0 0.309 0.138 0.309 0.309s-0.138 0.309-0.309 0.309h-0.618c-0.171 0-0.309-0.138-0.309-0.309z"></path>
<path d="M24.449 8.888c0-0.171 0.138-0.309 0.309-0.309h0.618c0.171 0 0.309 0.138 0.309 0.309s-0.138 0.309-0.309 0.309h-0.618c-0.171 0-0.309-0.138-0.309-0.309z"></path>
<path d="M24.449 6.569c0-0.171 0.138-0.309 0.309-0.309h0.618c0.171 0 0.309 0.138 0.309 0.309s-0.138 0.309-0.309 0.309h-0.618c-0.171 0-0.309-0.138-0.309-0.309z"></path>
<path d="M24.449 16.464c0-0.171 0.138-0.309 0.309-0.309h0.618c0.171 0 0.309 0.139 0.309 0.309s-0.138 0.309-0.309 0.309h-0.618c-0.171 0-0.309-0.138-0.309-0.309z"></path>
<path d="M24.449 13.99c0-0.171 0.138-0.309 0.309-0.309h0.618c0.171 0 0.309 0.138 0.309 0.309s-0.138 0.309-0.309 0.309h-0.618c-0.171 0-0.309-0.138-0.309-0.309z"></path>
<path d="M11.308 5.641c-1.196 0-2.165 0.969-2.165 2.164h-0.618c0-1.537 1.245-2.783 2.783-2.783h10.977c1.537 0 2.783 1.245 2.783 2.783v14.688c0 1.538-1.245 2.783-2.783 2.783h-0.618v-0.619h0.618c1.196 0 2.164-0.968 2.164-2.164v-14.688c0-1.196-0.968-2.165-2.164-2.165h-10.977z"></path>
<path d="M21.357 15.845c0-0.171 0.139-0.309 0.309-0.309h0.464c0.171 0 0.309 0.138 0.309 0.309s-0.138 0.309-0.309 0.309h-0.464c-0.171 0-0.309-0.138-0.309-0.309z"></path>
<path d="M21.357 12.908c0-0.171 0.139-0.309 0.309-0.309h0.464c0.171 0 0.309 0.138 0.309 0.309s-0.138 0.309-0.309 0.309h-0.464c-0.171 0-0.309-0.138-0.309-0.309z"></path>
<path d="M21.357 10.28c0-0.171 0.139-0.309 0.309-0.309h0.464c0.171 0 0.309 0.138 0.309 0.309s-0.138 0.309-0.309 0.309h-0.464c-0.171 0-0.309-0.138-0.309-0.309z"></path>
<path d="M21.357 21.257c0-0.171 0.139-0.309 0.309-0.309h0.464c0.171 0 0.309 0.139 0.309 0.309s-0.138 0.309-0.309 0.309h-0.464c-0.171 0-0.309-0.139-0.309-0.309z"></path>
<path d="M21.357 18.474c0-0.171 0.139-0.309 0.309-0.309h0.464c0.171 0 0.309 0.138 0.309 0.309s-0.138 0.309-0.309 0.309h-0.464c-0.171 0-0.309-0.138-0.309-0.309z"></path>
<path d="M6.824 8.424c-1.196 0-2.165 0.969-2.165 2.165v16.388c0 1.196 0.969 2.164 2.165 2.164h12.368c1.196 0 2.164-0.969 2.164-2.164v-16.388c0-1.196-0.968-2.165-2.164-2.165h-12.368zM4.041 10.589c0-1.537 1.245-2.783 2.783-2.783h12.368c1.538 0 2.783 1.245 2.783 2.783v16.388c0 1.537-1.245 2.783-2.783 2.783h-12.368c-1.537 0-2.783-1.245-2.783-2.783v-16.388z"></path>
<path d="M6.979 18.783c0-0.171 0.138-0.309 0.309-0.309h11.441c0.171 0 0.309 0.138 0.309 0.309s-0.138 0.309-0.309 0.309h-11.441c-0.171 0-0.309-0.138-0.309-0.309z"></path>
<path d="M6.979 15.691c0-0.171 0.138-0.309 0.309-0.309h11.441c0.171 0 0.309 0.138 0.309 0.309s-0.138 0.309-0.309 0.309h-11.441c-0.171 0-0.309-0.138-0.309-0.309z"></path>
<path d="M6.979 12.753c0-0.171 0.138-0.309 0.309-0.309h11.441c0.171 0 0.309 0.138 0.309 0.309s-0.138 0.309-0.309 0.309h-11.441c-0.171 0-0.309-0.138-0.309-0.309z"></path>
<path d="M6.979 24.813c0-0.171 0.138-0.309 0.309-0.309h11.441c0.171 0 0.309 0.138 0.309 0.309s-0.138 0.309-0.309 0.309h-11.441c-0.171 0-0.309-0.138-0.309-0.309z"></path>
<path d="M6.979 21.72c0-0.171 0.138-0.309 0.309-0.309h11.441c0.171 0 0.309 0.138 0.309 0.309s-0.138 0.309-0.309 0.309h-11.441c-0.171 0-0.309-0.138-0.309-0.309z"></path>
</symbol>
<symbol id="dots-three-vertical-24" viewBox="0 0 32 32">
<path d="M18 24c0 0.396-0.117 0.782-0.337 1.111s-0.532 0.585-0.898 0.737c-0.365 0.151-0.768 0.191-1.155 0.114s-0.744-0.268-1.024-0.547c-0.28-0.28-0.47-0.636-0.547-1.024s-0.038-0.79 0.114-1.155c0.151-0.365 0.408-0.678 0.737-0.898s0.716-0.337 1.111-0.337c0.53 0 1.039 0.211 1.414 0.586s0.586 0.884 0.586 1.414zM16 10c0.396 0 0.782-0.117 1.111-0.337s0.585-0.532 0.737-0.898c0.151-0.365 0.191-0.768 0.114-1.156s-0.268-0.744-0.547-1.024c-0.28-0.28-0.636-0.47-1.024-0.547s-0.79-0.038-1.155 0.114-0.678 0.408-0.898 0.737c-0.22 0.329-0.337 0.716-0.337 1.111 0 0.53 0.211 1.039 0.586 1.414s0.884 0.586 1.414 0.586zM16 14c-0.396 0-0.782 0.117-1.111 0.337s-0.585 0.532-0.737 0.898c-0.151 0.365-0.191 0.768-0.114 1.155s0.268 0.744 0.547 1.024c0.28 0.28 0.636 0.47 1.024 0.547s0.79 0.038 1.155-0.114c0.365-0.151 0.678-0.408 0.898-0.737s0.337-0.716 0.337-1.111c0-0.53-0.211-1.039-0.586-1.414s-0.884-0.586-1.414-0.586z"></path>
</symbol>
<symbol id="dots-three-vertical-48" viewBox="0 0 32 32">
<path d="M17.5 24c0 0.297-0.088 0.587-0.253 0.833s-0.399 0.439-0.673 0.552c-0.274 0.114-0.576 0.143-0.867 0.085s-0.558-0.201-0.768-0.411-0.353-0.477-0.411-0.768c-0.058-0.291-0.028-0.593 0.085-0.867s0.306-0.508 0.552-0.673 0.537-0.253 0.833-0.253c0.398 0 0.779 0.158 1.061 0.439s0.439 0.663 0.439 1.061zM16 9.5c0.297 0 0.587-0.088 0.833-0.253s0.439-0.399 0.552-0.673c0.114-0.274 0.143-0.576 0.085-0.867s-0.201-0.558-0.411-0.768-0.477-0.353-0.768-0.41c-0.291-0.058-0.593-0.028-0.867 0.085s-0.508 0.306-0.673 0.553-0.253 0.537-0.253 0.833c0 0.398 0.158 0.779 0.439 1.061s0.663 0.439 1.061 0.439zM16 14.5c-0.297 0-0.587 0.088-0.833 0.253s-0.439 0.399-0.552 0.673c-0.114 0.274-0.143 0.576-0.085 0.867s0.201 0.558 0.411 0.768 0.477 0.353 0.768 0.411c0.291 0.058 0.593 0.028 0.867-0.085s0.508-0.306 0.673-0.552 0.253-0.537 0.253-0.833c0-0.398-0.158-0.779-0.439-1.061s-0.663-0.439-1.061-0.439z"></path>
</symbol>
<symbol id="file-search-48" viewBox="0 0 32 32">
<path d="M27 11c0.002-0.133-0.024-0.265-0.075-0.388s-0.128-0.233-0.225-0.325l-6.988-7-0.075-0.063h-0.025l-0.062-0.038h-0.012l-0.063-0.050h-0.013l-0.075-0.038h-0.013l-0.087-0.038h-12.288c-0.52-0-1.019 0.202-1.393 0.564s-0.591 0.854-0.607 1.374v22c0 0.53 0.211 1.039 0.586 1.414s0.884 0.586 1.414 0.586h18c0.53 0 1.039-0.211 1.414-0.586s0.586-0.884 0.586-1.414v-16zM20 6.412l3.587 3.588h-3.587v-3.588zM25 27h-18v-22h11v6c0 0.265 0.105 0.52 0.293 0.707s0.442 0.293 0.707 0.293h6v15zM19.313 20.9c0.452-0.719 0.691-1.551 0.687-2.4-0.001-1.194-0.473-2.339-1.313-3.187-0.599-0.598-1.355-1.014-2.181-1.202s-1.687-0.138-2.486 0.142c-0.799 0.28-1.502 0.78-2.030 1.442s-0.857 1.46-0.952 2.301c-0.095 0.841 0.050 1.692 0.417 2.455s0.942 1.407 1.659 1.857 1.546 0.69 2.392 0.691c0.847 0.001 1.676-0.237 2.393-0.687l1.363 1.375c0.192 0.184 0.447 0.286 0.712 0.288 0.265-0.004 0.519-0.106 0.712-0.288 0.188-0.19 0.293-0.446 0.293-0.712s-0.105-0.523-0.293-0.712l-1.375-1.363zM13.738 20.263c-0.401-0.407-0.65-0.941-0.702-1.51s0.094-1.139 0.414-1.613c0.32-0.474 0.795-0.822 1.343-0.986s1.136-0.132 1.663 0.088 0.962 0.617 1.231 1.122c0.268 0.505 0.353 1.087 0.241 1.648s-0.416 1.065-0.858 1.427c-0.442 0.362-0.997 0.56-1.568 0.56-0.328 0.001-0.653-0.064-0.956-0.191s-0.577-0.312-0.807-0.547z"></path>
</symbol>
<symbol id="find-document-200" viewBox="0 0 32 32">
<path d="M7.224 1.996c-1.385 0-2.507 1.122-2.507 2.507v22.925c0 1.385 1.122 2.507 2.507 2.507h17.552c1.385 0 2.507-1.122 2.507-2.507v-22.925c0-1.385-1.122-2.507-2.507-2.507h-17.552zM4 4.504c0-1.781 1.443-3.224 3.224-3.224h17.552c1.781 0 3.224 1.443 3.224 3.224v22.925c0 1.781-1.443 3.224-3.224 3.224h-17.552c-1.781 0-3.224-1.443-3.224-3.224v-22.925z"></path>
<path d="M11.343 4.504c-2.176 0-3.94 1.764-3.94 3.94s1.764 3.94 3.94 3.94c2.176 0 3.94-1.764 3.94-3.94s-1.764-3.94-3.94-3.94zM6.328 8.444c0-2.77 2.245-5.015 5.015-5.015s5.015 2.245 5.015 5.015c0 2.77-2.245 5.015-5.015 5.015s-5.015-2.245-5.015-5.015z"></path>
<path d="M7.94 16.146c0-0.198 0.16-0.358 0.358-0.358h15.403c0.198 0 0.358 0.16 0.358 0.358s-0.16 0.358-0.358 0.358h-15.403c-0.198 0-0.358-0.16-0.358-0.358z"></path>
<path d="M16.537 11.847c0-0.198 0.16-0.358 0.358-0.358h6.806c0.198 0 0.358 0.16 0.358 0.358s-0.16 0.358-0.358 0.358h-6.806c-0.198 0-0.358-0.16-0.358-0.358z"></path>
<path d="M17.97 8.086c0-0.198 0.16-0.358 0.358-0.358h5.373c0.198 0 0.358 0.16 0.358 0.358s-0.16 0.358-0.358 0.358h-5.373c-0.198 0-0.358-0.16-0.358-0.358z"></path>
<path d="M7.94 24.026c0-0.198 0.16-0.358 0.358-0.358h15.403c0.198 0 0.358 0.16 0.358 0.358s-0.16 0.358-0.358 0.358h-15.403c-0.198 0-0.358-0.16-0.358-0.358z"></path>
<path d="M7.94 20.086c0-0.198 0.16-0.358 0.358-0.358h15.403c0.198 0 0.358 0.16 0.358 0.358s-0.16 0.358-0.358 0.358h-15.403c-0.198 0-0.358-0.16-0.358-0.358z"></path>
<path d="M8.35 9.423c-0.030 0.107 0.034 0.193 0.146 0.193h0.413c0.112 0 0.219-0.086 0.249-0.198l0.142-0.529h1.492v0.529c0 0.112 0.086 0.198 0.198 0.198h0.395c0.107 0 0.198-0.086 0.198-0.193v-2.622c0-0.103-0.077-0.193-0.181-0.193h-1.13c-0.61 0-1.216 0.15-1.393 0.817l-0.529 1.999zM9.64 7.622c0.069-0.258 0.284-0.421 0.555-0.421h0.598v1.096h-1.337l0.185-0.675z"></path>
<path d="M13.078 9.182c-0.224 0-0.34-0.112-0.34-0.262 0-0.142 0.116-0.254 0.318-0.254h0.645v0.327c-0.15 0.095-0.365 0.189-0.623 0.189zM13.272 7.751c0.288 0 0.43 0.103 0.43 0.438h-0.696c-0.563 0-0.993 0.245-0.993 0.731s0.43 0.739 0.993 0.739c0.331 0 0.567-0.099 0.761-0.236v0.064c0 0.073 0.056 0.129 0.129 0.129h0.404c0.073 0 0.129-0.056 0.129-0.129v-1.298c0-0.658-0.486-0.916-1.105-0.916-0.696 0-1.143 0.155-1.143 0.602 0 0.073 0.056 0.129 0.129 0.129h0.314c0.107 0 0.185-0.043 0.241-0.112 0.073-0.090 0.232-0.142 0.408-0.142z"></path>
<path d="M14.071 14.232c0.248 0.024 0.477 0.177 0.586 0.421l1.875 4.202c0.161 0.361-0.001 0.785-0.362 0.946s-0.785-0.001-0.946-0.362l-1.875-4.202c-0.107-0.24-0.071-0.508 0.071-0.708l-0.78-1.739 0.654-0.293 0.778 1.735z"></path>
</symbol>
<symbol id="find-test-tube-200" viewBox="0 0 32 32">
<path d="M18.551 7.494c-3.161 0-5.725 2.566-5.725 5.734s2.564 5.733 5.725 5.733c3.161 0 5.725-2.566 5.725-5.733s-2.564-5.734-5.725-5.734zM11.51 13.228c0-3.893 3.151-7.050 7.041-7.050s7.041 3.157 7.041 7.050-3.151 7.050-7.041 7.050c-3.889 0-7.041-3.157-7.041-7.050z"></path>
<path d="M21.667 22.024l-1.099-2.424 0.799-0.362 1.099 2.424-0.799 0.362z"></path>
<path d="M21.687 21.076c0.443-0.197 0.961 0.003 1.158 0.446l2.641 5.951c0.196 0.443-0.003 0.961-0.446 1.158s-0.961-0.003-1.158-0.446l-2.641-5.951c-0.197-0.443 0.003-0.961 0.446-1.158z"></path>
<path d="M26.613 10.41c-0.324 0.328-0.792 0.802-1.368 1.385l-0.624-0.617c0.576-0.582 1.043-1.056 1.367-1.384 0.162-0.164 0.288-0.292 0.373-0.378l0.13-0.132 0.625 0.616-0.13 0.132c-0.086 0.087-0.212 0.214-0.373 0.379z"></path>
<path d="M12.097 14.655l0.621 0.62-9.258 9.267c-0.199 0.199-0.262 0.551-0.043 1.118 0.212 0.551 0.651 1.174 1.199 1.723s1.172 0.988 1.722 1.201c0.566 0.218 0.918 0.156 1.117-0.043l0.62 0.62c-0.569 0.569-1.37 0.505-2.053 0.241-0.699-0.27-1.422-0.793-2.027-1.399s-1.128-1.329-1.397-2.028c-0.263-0.684-0.327-1.484 0.242-2.053l9.258-9.267zM9.228 28.005c-0.145 0.146-0.433 0.435-0.685 0.687-0.126 0.126-0.244 0.244-0.329 0.33l-0.14 0.14-0.621-0.62 0.14-0.14c0.086-0.086 0.203-0.203 0.329-0.329 0.253-0.253 0.541-0.541 0.684-0.686l0.001-0.001c0.29-0.29 4.009-4.053 7.982-8.076l0.624 0.616c-3.969 4.019-7.688 7.783-7.985 8.080z"></path>
<path d="M19.975 6.767l2.114-2.117 0.621 0.62-2.114 2.117-0.621-0.62z"></path>
<path d="M22.342 3.429l-0.076 0.076c-0.203 0.204-0.201 0.533-0 0.733l5.5 5.504c0.201 0.203 0.528 0.203 0.729 0l0.001-0.001 0.076-0.076c0.203-0.204 0.202-0.533 0.001-0.733l-5.499-5.503c-0.202-0.201-0.529-0.202-0.731 0zM21.721 2.808c0.544-0.544 1.427-0.544 1.972 0l5.499 5.503c0.545 0.545 0.543 1.427 0.001 1.973l-0.001 0.001-0.076 0.076c-0.544 0.547-1.428 0.547-1.972-0l-0-0.001-5.498-5.502c-0.545-0.545-0.543-1.427-0.001-1.973l0.001-0.001 0.077-0.077z"></path>
<path d="M19.927 8.796c-0.173-0.173-0.451-0.173-0.624 0l-5.304 5.311c-0.172 0.17-0.173 0.45 0.001 0.624l3.281 3.286c0.173 0.173 0.451 0.173 0.624 0l5.304-5.311c0.172-0.17 0.173-0.45-0.001-0.624l-3.281-3.286zM18.992 8.486c0.344-0.344 0.9-0.344 1.244 0l3.281 3.286c0.344 0.344 0.345 0.902-0 1.245l-0 0-5.303 5.309c-0.344 0.344-0.9 0.345-1.245 0l-3.281-3.286c-0.344-0.344-0.345-0.902 0-1.245l0-0 5.303-5.31z"></path>
<path d="M20.36 10.070c0.086 0.086 0.086 0.225 0 0.31l-4.843 4.847c-0.086 0.086-0.225 0.086-0.31 0s-0.086-0.225-0-0.31l4.843-4.847c0.086-0.086 0.224-0.086 0.31-0z"></path>
<path d="M18.662 14.634c0.086 0.086 0.086 0.225 0 0.31l-1.761 1.761c-0.086 0.086-0.225 0.086-0.31 0s-0.086-0.224 0-0.31l1.761-1.761c0.086-0.086 0.224-0.086 0.31 0z"></path>
<path d="M20.096 13.198c0.086 0.086 0.086 0.225 0 0.31l-0.66 0.66c-0.086 0.086-0.225 0.086-0.31 0s-0.086-0.225 0-0.31l0.66-0.66c0.086-0.086 0.225-0.086 0.31 0z"></path>
<path d="M21.794 11.498c0.086 0.086 0.086 0.224 0 0.31l-0.88 0.882c-0.086 0.086-0.224 0.086-0.31 0s-0.086-0.224-0-0.31l0.88-0.882c0.085-0.086 0.224-0.086 0.31-0z"></path>
</symbol>
<symbol id="gear-24" viewBox="0 0 32 32">
<path d="M16 9c-1.385 0-2.738 0.411-3.889 1.18s-2.048 1.862-2.578 3.142c-0.53 1.279-0.668 2.687-0.398 4.044s0.937 2.605 1.916 3.584c0.979 0.979 2.226 1.646 3.584 1.916s2.765 0.131 4.044-0.398c1.279-0.53 2.372-1.427 3.142-2.578s1.18-2.505 1.18-3.889c0-1.857-0.738-3.637-2.050-4.95s-3.093-2.050-4.95-2.050zM16 20c-0.791 0-1.565-0.235-2.222-0.674s-1.17-1.064-1.473-1.795-0.382-1.535-0.228-2.311c0.154-0.776 0.535-1.489 1.095-2.048s1.272-0.94 2.048-1.095c0.776-0.154 1.58-0.075 2.311 0.228s1.356 0.815 1.795 1.473c0.439 0.658 0.674 1.431 0.674 2.222-0.003 1.060-0.426 2.075-1.175 2.825s-1.765 1.172-2.825 1.175zM29.75 18.5l-1.763-2.35v-0.3l1.763-2.35c0.134-0.183 0.226-0.393 0.269-0.616s0.037-0.452-0.019-0.672c-0.323-1.199-0.802-2.351-1.425-3.425-0.112-0.199-0.268-0.369-0.457-0.497s-0.405-0.21-0.63-0.241l-2.887-0.412-0.238-0.237-0.412-2.888c-0.031-0.226-0.113-0.442-0.241-0.63s-0.298-0.345-0.497-0.457c-1.074-0.623-2.226-1.102-3.425-1.425-0.219-0.059-0.45-0.068-0.673-0.025s-0.433 0.137-0.615 0.275l-2.338 1.75h-0.325l-2.337-1.75c-0.183-0.134-0.393-0.226-0.616-0.269s-0.452-0.037-0.672 0.019c-1.199 0.323-2.351 0.802-3.425 1.425-0.199 0.112-0.369 0.268-0.497 0.457s-0.21 0.404-0.241 0.63l-0.412 2.888c-0.085 0.073-0.165 0.152-0.237 0.237l-2.888 0.413c-0.226 0.031-0.442 0.113-0.63 0.241s-0.345 0.298-0.457 0.497c-0.623 1.074-1.102 2.226-1.425 3.425-0.059 0.219-0.068 0.45-0.025 0.673s0.137 0.434 0.275 0.615l1.763 2.35v0.3l-1.763 2.35c-0.134 0.183-0.226 0.393-0.269 0.616s-0.037 0.452 0.019 0.672c0.323 1.199 0.802 2.351 1.425 3.425 0.112 0.199 0.268 0.369 0.457 0.497s0.404 0.211 0.63 0.241l2.888 0.412 0.237 0.238 0.413 2.887c0.031 0.226 0.113 0.442 0.241 0.63s0.298 0.345 0.497 0.457c1.074 0.623 2.226 1.102 3.425 1.425 0.126 0.036 0.257 0.053 0.387 0.050 0.325 0.002 0.641-0.104 0.9-0.3l2.337-1.75h0.325l2.338 1.75c0.183 0.134 0.393 0.226 0.616 0.269s0.452 0.037 0.672-0.019c1.199-0.323 2.351-0.802 3.425-1.425 0.199-0.112 0.369-0.268 0.497-0.457s0.211-0.405 0.241-0.63l0.425-2.9 0.213-0.213 2.9-0.425c0.226-0.031 0.442-0.113 0.63-0.241s0.345-0.298 0.457-0.497c0.623-1.074 1.102-2.226 1.425-3.425 0.059-0.219 0.068-0.45 0.025-0.673s-0.137-0.433-0.275-0.615zM26.313 21.088l-2.662 0.387c-0.333 0.049-0.641 0.207-0.875 0.45-0.213 0.225-0.613 0.637-0.813 0.813-0.264 0.238-0.436 0.561-0.487 0.913l-0.387 2.662c-0.452 0.229-0.92 0.425-1.4 0.588l-2.15-1.625c-0.283-0.212-0.634-0.314-0.987-0.287h-1.1c-0.353-0.025-0.703 0.077-0.988 0.287l-2.15 1.625c-0.48-0.162-0.948-0.359-1.4-0.588l-0.387-2.662c-0.051-0.352-0.224-0.675-0.488-0.913-0.277-0.239-0.536-0.498-0.775-0.775-0.238-0.264-0.561-0.436-0.912-0.487l-2.662-0.387c-0.229-0.452-0.425-0.92-0.588-1.4l1.625-2.15c0.199-0.272 0.305-0.601 0.3-0.937-0.013-0.313-0.025-0.888-0.013-1.15 0.025-0.353-0.077-0.703-0.287-0.988l-1.625-2.15c0.162-0.48 0.359-0.948 0.588-1.4l2.662-0.387c0.352-0.051 0.674-0.224 0.912-0.488 0.239-0.277 0.498-0.536 0.775-0.775 0.264-0.238 0.436-0.561 0.488-0.912l0.387-2.662c0.452-0.229 0.92-0.425 1.4-0.588l2.15 1.625c0.284 0.212 0.634 0.314 0.988 0.287 0.362-0.013 0.737-0.013 1.1 0 0.353 0.027 0.704-0.075 0.987-0.287l2.15-1.625c0.48 0.162 0.948 0.359 1.4 0.588l0.387 2.662c0.051 0.352 0.224 0.674 0.487 0.912 0.277 0.239 0.536 0.498 0.775 0.775 0.238 0.264 0.561 0.436 0.913 0.488l2.662 0.387c0.229 0.452 0.425 0.92 0.588 1.4l-1.625 2.15c-0.201 0.27-0.302 0.601-0.287 0.938 0 0.312 0.013 0.887 0 1.15-0.027 0.353 0.075 0.704 0.287 0.987l1.625 2.15c-0.162 0.48-0.359 0.948-0.588 1.4z"></path>
</symbol>
<symbol id="list-plus-48" viewBox="0 0 32 32">
<path d="M4 8c0-0.265 0.105-0.52 0.293-0.707s0.442-0.293 0.707-0.293h22c0.265 0 0.52 0.105 0.707 0.293s0.293 0.442 0.293 0.707c0 0.265-0.105 0.52-0.293 0.707s-0.442 0.293-0.707 0.293h-22c-0.265 0-0.52-0.105-0.707-0.293s-0.293-0.442-0.293-0.707zM5 17h22c0.265 0 0.52-0.105 0.707-0.293s0.293-0.442 0.293-0.707c0-0.265-0.105-0.52-0.293-0.707s-0.442-0.293-0.707-0.293h-22c-0.265 0-0.52 0.105-0.707 0.293s-0.293 0.442-0.293 0.707c0 0.265 0.105 0.52 0.293 0.707s0.442 0.293 0.707 0.293zM18 23h-13c-0.265 0-0.52 0.105-0.707 0.293s-0.293 0.442-0.293 0.707c0 0.265 0.105 0.52 0.293 0.707s0.442 0.293 0.707 0.293h13c0.265 0 0.52-0.105 0.707-0.293s0.293-0.442 0.293-0.707c0-0.265-0.105-0.52-0.293-0.707s-0.442-0.293-0.707-0.293zM29 23h-2v-2c0-0.265-0.105-0.52-0.293-0.707s-0.442-0.293-0.707-0.293c-0.265 0-0.52 0.105-0.707 0.293s-0.293 0.442-0.293 0.707v2h-2c-0.265 0-0.52 0.105-0.707 0.293s-0.293 0.442-0.293 0.707c0 0.265 0.105 0.52 0.293 0.707s0.442 0.293 0.707 0.293h2v2c0 0.265 0.105 0.52 0.293 0.707s0.442 0.293 0.707 0.293c0.265 0 0.52-0.105 0.707-0.293s0.293-0.442 0.293-0.707v-2h2c0.265 0 0.52-0.105 0.707-0.293s0.293-0.442 0.293-0.707c0-0.265-0.105-0.52-0.293-0.707s-0.442-0.293-0.707-0.293z"></path>
</symbol>
<symbol id="minus-48" viewBox="0 0 32 32">
<path d="M27 17h-22c-0.265 0-0.52-0.105-0.707-0.293s-0.293-0.442-0.293-0.707c0-0.265 0.105-0.52 0.293-0.707s0.442-0.293 0.707-0.293h22c0.265 0 0.52 0.105 0.707 0.293s0.293 0.442 0.293 0.707c0 0.265-0.105 0.52-0.293 0.707s-0.442 0.293-0.707 0.293z"></path>
</symbol>
<symbol id="plus-24" viewBox="0 0 32 32">
<path d="M28.5 16c0 0.398-0.158 0.779-0.439 1.061s-0.663 0.439-1.061 0.439h-9.5v9.5c0 0.398-0.158 0.779-0.439 1.061s-0.663 0.439-1.061 0.439c-0.398 0-0.779-0.158-1.061-0.439s-0.439-0.663-0.439-1.061v-9.5h-9.5c-0.398 0-0.779-0.158-1.061-0.439s-0.439-0.663-0.439-1.061c0-0.398 0.158-0.779 0.439-1.061s0.663-0.439 1.061-0.439h9.5v-9.5c0-0.398 0.158-0.779 0.439-1.061s0.663-0.439 1.061-0.439c0.398 0 0.779 0.158 1.061 0.439s0.439 0.663 0.439 1.061v9.5h9.5c0.398 0 0.779 0.158 1.061 0.439s0.439 0.663 0.439 1.061z"></path>
</symbol>
<symbol id="plus-48" viewBox="0 0 32 32">
<path d="M28 16c0 0.265-0.105 0.52-0.293 0.707s-0.442 0.293-0.707 0.293h-10v10c0 0.265-0.105 0.52-0.293 0.707s-0.442 0.293-0.707 0.293c-0.265 0-0.52-0.105-0.707-0.293s-0.293-0.442-0.293-0.707v-10h-10c-0.265 0-0.52-0.105-0.707-0.293s-0.293-0.442-0.293-0.707c0-0.265 0.105-0.52 0.293-0.707s0.442-0.293 0.707-0.293h10v-10c0-0.265 0.105-0.52 0.293-0.707s0.442-0.293 0.707-0.293c0.265 0 0.52 0.105 0.707 0.293s0.293 0.442 0.293 0.707v10h10c0.265 0 0.52 0.105 0.707 0.293s0.293 0.442 0.293 0.707z"></path>
</symbol>
<symbol id="test-tube-48" viewBox="0 0 32 32">
<path d="M29.533 10.2l-7.467-7.533c-0.2-0.2-0.467-0.267-0.733-0.267s-0.533 0.133-0.733 0.267l-16.267 16.267c-1 1.067-1.6 2.467-1.6 4 0 1.467 0.6 2.933 1.667 3.933s2.467 1.667 3.933 1.667c1.467 0 2.933-0.6 3.933-1.667l14.067-14.067 2.8-0.933c0.133-0.067 0.333-0.133 0.4-0.267 0.133-0.133 0.2-0.267 0.267-0.467 0.067-0.133 0-0.333 0-0.533-0.067-0.133-0.133-0.267-0.267-0.4zM10.867 25.467c-0.333 0.333-0.733 0.6-1.133 0.8-0.467 0.2-0.933 0.267-1.4 0.267s-0.933-0.067-1.4-0.267c-0.467-0.2-0.8-0.467-1.133-0.8s-0.6-0.733-0.8-1.133c-0.2-0.467-0.267-0.933-0.267-1.4s0.067-0.933 0.267-1.4c0.2-0.467 0.467-0.8 0.8-1.133l3.2-3.2c0.267-0.2 2.267-1.467 5.4 0.133 1.4 0.667 2.6 0.933 3.667 1l-7.2 7.133zM25.533 10.933c-0.133 0.067-0.267 0.133-0.4 0.267l-4.467 4.467c-0.267 0.2-2.2 1.467-5.4-0.133-1.4-0.667-2.6-0.933-3.667-1l9.733-9.733 5.667 5.667-1.467 0.467z"></path>
<path d="M21.733 23.667c0.667-0.267 1.2-0.733 1.533-1.267 0.4-0.6 0.6-1.267 0.6-1.933 0-0.867-0.333-1.667-0.867-2.333l-0.733 0.733c0.067 0.067 0.133 0.133 0.2 0.2 0.267 0.4 0.4 0.867 0.4 1.4 0 0.667-0.267 1.267-0.733 1.733s-1.067 0.733-1.733 0.733c-0.467 0-1-0.133-1.4-0.4-0.067-0.067-0.133-0.133-0.2-0.2l-0.733 0.733c0.467 0.4 1 0.733 1.667 0.8 0.667 0.133 1.4 0.067 2-0.2z"></path>
<path d="M23.028 17.634l0.233 0.291c0.572 0.715 0.94 1.586 0.94 2.542 0 0.733-0.22 1.462-0.653 2.114-0.37 0.589-0.955 1.1-1.684 1.393-0.663 0.293-1.457 0.364-2.179 0.223-0.756-0.080-1.347-0.46-1.834-0.877l-0.273-0.234 1.224-1.224 0.411 0.411c0.334 0.213 0.787 0.327 1.189 0.327 0.572 0 1.089-0.227 1.498-0.636s0.636-0.925 0.636-1.498c0-0.463-0.112-0.855-0.327-1.189l-0.411-0.411 1.232-1.232zM22.736 18.869l0.008 0.013c0.307 0.461 0.456 0.993 0.456 1.585 0 0.761-0.306 1.444-0.831 1.969s-1.208 0.831-1.969 0.831c-0.52 0-1.121-0.147-1.585-0.456l-0.013-0.008-0.236 0.236c0.362 0.264 0.75 0.452 1.2 0.497l0.016 0.002 0.016 0.003c0.605 0.121 1.268 0.058 1.799-0.178l0.006-0.003 0.006-0.002c0.6-0.24 1.078-0.66 1.374-1.134l0.003-0.004 0.003-0.004c0.365-0.547 0.544-1.15 0.544-1.748 0-0.655-0.211-1.274-0.573-1.822l-0.225 0.225z"></path>
<path d="M27.133 18.8c0-0.067 0-0.133 0-0.2-0.133-0.6-0.4-1.133-0.667-1.667-0.067-0.067-0.067-0.133-0.133-0.133-0.067-0.067-0.133-0.067-0.2-0.067l-1.467-0.2-0.733 0.733 0.067 0.067c0.067 0.067 0.2 0.133 0.333 0.2l1.467 0.2c0.133 0.333 0.333 0.667 0.4 1l-0.867 1.2c-0.067 0.067-0.067 0.2-0.067 0.333s0 0.467 0 0.6c0 0.133 0 0.267 0.067 0.333l0.867 1.2c-0.133 0.333-0.267 0.667-0.4 1l-1.467 0.2c-0.133 0-0.2 0.067-0.267 0.133s-0.333 0.333-0.4 0.4c-0.067 0.067-0.133 0.2-0.2 0.333l-0.2 1.467c-0.333 0.133-0.667 0.333-1 0.4l-1.2-0.867c-0.067-0.067-0.2-0.133-0.333-0.133h-0.6c-0.133 0.067-0.267 0.067-0.333 0.133l-1.2 0.867c-0.333-0.133-0.667-0.267-1-0.4l-0.2-1.467c0-0.133-0.067-0.2-0.2-0.333l-0.067-0.067-0.733 0.733 0.2 1.467c0 0.067 0.067 0.133 0.067 0.2 0.067 0.067 0.067 0.133 0.133 0.133 0.533 0.267 1.067 0.533 1.667 0.667 0.067 0 0.067 0 0.133 0 0.133 0 0.2-0.067 0.267-0.067l1.2-0.667h0.333l1.2 0.667c0.067 0.067 0.133 0.067 0.2 0.067s0.133 0 0.2 0c0.6-0.133 1.133-0.4 1.667-0.667 0.067-0.067 0.133-0.067 0.133-0.133 0.067-0.067 0.067-0.133 0.067-0.2l0.2-1.533c0.067-0.067 0.133-0.133 0.2-0.2l1.533-0.2c0.067 0 0.133-0.067 0.2-0.067 0.067-0.067 0.133-0.067 0.133-0.133 0.267-0.533 0.533-1.067 0.667-1.667 0-0.067 0-0.133 0-0.2s-0.067-0.133-0.067-0.2l-0.933-1.2c0-0.133 0-0.2 0-0.333l0.933-1.267c0.4-0.267 0.4-0.333 0.4-0.467z"></path>
<path d="M24.548 16.181l1.608 0.219c0.070 0 0.201 0.007 0.332 0.097 0.026 0.011 0.051 0.024 0.076 0.042 0.062 0.044 0.098 0.096 0.113 0.118 0.007 0.011 0.014 0.022 0.018 0.028l0.001 0.002c0.004 0.007 0.006 0.010 0.008 0.013l0 0.001 0.036 0.036 0.032 0.064c0.262 0.523 0.544 1.088 0.686 1.728l0.008 0.036v0.237c0 0.002 0 0.004 0 0.006 0 0.030 0 0.091-0.014 0.156-0.017 0.080-0.051 0.153-0.103 0.222-0.081 0.108-0.21 0.21-0.383 0.328l-0.834 1.132v0.109l0.933 1.2v0.069c0.008 0.015 0.023 0.045 0.035 0.078 0.014 0.037 0.032 0.096 0.032 0.167v0.237l-0.008 0.036c-0.14 0.629-0.415 1.185-0.672 1.7-0.011 0.043-0.030 0.085-0.058 0.125-0.044 0.062-0.096 0.098-0.118 0.113-0.011 0.007-0.022 0.014-0.028 0.018l-0.002 0.001c-0.007 0.004-0.010 0.006-0.013 0.008l-0.001 0-0.095 0.095h-0.093c-0.015 0.008-0.045 0.023-0.078 0.035s-0.080 0.027-0.138 0.031l-1.407 0.184-0.040 0.040-0.183 1.399c-0 0.070-0.006 0.202-0.097 0.333-0.011 0.026-0.024 0.051-0.042 0.076-0.044 0.062-0.096 0.098-0.118 0.113-0.011 0.007-0.022 0.014-0.028 0.018l-0.002 0.001c-0.007 0.004-0.010 0.006-0.013 0.008l-0.001 0-0.036 0.036-0.064 0.032c-0.523 0.262-1.088 0.544-1.728 0.686l-0.036 0.008h-0.237c-0.002 0-0.005 0-0.007 0-0.070 0-0.234 0.001-0.387-0.127l-1.092-0.607h-0.161l-1.2 0.667h-0.048c-0.007 0.003-0.015 0.006-0.023 0.009-0.060 0.024-0.155 0.057-0.282 0.057h-0.17l-0.036-0.008c-0.629-0.14-1.185-0.415-1.7-0.672-0.043-0.011-0.085-0.030-0.125-0.058-0.062-0.044-0.098-0.096-0.113-0.118-0.007-0.011-0.014-0.022-0.018-0.028l-0.001-0.002c-0.004-0.007-0.006-0.010-0.008-0.013l-0-0.001-0.095-0.095v-0.093c-0.008-0.015-0.023-0.045-0.035-0.078-0.012-0.032-0.027-0.079-0.031-0.137l-0.22-1.616 1.086-1.086 0.302 0.302c0.007 0.007 0.015 0.014 0.022 0.022 0.111 0.109 0.265 0.262 0.275 0.521l0.171 1.256 0.649 0.26 1.037-0.749c0.094-0.081 0.205-0.112 0.253-0.126 0.003-0.001 0.005-0.001 0.007-0.002 0.008-0.002 0.016-0.004 0.023-0.006 0.056-0.016 0.083-0.024 0.111-0.038l0.070-0.035h0.679c0.214 0 0.418 0.094 0.546 0.209l1.055 0.762c0.091-0.029 0.188-0.069 0.295-0.117 0.047-0.021 0.097-0.045 0.151-0.069 0.058-0.027 0.12-0.056 0.181-0.084l0.182-1.334 0.027-0.054c0.032-0.064 0.069-0.137 0.107-0.204 0.036-0.064 0.088-0.146 0.154-0.212l0.4-0.4c0.002-0.002 0.004-0.004 0.006-0.006 0.070-0.071 0.215-0.215 0.47-0.224l1.255-0.171 0.26-0.649-0.748-1.036c-0.091-0.105-0.118-0.229-0.129-0.305-0.012-0.082-0.012-0.17-0.012-0.23v-0.617c-0-0.060-0-0.148 0.012-0.23 0.011-0.076 0.038-0.2 0.129-0.305l0.764-1.058c-0.029-0.091-0.069-0.188-0.117-0.295-0.021-0.047-0.045-0.097-0.069-0.151-0.027-0.058-0.056-0.12-0.084-0.181l-1.334-0.182-0.054-0.027c-0.064-0.032-0.137-0.069-0.204-0.107-0.064-0.036-0.146-0.088-0.212-0.154l-0.302-0.302 1.086-1.086zM24.785 16.886l-0.328 0.328 1.58 0.215 0.072 0.18c0.041 0.103 0.086 0.199 0.135 0.305 0.027 0.057 0.055 0.117 0.084 0.182 0.077 0.172 0.157 0.366 0.198 0.571l0.029 0.143-0.951 1.317c-0.001 0.012-0.003 0.029-0.003 0.051-0.001 0.020-0.001 0.040-0.001 0.064l0.9-1.221 0.049-0.032c0.096-0.064 0.161-0.111 0.206-0.148 0.022-0.018 0.036-0.031 0.046-0.040v-0.164c-0.122-0.523-0.353-0.998-0.607-1.507l-0.064-0.064h-0.018l-1.325-0.181zM25.97 23.713l-1.614 0.22h-0.017l-0.001 0.001c-0.009 0.008-0.018 0.017-0.036 0.035l-0.4 0.4c-0.001 0.001-0.005 0.006-0.013 0.017-0.009 0.013-0.021 0.031-0.034 0.055-0.012 0.022-0.025 0.045-0.038 0.070l0.293-0.293 1.635-0.213c0.001-0.001 0.003-0.001 0.005-0.002l0.003-0.001c0.015-0.007 0.046-0.023 0.079-0.035 0.005-0.002 0.009-0.003 0.014-0.005 0.042-0.083 0.082-0.165 0.122-0.246zM23.541 26.182l-0.151 0.060c-0.103 0.041-0.199 0.086-0.305 0.135-0.057 0.027-0.117 0.055-0.182 0.084-0.172 0.077-0.366 0.157-0.571 0.198l-0.143 0.029-1.34-0.967-0.018-0.018c0 0-0.003-0.003-0.009-0.006-0.008-0.005-0.018-0.010-0.029-0.016-0.025-0.011-0.047-0.015-0.060-0.015h-0.531c-0.061 0.024-0.116 0.039-0.152 0.049-0.007 0.002-0.013 0.003-0.018 0.005-0.011 0.003-0.020 0.006-0.026 0.008l-1.361 0.983-1.351-0.54-0.215-1.58-0.328 0.328 0.176 1.294c0.001 0.001 0.002 0.003 0.002 0.005l0.001 0.003c0.007 0.015 0.023 0.046 0.035 0.079 0.002 0.005 0.003 0.009 0.005 0.015 0.518 0.259 0.999 0.496 1.531 0.619h0.096c0.006 0 0.011-0 0.035-0.009 0.005-0.002 0.009-0.004 0.015-0.006 0.003-0.001 0.007-0.003 0.012-0.005 0.011-0.004 0.026-0.011 0.043-0.017 0.013-0.005 0.030-0.010 0.050-0.015l1.226-0.681h0.506l1.318 0.733h0.158c0.523-0.122 0.998-0.353 1.507-0.607l0.064-0.064v-0.017l0.008-0.063z"></path>
</symbol>
<symbol id="trash-48" viewBox="0 0 32 32">
<path d="M27 6h-5v-1c-0.003-0.795-0.32-1.556-0.882-2.118s-1.323-0.879-2.118-0.882h-6c-0.795 0.003-1.556 0.32-2.118 0.882s-0.879 1.323-0.882 2.118v1h-5c-0.265 0-0.52 0.105-0.707 0.293s-0.293 0.442-0.293 0.707c0 0.265 0.105 0.52 0.293 0.707s0.442 0.293 0.707 0.293h1v18c0 0.53 0.211 1.039 0.586 1.414s0.884 0.586 1.414 0.586h16c0.53 0 1.039-0.211 1.414-0.586s0.586-0.884 0.586-1.414v-18h1c0.265 0 0.52-0.105 0.707-0.293s0.293-0.442 0.293-0.707c0-0.265-0.105-0.52-0.293-0.707s-0.442-0.293-0.707-0.293zM12 5c0-0.265 0.105-0.52 0.293-0.707s0.442-0.293 0.707-0.293h6c0.265 0 0.52 0.105 0.707 0.293s0.293 0.442 0.293 0.707v1h-8v-1zM24 26h-16v-18h16v18zM14 13v8c0 0.265-0.105 0.52-0.293 0.707s-0.442 0.293-0.707 0.293c-0.265 0-0.52-0.105-0.707-0.293s-0.293-0.442-0.293-0.707v-8c0-0.265 0.105-0.52 0.293-0.707s0.442-0.293 0.707-0.293c0.265 0 0.52 0.105 0.707 0.293s0.293 0.442 0.293 0.707zM20 13v8c0 0.265-0.105 0.52-0.293 0.707s-0.442 0.293-0.707 0.293c-0.265 0-0.52-0.105-0.707-0.293s-0.293-0.442-0.293-0.707v-8c0-0.265 0.105-0.52 0.293-0.707s0.442-0.293 0.707-0.293c0.265 0 0.52 0.105 0.707 0.293s0.293 0.442 0.293 0.707z"></path>
</symbol>
<symbol id="user-plus-48" viewBox="0 0 32 32">
<path d="M32 17c0 0.265-0.105 0.52-0.293 0.707s-0.442 0.293-0.707 0.293h-2v2c0 0.265-0.105 0.52-0.293 0.707s-0.442 0.293-0.707 0.293c-0.265 0-0.52-0.105-0.707-0.293s-0.293-0.442-0.293-0.707v-2h-2c-0.265 0-0.52-0.105-0.707-0.293s-0.293-0.442-0.293-0.707c0-0.265 0.105-0.52 0.293-0.707s0.442-0.293 0.707-0.293h2v-2c0-0.265 0.105-0.52 0.293-0.707s0.442-0.293 0.707-0.293c0.265 0 0.52 0.105 0.707 0.293s0.293 0.442 0.293 0.707v2h2c0.265 0 0.52 0.105 0.707 0.293s0.293 0.442 0.293 0.707zM24.987 24.363c0.085 0.1 0.148 0.215 0.188 0.34s0.054 0.256 0.042 0.386c-0.012 0.13-0.049 0.257-0.11 0.373s-0.144 0.218-0.245 0.301c-0.099 0.086-0.214 0.151-0.339 0.192s-0.257 0.055-0.387 0.044c-0.131-0.012-0.258-0.050-0.373-0.112s-0.218-0.147-0.3-0.249c-1.223-1.452-2.748-2.619-4.469-3.419s-3.596-1.215-5.494-1.215c-1.898 0-3.773 0.415-5.494 1.215s-3.246 1.968-4.469 3.419c-0.178 0.17-0.412 0.269-0.658 0.277s-0.486-0.074-0.675-0.232-0.313-0.38-0.348-0.623c-0.035-0.244 0.020-0.492 0.156-0.697 1.827-2.194 4.249-3.814 6.975-4.663-1.563-0.979-2.766-2.441-3.425-4.164s-0.741-3.614-0.231-5.387c0.51-1.773 1.582-3.332 3.056-4.442s3.269-1.71 5.114-1.71c1.845 0 3.64 0.6 5.113 1.71s2.546 2.669 3.056 4.442c0.51 1.773 0.428 3.664-0.231 5.387s-1.862 3.184-3.426 4.164c2.726 0.849 5.148 2.468 6.975 4.663zM13.5 19c1.286 0 2.542-0.381 3.611-1.095s1.902-1.729 2.394-2.917c0.492-1.188 0.621-2.495 0.37-3.756s-0.87-2.419-1.779-3.328c-0.909-0.909-2.067-1.528-3.328-1.779s-2.568-0.122-3.756 0.37c-1.188 0.492-2.203 1.325-2.917 2.394s-1.095 2.326-1.095 3.611c0 1.724 0.685 3.377 1.904 4.596s2.872 1.904 4.596 1.904z"></path>
</symbol>
</defs>
</svg>
