<svg width="48" height="48" viewBox="0 0 48 48" xmlns="http://www.w3.org/2000/svg">
<path d="M6 12C6 11.6022 6.15804 11.2206 6.43934 10.9393C6.72064 10.658 7.10218 10.5 7.5 10.5H40.5C40.8978 10.5 41.2794 10.658 41.5607 10.9393C41.842 11.2206 42 11.6022 42 12C42 12.3978 41.842 12.7794 41.5607 13.0607C41.2794 13.342 40.8978 13.5 40.5 13.5H7.5C7.10218 13.5 6.72064 13.342 6.43934 13.0607C6.15804 12.7794 6 12.3978 6 12ZM7.5 25.5H40.5C40.8978 25.5 41.2794 25.342 41.5607 25.0607C41.842 24.7794 42 24.3978 42 24C42 23.6022 41.842 23.2206 41.5607 22.9393C41.2794 22.658 40.8978 22.5 40.5 22.5H7.5C7.10218 22.5 6.72064 22.658 6.43934 22.9393C6.15804 23.2206 6 23.6022 6 24C6 24.3978 6.15804 24.7794 6.43934 25.0607C6.72064 25.342 7.10218 25.5 7.5 25.5ZM27 34.5H7.5C7.10218 34.5 6.72064 34.658 6.43934 34.9393C6.15804 35.2206 6 35.6022 6 36C6 36.3978 6.15804 36.7794 6.43934 37.0607C6.72064 37.342 7.10218 37.5 7.5 37.5H27C27.3978 37.5 27.7794 37.342 28.0607 37.0607C28.342 36.7794 28.5 36.3978 28.5 36C28.5 35.6022 28.342 35.2206 28.0607 34.9393C27.7794 34.658 27.3978 34.5 27 34.5ZM43.5 34.5H40.5V31.5C40.5 31.1022 40.342 30.7206 40.0607 30.4393C39.7794 30.158 39.3978 30 39 30C38.6022 30 38.2206 30.158 37.9393 30.4393C37.658 30.7206 37.5 31.1022 37.5 31.5V34.5H34.5C34.1022 34.5 33.7206 34.658 33.4393 34.9393C33.158 35.2206 33 35.6022 33 36C33 36.3978 33.158 36.7794 33.4393 37.0607C33.7206 37.342 34.1022 37.5 34.5 37.5H37.5V40.5C37.5 40.8978 37.658 41.2794 37.9393 41.5607C38.2206 41.842 38.6022 42 39 42C39.3978 42 39.7794 41.842 40.0607 41.5607C40.342 41.2794 40.5 40.8978 40.5 40.5V37.5H43.5C43.8978 37.5 44.2794 37.342 44.5607 37.0607C44.842 36.7794 45 36.3978 45 36C45 35.6022 44.842 35.2206 44.5607 34.9393C44.2794 34.658 43.8978 34.5 43.5 34.5Z"/>
</svg>
