<svg aria-hidden="true" style="position: absolute; width: 0; height: 0; overflow: hidden;" version="1.1" xmlns="http://www.w3.org/2000/svg" xmlns:xlink="http://www.w3.org/1999/xlink">
<defs>
<symbol id="calendar-blank" viewBox="0 0 32 32">
<path d="M26 4h-3v-1c0-0.265-0.105-0.52-0.293-0.707s-0.442-0.293-0.707-0.293c-0.265 0-0.52 0.105-0.707 0.293s-0.293 0.442-0.293 0.707v1h-10v-1c0-0.265-0.105-0.52-0.293-0.707s-0.442-0.293-0.707-0.293c-0.265 0-0.52 0.105-0.707 0.293s-0.293 0.442-0.293 0.707v1h-3c-0.53 0-1.039 0.211-1.414 0.586s-0.586 0.884-0.586 1.414v20c0 0.53 0.211 1.039 0.586 1.414s0.884 0.586 1.414 0.586h20c0.53 0 1.039-0.211 1.414-0.586s0.586-0.884 0.586-1.414v-20c0-0.53-0.211-1.039-0.586-1.414s-0.884-0.586-1.414-0.586zM9 6v1c0 0.265 0.105 0.52 0.293 0.707s0.442 0.293 0.707 0.293c0.265 0 0.52-0.105 0.707-0.293s0.293-0.442 0.293-0.707v-1h10v1c0 0.265 0.105 0.52 0.293 0.707s0.442 0.293 0.707 0.293c0.265 0 0.52-0.105 0.707-0.293s0.293-0.442 0.293-0.707v-1h3v4h-20v-4h3zM26 26h-20v-14h20v14z"></path>
</symbol>
<symbol id="calendar-blank-bold" viewBox="0 0 32 32">
<path d="M26 3.5h-2.5v-1c0-0.398-0.158-0.779-0.439-1.061s-0.663-0.439-1.061-0.439c-0.398 0-0.779 0.158-1.061 0.439s-0.439 0.663-0.439 1.061v1h-9v-1c0-0.398-0.158-0.779-0.439-1.061s-0.663-0.439-1.061-0.439c-0.398 0-0.779 0.158-1.061 0.439s-0.439 0.663-0.439 1.061v1h-2.5c-0.662 0.003-1.296 0.268-1.764 0.736s-0.733 1.102-0.736 1.764v20c0.003 0.662 0.268 1.296 0.736 1.764s1.102 0.733 1.764 0.736h20c0.662-0.003 1.296-0.268 1.764-0.736s0.733-1.102 0.736-1.764v-20c-0.003-0.662-0.268-1.296-0.736-1.764s-1.102-0.733-1.764-0.736zM25.5 6.5v3h-19v-3h19zM6.5 25.5v-13h19v13h-19z"></path>
</symbol>
<symbol id="caret-double-down" viewBox="0 0 32 32">
<path d="M26.712 15.287c0.188 0.19 0.293 0.446 0.293 0.712s-0.105 0.523-0.293 0.713l-10 10c-0.191 0.185-0.447 0.288-0.713 0.288s-0.521-0.103-0.712-0.288l-10-10c-0.159-0.194-0.241-0.441-0.229-0.692s0.118-0.489 0.295-0.666c0.178-0.178 0.415-0.283 0.666-0.295s0.498 0.069 0.692 0.229l9.287 9.3 9.288-9.3c0.19-0.188 0.446-0.293 0.712-0.293s0.523 0.105 0.713 0.293zM15.287 16.712c0.191 0.185 0.447 0.288 0.712 0.288s0.521-0.103 0.713-0.288l10-10c0.159-0.194 0.241-0.441 0.229-0.692s-0.118-0.489-0.295-0.666c-0.178-0.178-0.415-0.283-0.666-0.295s-0.498 0.069-0.692 0.229l-9.288 9.3-9.287-9.3c-0.194-0.159-0.441-0.241-0.692-0.229s-0.489 0.118-0.666 0.295c-0.178 0.178-0.283 0.415-0.295 0.666s0.069 0.498 0.229 0.692l10 10z"></path>
</symbol>
<symbol id="caret-double-down-bold" viewBox="0 0 32 32">
<path d="M27.063 14.937c0.14 0.139 0.251 0.305 0.327 0.487s0.115 0.378 0.115 0.575-0.039 0.393-0.115 0.575c-0.076 0.182-0.187 0.348-0.327 0.487l-10 10c-0.283 0.279-0.665 0.436-1.063 0.436s-0.779-0.157-1.063-0.436l-10-10c-0.282-0.282-0.44-0.664-0.44-1.063s0.158-0.781 0.44-1.063c0.282-0.282 0.664-0.44 1.063-0.44s0.781 0.158 1.063 0.44l8.938 8.937 8.937-8.937c0.139-0.14 0.305-0.251 0.487-0.327s0.378-0.115 0.575-0.115 0.393 0.039 0.575 0.115c0.182 0.076 0.348 0.187 0.487 0.327zM14.937 17.063c0.283 0.279 0.665 0.436 1.063 0.436s0.779-0.157 1.063-0.436l10-10c0.282-0.282 0.44-0.664 0.44-1.063s-0.158-0.781-0.44-1.063c-0.282-0.282-0.664-0.44-1.063-0.44s-0.781 0.158-1.063 0.44l-8.937 8.937-8.938-8.937c-0.14-0.14-0.305-0.25-0.487-0.326s-0.378-0.114-0.575-0.114c-0.197 0-0.393 0.039-0.575 0.114s-0.348 0.186-0.487 0.326c-0.282 0.282-0.44 0.664-0.44 1.063s0.158 0.781 0.44 1.063l10 10z"></path>
</symbol>
<symbol id="caret-double-up" viewBox="0 0 32 32">
<path d="M26.712 25.287c0.188 0.19 0.293 0.446 0.293 0.713s-0.105 0.523-0.293 0.712c-0.191 0.185-0.447 0.288-0.712 0.288s-0.521-0.103-0.713-0.288l-9.287-9.3-9.288 9.3c-0.194 0.159-0.441 0.241-0.692 0.229s-0.489-0.118-0.666-0.295c-0.178-0.178-0.283-0.415-0.295-0.666s0.069-0.498 0.229-0.692l10-10c0.19-0.188 0.446-0.293 0.713-0.293s0.523 0.105 0.712 0.293l10 10zM6.712 16.712l9.288-9.3 9.287 9.3c0.191 0.185 0.447 0.288 0.713 0.288s0.521-0.103 0.712-0.288c0.188-0.19 0.293-0.446 0.293-0.712s-0.105-0.523-0.293-0.713l-10-10c-0.19-0.188-0.446-0.293-0.712-0.293s-0.523 0.105-0.713 0.293l-10 10c-0.109 0.090-0.199 0.201-0.262 0.327s-0.1 0.264-0.107 0.406c-0.007 0.141 0.016 0.282 0.067 0.414s0.129 0.252 0.229 0.352c0.1 0.1 0.22 0.178 0.352 0.229s0.273 0.074 0.414 0.067c0.141-0.007 0.279-0.043 0.406-0.107s0.238-0.153 0.327-0.262z"></path>
</symbol>
<symbol id="caret-double-up-bold" viewBox="0 0 32 32">
<path d="M27.063 24.938c0.14 0.139 0.251 0.305 0.327 0.487s0.115 0.378 0.115 0.575c0 0.197-0.039 0.393-0.115 0.575s-0.187 0.348-0.327 0.487c-0.283 0.279-0.665 0.436-1.063 0.436s-0.779-0.157-1.063-0.436l-8.937-8.938-8.938 8.938c-0.282 0.282-0.664 0.44-1.063 0.44s-0.781-0.158-1.063-0.44c-0.282-0.282-0.44-0.664-0.44-1.063s0.158-0.781 0.44-1.063l10-10c0.139-0.14 0.305-0.251 0.487-0.327s0.378-0.115 0.575-0.115 0.393 0.039 0.575 0.115c0.182 0.076 0.348 0.187 0.487 0.327l10 10zM7.063 17.063l8.938-8.938 8.937 8.938c0.283 0.279 0.665 0.436 1.063 0.436s0.779-0.157 1.063-0.436c0.14-0.139 0.251-0.305 0.327-0.487s0.115-0.378 0.115-0.575c0-0.197-0.039-0.393-0.115-0.575s-0.187-0.348-0.327-0.487l-10-10c-0.139-0.14-0.305-0.251-0.487-0.327s-0.378-0.115-0.575-0.115-0.393 0.039-0.575 0.115c-0.182 0.076-0.348 0.187-0.487 0.327l-10 10c-0.282 0.282-0.44 0.664-0.44 1.063s0.158 0.781 0.44 1.063c0.282 0.282 0.664 0.44 1.063 0.44s0.781-0.158 1.063-0.44z"></path>
</symbol>
<symbol id="caret-left" viewBox="0 0 32 32">
<path d="M20 27c-0.265-0.004-0.519-0.106-0.712-0.287l-10-10c-0.188-0.19-0.293-0.446-0.293-0.713s0.105-0.523 0.293-0.712l10-10c0.194-0.159 0.441-0.241 0.692-0.229s0.489 0.118 0.666 0.295c0.178 0.178 0.283 0.415 0.295 0.666s-0.069 0.498-0.229 0.692l-9.3 9.287 9.3 9.288c0.188 0.19 0.293 0.446 0.293 0.712s-0.105 0.523-0.293 0.713c-0.193 0.181-0.447 0.284-0.713 0.287z"></path>
</symbol>
<symbol id="caret-left-bold" viewBox="0 0 32 32">
<path d="M20 27.5c-0.398-0.002-0.779-0.159-1.063-0.437l-10-10c-0.14-0.139-0.251-0.305-0.326-0.487s-0.115-0.378-0.115-0.575 0.039-0.393 0.115-0.575c0.076-0.182 0.187-0.348 0.326-0.487l10-10c0.282-0.282 0.664-0.44 1.063-0.44 0.197 0 0.393 0.039 0.575 0.114s0.348 0.186 0.488 0.326c0.139 0.14 0.25 0.305 0.326 0.487s0.114 0.378 0.114 0.575-0.039 0.393-0.114 0.575c-0.075 0.182-0.186 0.348-0.326 0.487l-8.938 8.938 8.938 8.937c0.14 0.139 0.251 0.305 0.326 0.487s0.115 0.378 0.115 0.575-0.039 0.393-0.115 0.575c-0.076 0.182-0.187 0.348-0.326 0.487-0.284 0.279-0.665 0.436-1.063 0.437z"></path>
</symbol>
<symbol id="caret-right" viewBox="0 0 32 32">
<path d="M12 27c-0.265-0.004-0.519-0.106-0.712-0.287-0.188-0.19-0.293-0.446-0.293-0.713s0.105-0.523 0.293-0.712l9.3-9.288-9.3-9.287c-0.159-0.194-0.241-0.441-0.229-0.692s0.118-0.489 0.295-0.666c0.178-0.178 0.415-0.283 0.666-0.295s0.498 0.069 0.692 0.229l10 10c0.188 0.19 0.293 0.446 0.293 0.712s-0.105 0.523-0.293 0.713l-10 10c-0.193 0.181-0.447 0.284-0.713 0.287z"></path>
</symbol>
<symbol id="caret-right-bold" viewBox="0 0 32 32">
<path d="M12 27.5c-0.398-0.002-0.779-0.159-1.063-0.437-0.14-0.139-0.251-0.305-0.326-0.487s-0.115-0.378-0.115-0.575 0.039-0.393 0.115-0.575c0.076-0.182 0.187-0.348 0.326-0.487l8.937-8.937-8.937-8.938c-0.282-0.282-0.44-0.664-0.44-1.063 0-0.197 0.039-0.393 0.114-0.575s0.186-0.348 0.326-0.487c0.14-0.14 0.305-0.25 0.487-0.326s0.378-0.114 0.575-0.114c0.399 0 0.781 0.158 1.063 0.44l10 10c0.14 0.139 0.251 0.305 0.326 0.487s0.115 0.378 0.115 0.575-0.039 0.393-0.115 0.575c-0.076 0.182-0.187 0.348-0.326 0.487l-10 10c-0.284 0.279-0.665 0.436-1.063 0.437z"></path>
</symbol>
<symbol id="check" viewBox="0 0 32 32">
<path d="M13 24c-0.265-0.004-0.519-0.106-0.712-0.287l-7-7c-0.159-0.194-0.241-0.441-0.229-0.692s0.118-0.489 0.295-0.666c0.178-0.178 0.415-0.283 0.666-0.295s0.498 0.069 0.692 0.229l6.287 6.3 13.288-13.3c0.194-0.159 0.441-0.241 0.692-0.229s0.489 0.118 0.666 0.295c0.178 0.178 0.283 0.415 0.295 0.666s-0.069 0.498-0.229 0.692l-14 14c-0.193 0.181-0.447 0.284-0.713 0.287z"></path>
</symbol>
<symbol id="check-bold" viewBox="0 0 32 32">
<path d="M13 24.5c-0.398-0.002-0.779-0.159-1.063-0.437l-7-7c-0.282-0.282-0.44-0.664-0.44-1.063s0.158-0.781 0.44-1.063c0.282-0.282 0.664-0.44 1.063-0.44s0.781 0.158 1.063 0.44l5.938 5.937 12.937-12.937c0.14-0.14 0.305-0.25 0.487-0.326s0.378-0.114 0.575-0.114 0.393 0.039 0.575 0.114c0.182 0.076 0.348 0.186 0.487 0.326s0.25 0.305 0.326 0.487c0.075 0.182 0.114 0.378 0.114 0.575s-0.039 0.393-0.114 0.575c-0.076 0.182-0.186 0.348-0.326 0.487l-14 14c-0.284 0.279-0.665 0.436-1.063 0.437z"></path>
</symbol>
<symbol id="checks" viewBox="0 0 32 32">
<path d="M19.212 11.212l-11 11c-0.191 0.185-0.447 0.288-0.713 0.288s-0.521-0.103-0.712-0.288l-5.5-5.5c-0.159-0.194-0.241-0.441-0.229-0.692s0.118-0.489 0.295-0.666c0.178-0.178 0.415-0.283 0.666-0.295s0.498 0.069 0.692 0.229l4.787 4.8 10.288-10.3c0.194-0.159 0.441-0.241 0.692-0.229s0.489 0.118 0.666 0.295c0.178 0.178 0.283 0.415 0.295 0.666s-0.069 0.498-0.229 0.692zM30.712 9.787c-0.19-0.188-0.446-0.293-0.713-0.293s-0.523 0.105-0.712 0.293l-10.288 10.3-2.212-2.212c-0.19-0.172-0.439-0.265-0.696-0.259s-0.501 0.111-0.682 0.293c-0.182 0.182-0.286 0.426-0.293 0.682s0.086 0.506 0.259 0.696l2.913 2.925c0.191 0.185 0.447 0.288 0.712 0.288s0.521-0.103 0.713-0.288l11-11c0.188-0.19 0.293-0.446 0.293-0.712s-0.105-0.523-0.293-0.713z"></path>
</symbol>
<symbol id="checks-bold" viewBox="0 0 32 32">
<path d="M19.063 11.563l-11 11c-0.283 0.279-0.665 0.436-1.063 0.436s-0.779-0.157-1.063-0.436l-5.5-5.5c-0.282-0.282-0.44-0.664-0.44-1.063s0.158-0.781 0.44-1.063c0.282-0.282 0.664-0.44 1.063-0.44s0.781 0.158 1.063 0.44l4.438 4.437 9.937-9.937c0.282-0.282 0.664-0.44 1.063-0.44s0.781 0.158 1.063 0.44c0.282 0.282 0.44 0.664 0.44 1.063s-0.158 0.781-0.44 1.063zM31.563 9.438c-0.139-0.14-0.305-0.251-0.487-0.326s-0.378-0.115-0.575-0.115-0.393 0.039-0.575 0.115c-0.182 0.076-0.348 0.187-0.487 0.326l-9.937 9.937-0.95-0.937c-0.133-0.16-0.299-0.291-0.485-0.384s-0.391-0.146-0.599-0.155c-0.208-0.009-0.416 0.025-0.611 0.1s-0.371 0.191-0.518 0.338c-0.147 0.147-0.262 0.324-0.338 0.518s-0.109 0.402-0.1 0.611 0.062 0.412 0.155 0.599c0.093 0.187 0.223 0.352 0.384 0.485l2 2.013c0.283 0.279 0.665 0.436 1.063 0.436s0.779-0.157 1.063-0.436l11-11c0.14-0.139 0.251-0.305 0.327-0.487s0.115-0.378 0.115-0.575-0.039-0.393-0.115-0.575c-0.076-0.182-0.187-0.348-0.327-0.487z"></path>
</symbol>
<symbol id="clipboard" viewBox="0 0 32 32">
<path d="M25 4h-4.538c-0.561-0.63-1.248-1.133-2.017-1.478s-1.603-0.523-2.445-0.523-1.676 0.178-2.445 0.523c-0.769 0.345-1.456 0.849-2.017 1.478h-4.538c-0.53 0-1.039 0.211-1.414 0.586s-0.586 0.884-0.586 1.414v21c0 0.53 0.211 1.039 0.586 1.414s0.884 0.586 1.414 0.586h18c0.53 0 1.039-0.211 1.414-0.586s0.586-0.884 0.586-1.414v-21c0-0.53-0.211-1.039-0.586-1.414s-0.884-0.586-1.414-0.586zM16 4c1.060 0.003 2.075 0.426 2.825 1.175s1.172 1.765 1.175 2.825h-8c0.003-1.060 0.426-2.075 1.175-2.825s1.765-1.172 2.825-1.175zM25 27h-18v-21h3.35c-0.231 0.641-0.35 1.318-0.35 2v1c0 0.265 0.105 0.52 0.293 0.707s0.442 0.293 0.707 0.293h10c0.265 0 0.52-0.105 0.707-0.293s0.293-0.442 0.293-0.707v-1c-0-0.682-0.119-1.359-0.35-2h3.35v21z"></path>
</symbol>
<symbol id="clipboard-text" viewBox="0 0 32 32">
<path d="M21 19c0 0.265-0.105 0.52-0.293 0.707s-0.442 0.293-0.707 0.293h-8c-0.265 0-0.52-0.105-0.707-0.293s-0.293-0.442-0.293-0.707c0-0.265 0.105-0.52 0.293-0.707s0.442-0.293 0.707-0.293h8c0.265 0 0.52 0.105 0.707 0.293s0.293 0.442 0.293 0.707zM20 14h-8c-0.265 0-0.52 0.105-0.707 0.293s-0.293 0.442-0.293 0.707c0 0.265 0.105 0.52 0.293 0.707s0.442 0.293 0.707 0.293h8c0.265 0 0.52-0.105 0.707-0.293s0.293-0.442 0.293-0.707c0-0.265-0.105-0.52-0.293-0.707s-0.442-0.293-0.707-0.293zM27 6v21c0 0.53-0.211 1.039-0.586 1.414s-0.884 0.586-1.414 0.586h-18c-0.53 0-1.039-0.211-1.414-0.586s-0.586-0.884-0.586-1.414v-21c0-0.53 0.211-1.039 0.586-1.414s0.884-0.586 1.414-0.586h4.538c0.561-0.63 1.248-1.133 2.017-1.478s1.603-0.523 2.445-0.523 1.676 0.178 2.445 0.523c0.769 0.345 1.456 0.849 2.017 1.478h4.538c0.53 0 1.039 0.211 1.414 0.586s0.586 0.884 0.586 1.414zM12 8h8c0-1.061-0.421-2.078-1.172-2.828s-1.768-1.172-2.828-1.172-2.078 0.421-2.828 1.172c-0.75 0.75-1.172 1.768-1.172 2.828zM25 6h-3.35c0.231 0.641 0.35 1.318 0.35 2v1c0 0.265-0.105 0.52-0.293 0.707s-0.442 0.293-0.707 0.293h-10c-0.265 0-0.52-0.105-0.707-0.293s-0.293-0.442-0.293-0.707v-1c0-0.682 0.119-1.359 0.35-2h-3.35v21h18v-21z"></path>
</symbol>
<symbol id="clipboard-text-bold" viewBox="0 0 32 32">
<path d="M21.5 19.5c0 0.398-0.158 0.779-0.439 1.061s-0.663 0.439-1.061 0.439h-8c-0.398 0-0.779-0.158-1.061-0.439s-0.439-0.663-0.439-1.061c0-0.398 0.158-0.779 0.439-1.061s0.663-0.439 1.061-0.439h8c0.398 0 0.779 0.158 1.061 0.439s0.439 0.663 0.439 1.061zM20 13h-8c-0.398 0-0.779 0.158-1.061 0.439s-0.439 0.663-0.439 1.061c0 0.398 0.158 0.779 0.439 1.061s0.663 0.439 1.061 0.439h8c0.398 0 0.779-0.158 1.061-0.439s0.439-0.663 0.439-1.061c0-0.398-0.158-0.779-0.439-1.061s-0.663-0.439-1.061-0.439zM27.5 6v21c-0.003 0.662-0.268 1.296-0.736 1.764s-1.102 0.733-1.764 0.736h-18c-0.662-0.003-1.296-0.268-1.764-0.736s-0.733-1.102-0.736-1.764v-21c0.003-0.662 0.268-1.296 0.736-1.764s1.102-0.733 1.764-0.736h4.313c0.606-0.633 1.333-1.137 2.139-1.481s1.673-0.522 2.549-0.522c0.876 0 1.743 0.177 2.549 0.522s1.533 0.848 2.139 1.481h4.313c0.662 0.003 1.296 0.268 1.764 0.736s0.733 1.102 0.736 1.764zM16 4.5c-0.842-0.002-1.657 0.3-2.293 0.852s-1.052 1.314-1.17 2.148h6.925c-0.118-0.834-0.533-1.597-1.17-2.148s-1.451-0.854-2.293-0.852zM24.5 6.5h-2.175c0.115 0.492 0.174 0.995 0.175 1.5v1c0 0.398-0.158 0.779-0.439 1.061s-0.663 0.439-1.061 0.439h-10c-0.398 0-0.779-0.158-1.061-0.439s-0.439-0.663-0.439-1.061v-1c0.001-0.505 0.060-1.008 0.175-1.5h-2.175v20h17v-20z"></path>
</symbol>
<symbol id="paperclip" viewBox="0 0 32 32">
<path d="M26.213 15.287c0.188 0.19 0.293 0.446 0.293 0.713s-0.105 0.523-0.293 0.712l-10.263 10.238c-1.313 1.313-3.093 2.050-4.95 2.050s-3.637-0.738-4.95-2.050c-1.313-1.313-2.050-3.093-2.050-4.95s0.738-3.637 2.050-4.95l12.412-12.575c0.459-0.484 1.011-0.872 1.622-1.139s1.27-0.41 1.937-0.419c0.667-0.009 1.33 0.115 1.948 0.366s1.18 0.623 1.653 1.095c0.472 0.471 0.845 1.033 1.097 1.651s0.378 1.28 0.37 1.947c-0.008 0.667-0.149 1.326-0.416 1.938s-0.653 1.164-1.136 1.624l-12.413 12.575c-0.277 0.282-0.608 0.505-0.973 0.658s-0.756 0.23-1.152 0.23c-0.594 0.001-1.176-0.174-1.671-0.503s-0.88-0.799-1.108-1.348c-0.228-0.549-0.287-1.153-0.171-1.736s0.403-1.118 0.824-1.538l10.413-10.575c0.090-0.101 0.2-0.183 0.322-0.24s0.256-0.089 0.391-0.094c0.135-0.004 0.27 0.019 0.396 0.068s0.241 0.123 0.338 0.218c0.097 0.095 0.173 0.208 0.224 0.334s0.077 0.26 0.075 0.395c-0.002 0.135-0.032 0.269-0.087 0.393s-0.135 0.235-0.234 0.327l-10.413 10.587c-0.095 0.093-0.17 0.204-0.222 0.326s-0.078 0.254-0.078 0.386c-0.001 0.266 0.102 0.522 0.288 0.712 0.192 0.183 0.447 0.286 0.712 0.288s0.522-0.102 0.713-0.288l12.4-12.587c0.282-0.277 0.505-0.608 0.658-0.973s0.231-0.756 0.23-1.152c0.001-0.594-0.174-1.176-0.503-1.671s-0.799-0.88-1.348-1.108c-0.549-0.228-1.153-0.287-1.736-0.171s-1.118 0.403-1.538 0.824l-12.4 12.588c-0.484 0.459-0.872 1.011-1.139 1.622s-0.41 1.27-0.419 1.937c-0.009 0.667 0.115 1.33 0.366 1.948s0.623 1.18 1.095 1.653c0.472 0.472 1.033 0.845 1.651 1.097s1.28 0.378 1.947 0.37 1.326-0.149 1.938-0.416c0.612-0.267 1.164-0.653 1.624-1.136l10.25-10.25c0.19-0.188 0.446-0.293 0.712-0.293s0.523 0.105 0.713 0.293z"></path>
</symbol>
<symbol id="create-document" viewBox="0 0 32 32">
<path d="M7.204 1.020c-1.377 0-2.492 1.11-2.492 2.48v22.672c0 1.37 1.115 2.48 2.492 2.48h14.419v0.708h-14.419c-1.77 0-3.204-1.427-3.204-3.188v-22.672c0-1.761 1.434-3.188 3.204-3.188h17.445c1.77 0 3.204 1.427 3.204 3.188v19.484h-0.712v-19.484c0-1.37-1.115-2.48-2.492-2.48h-17.445z"></path>
<path d="M7.916 14.836c0-0.196 0.159-0.354 0.356-0.354h15.309c0.197 0 0.356 0.159 0.356 0.354s-0.159 0.354-0.356 0.354h-15.309c-0.197 0-0.356-0.159-0.356-0.354z"></path>
<path d="M7.916 10.762c0-0.196 0.159-0.354 0.356-0.354h15.309c0.197 0 0.356 0.159 0.356 0.354s-0.159 0.354-0.356 0.354h-15.309c-0.197 0-0.356-0.159-0.356-0.354z"></path>
<path d="M8.094 6.865c0-0.196 0.159-0.354 0.356-0.354h15.309c0.197 0 0.356 0.159 0.356 0.354s-0.159 0.354-0.356 0.354h-15.309c-0.197 0-0.356-0.159-0.356-0.354z"></path>
<path d="M7.916 22.629c0-0.196 0.159-0.354 0.356-0.354h11.393c0.197 0 0.356 0.159 0.356 0.354s-0.16 0.354-0.356 0.354h-11.393c-0.197 0-0.356-0.159-0.356-0.354z"></path>
<path d="M7.916 18.732c0-0.196 0.159-0.354 0.356-0.354h15.309c0.197 0 0.356 0.159 0.356 0.354s-0.159 0.354-0.356 0.354h-15.309c-0.197 0-0.356-0.159-0.356-0.354z"></path>
<path d="M25.718 22.984c-2.261 0-4.094 1.824-4.094 4.074s1.833 4.074 4.094 4.074c2.261 0 4.094-1.824 4.094-4.074s-1.833-4.074-4.094-4.074zM20.911 27.058c0-2.641 2.152-4.783 4.806-4.783s4.806 2.141 4.806 4.783-2.152 4.782-4.806 4.782c-2.654 0-4.806-2.141-4.806-4.782z"></path>
<path d="M25.718 24.578c0.197 0 0.356 0.159 0.356 0.354v4.251c0 0.196-0.159 0.354-0.356 0.354s-0.356-0.159-0.356-0.354v-4.251c0-0.196 0.159-0.354 0.356-0.354z"></path>
<path d="M23.225 27.058c0-0.196 0.159-0.354 0.356-0.354h4.272c0.197 0 0.356 0.159 0.356 0.354s-0.159 0.354-0.356 0.354h-4.272c-0.197 0-0.356-0.159-0.356-0.354z"></path>
</symbol>
<symbol id="cross" viewBox="0 0 32 32">
<path d="M25.713 24.287c0.188 0.19 0.293 0.446 0.293 0.712s-0.105 0.523-0.293 0.713c-0.191 0.185-0.447 0.288-0.713 0.288s-0.521-0.103-0.712-0.288l-8.288-8.3-8.287 8.3c-0.191 0.185-0.447 0.288-0.713 0.288s-0.521-0.103-0.713-0.288c-0.188-0.19-0.293-0.446-0.293-0.713s0.105-0.523 0.293-0.712l8.3-8.288-8.3-8.287c-0.159-0.194-0.241-0.441-0.229-0.692s0.118-0.489 0.295-0.666c0.178-0.178 0.415-0.283 0.666-0.295s0.498 0.069 0.692 0.229l8.287 8.3 8.288-8.3c0.194-0.159 0.441-0.241 0.692-0.229s0.489 0.118 0.666 0.295c0.178 0.178 0.283 0.415 0.295 0.666s-0.069 0.498-0.229 0.692l-8.3 8.287 8.3 8.288z"></path>
</symbol>
<symbol id="cross-bold" viewBox="0 0 32 32">
<path d="M26.063 23.937c0.14 0.139 0.251 0.305 0.326 0.487s0.115 0.378 0.115 0.575-0.039 0.393-0.115 0.575c-0.076 0.182-0.187 0.348-0.326 0.487-0.283 0.279-0.665 0.436-1.063 0.436s-0.779-0.157-1.063-0.436l-7.937-7.938-7.938 7.938c-0.283 0.279-0.665 0.436-1.063 0.436s-0.779-0.157-1.063-0.436c-0.14-0.139-0.251-0.305-0.327-0.487s-0.115-0.378-0.115-0.575 0.039-0.393 0.115-0.575c0.076-0.182 0.187-0.348 0.327-0.487l7.937-7.937-7.937-7.938c-0.282-0.282-0.44-0.664-0.44-1.063 0-0.197 0.039-0.393 0.114-0.575s0.186-0.348 0.326-0.487c0.14-0.14 0.305-0.25 0.487-0.326s0.378-0.114 0.575-0.114c0.399 0 0.781 0.158 1.062 0.44l7.938 7.937 7.937-7.937c0.282-0.282 0.664-0.44 1.063-0.44s0.781 0.158 1.063 0.44c0.282 0.282 0.44 0.664 0.44 1.063s-0.158 0.781-0.44 1.063l-7.938 7.938 7.938 7.937z"></path>
</symbol>
<symbol id="documents" viewBox="0 0 32 32">
<path d="M15.791 2.858c-1.196 0-2.164 0.969-2.164 2.164v0.309h-0.618v-0.309c0-1.538 1.245-2.783 2.783-2.783h9.586c1.537 0 2.783 1.245 2.783 2.783v12.832c0 1.537-1.245 2.783-2.783 2.783h-0.618v-0.618h0.618c1.196 0 2.164-0.969 2.164-2.164v-12.832c0-1.196-0.968-2.164-2.164-2.164h-9.586z"></path>
<path d="M24.449 11.516c0-0.171 0.138-0.309 0.309-0.309h0.618c0.171 0 0.309 0.138 0.309 0.309s-0.138 0.309-0.309 0.309h-0.618c-0.171 0-0.309-0.138-0.309-0.309z"></path>
<path d="M24.449 8.888c0-0.171 0.138-0.309 0.309-0.309h0.618c0.171 0 0.309 0.138 0.309 0.309s-0.138 0.309-0.309 0.309h-0.618c-0.171 0-0.309-0.138-0.309-0.309z"></path>
<path d="M24.449 6.569c0-0.171 0.138-0.309 0.309-0.309h0.618c0.171 0 0.309 0.138 0.309 0.309s-0.138 0.309-0.309 0.309h-0.618c-0.171 0-0.309-0.138-0.309-0.309z"></path>
<path d="M24.449 16.464c0-0.171 0.138-0.309 0.309-0.309h0.618c0.171 0 0.309 0.139 0.309 0.309s-0.138 0.309-0.309 0.309h-0.618c-0.171 0-0.309-0.138-0.309-0.309z"></path>
<path d="M24.449 13.99c0-0.171 0.138-0.309 0.309-0.309h0.618c0.171 0 0.309 0.138 0.309 0.309s-0.138 0.309-0.309 0.309h-0.618c-0.171 0-0.309-0.138-0.309-0.309z"></path>
<path d="M11.308 5.641c-1.196 0-2.165 0.969-2.165 2.164h-0.618c0-1.537 1.245-2.783 2.783-2.783h10.977c1.537 0 2.783 1.245 2.783 2.783v14.688c0 1.538-1.245 2.783-2.783 2.783h-0.618v-0.619h0.618c1.196 0 2.164-0.968 2.164-2.164v-14.688c0-1.196-0.968-2.165-2.164-2.165h-10.977z"></path>
<path d="M21.357 15.845c0-0.171 0.139-0.309 0.309-0.309h0.464c0.171 0 0.309 0.138 0.309 0.309s-0.138 0.309-0.309 0.309h-0.464c-0.171 0-0.309-0.138-0.309-0.309z"></path>
<path d="M21.357 12.908c0-0.171 0.139-0.309 0.309-0.309h0.464c0.171 0 0.309 0.138 0.309 0.309s-0.138 0.309-0.309 0.309h-0.464c-0.171 0-0.309-0.138-0.309-0.309z"></path>
<path d="M21.357 10.28c0-0.171 0.139-0.309 0.309-0.309h0.464c0.171 0 0.309 0.138 0.309 0.309s-0.138 0.309-0.309 0.309h-0.464c-0.171 0-0.309-0.138-0.309-0.309z"></path>
<path d="M21.357 21.257c0-0.171 0.139-0.309 0.309-0.309h0.464c0.171 0 0.309 0.139 0.309 0.309s-0.138 0.309-0.309 0.309h-0.464c-0.171 0-0.309-0.139-0.309-0.309z"></path>
<path d="M21.357 18.474c0-0.171 0.139-0.309 0.309-0.309h0.464c0.171 0 0.309 0.138 0.309 0.309s-0.138 0.309-0.309 0.309h-0.464c-0.171 0-0.309-0.138-0.309-0.309z"></path>
<path d="M6.824 8.424c-1.196 0-2.165 0.969-2.165 2.165v16.388c0 1.196 0.969 2.164 2.165 2.164h12.368c1.196 0 2.164-0.969 2.164-2.164v-16.388c0-1.196-0.968-2.165-2.164-2.165h-12.368zM4.041 10.589c0-1.537 1.245-2.783 2.783-2.783h12.368c1.538 0 2.783 1.245 2.783 2.783v16.388c0 1.537-1.245 2.783-2.783 2.783h-12.368c-1.537 0-2.783-1.245-2.783-2.783v-16.388z"></path>
<path d="M6.979 18.783c0-0.171 0.138-0.309 0.309-0.309h11.441c0.171 0 0.309 0.138 0.309 0.309s-0.138 0.309-0.309 0.309h-11.441c-0.171 0-0.309-0.138-0.309-0.309z"></path>
<path d="M6.979 15.691c0-0.171 0.138-0.309 0.309-0.309h11.441c0.171 0 0.309 0.138 0.309 0.309s-0.138 0.309-0.309 0.309h-11.441c-0.171 0-0.309-0.138-0.309-0.309z"></path>
<path d="M6.979 12.753c0-0.171 0.138-0.309 0.309-0.309h11.441c0.171 0 0.309 0.138 0.309 0.309s-0.138 0.309-0.309 0.309h-11.441c-0.171 0-0.309-0.138-0.309-0.309z"></path>
<path d="M6.979 24.813c0-0.171 0.138-0.309 0.309-0.309h11.441c0.171 0 0.309 0.138 0.309 0.309s-0.138 0.309-0.309 0.309h-11.441c-0.171 0-0.309-0.138-0.309-0.309z"></path>
<path d="M6.979 21.72c0-0.171 0.138-0.309 0.309-0.309h11.441c0.171 0 0.309 0.138 0.309 0.309s-0.138 0.309-0.309 0.309h-11.441c-0.171 0-0.309-0.138-0.309-0.309z"></path>
</symbol>
<symbol id="dots-three-vertical" viewBox="0 0 32 32">
<path d="M17.5 24c0 0.297-0.088 0.587-0.253 0.833s-0.399 0.439-0.673 0.552c-0.274 0.114-0.576 0.143-0.867 0.085s-0.558-0.201-0.768-0.411-0.353-0.477-0.411-0.768c-0.058-0.291-0.028-0.593 0.085-0.867s0.306-0.508 0.552-0.673 0.537-0.253 0.833-0.253c0.398 0 0.779 0.158 1.061 0.439s0.439 0.663 0.439 1.061zM16 9.5c0.297 0 0.587-0.088 0.833-0.253s0.439-0.399 0.552-0.673c0.114-0.274 0.143-0.576 0.085-0.867s-0.201-0.558-0.411-0.768-0.477-0.353-0.768-0.41c-0.291-0.058-0.593-0.028-0.867 0.085s-0.508 0.306-0.673 0.553-0.253 0.537-0.253 0.833c0 0.398 0.158 0.779 0.439 1.061s0.663 0.439 1.061 0.439zM16 14.5c-0.297 0-0.587 0.088-0.833 0.253s-0.439 0.399-0.552 0.673c-0.114 0.274-0.143 0.576-0.085 0.867s0.201 0.558 0.411 0.768 0.477 0.353 0.768 0.411c0.291 0.058 0.593 0.028 0.867-0.085s0.508-0.306 0.673-0.552 0.253-0.537 0.253-0.833c0-0.398-0.158-0.779-0.439-1.061s-0.663-0.439-1.061-0.439z"></path>
</symbol>
<symbol id="dots-three-vertical-bold" viewBox="0 0 32 32">
<path d="M18 24c0 0.396-0.117 0.782-0.337 1.111s-0.532 0.585-0.898 0.737c-0.365 0.151-0.768 0.191-1.155 0.114s-0.744-0.268-1.024-0.547c-0.28-0.28-0.47-0.636-0.547-1.024s-0.038-0.79 0.114-1.155c0.151-0.365 0.408-0.678 0.737-0.898s0.716-0.337 1.111-0.337c0.53 0 1.039 0.211 1.414 0.586s0.586 0.884 0.586 1.414zM16 10c0.396 0 0.782-0.117 1.111-0.337s0.585-0.532 0.737-0.898c0.151-0.365 0.191-0.768 0.114-1.156s-0.268-0.744-0.547-1.024c-0.28-0.28-0.636-0.47-1.024-0.547s-0.79-0.038-1.155 0.114-0.678 0.408-0.898 0.737c-0.22 0.329-0.337 0.716-0.337 1.111 0 0.53 0.211 1.039 0.586 1.414s0.884 0.586 1.414 0.586zM16 14c-0.396 0-0.782 0.117-1.111 0.337s-0.585 0.532-0.737 0.898c-0.151 0.365-0.191 0.768-0.114 1.155s0.268 0.744 0.547 1.024c0.28 0.28 0.636 0.47 1.024 0.547s0.79 0.038 1.155-0.114c0.365-0.151 0.678-0.408 0.898-0.737s0.337-0.716 0.337-1.111c0-0.53-0.211-1.039-0.586-1.414s-0.884-0.586-1.414-0.586z"></path>
</symbol>
<symbol id="file" viewBox="0 0 32 32">
<path d="M26.712 10.288l-7-7c-0.19-0.186-0.446-0.289-0.712-0.288h-12c-0.53 0-1.039 0.211-1.414 0.586s-0.586 0.884-0.586 1.414v22c0 0.53 0.211 1.039 0.586 1.414s0.884 0.586 1.414 0.586h18c0.53 0 1.039-0.211 1.414-0.586s0.586-0.884 0.586-1.414v-16c0.002-0.266-0.102-0.522-0.288-0.712zM20 6.412l3.587 3.588h-3.587v-3.588zM25 27h-18v-22h11v6c0 0.265 0.105 0.52 0.293 0.707s0.442 0.293 0.707 0.293h6v15z"></path>
</symbol>
<symbol id="file-search" viewBox="0 0 32 32">
<path d="M27 11c0.002-0.133-0.024-0.265-0.075-0.388s-0.128-0.233-0.225-0.325l-6.988-7-0.075-0.063h-0.025l-0.062-0.038h-0.012l-0.063-0.050h-0.013l-0.075-0.038h-0.013l-0.087-0.038h-12.288c-0.52-0-1.019 0.202-1.393 0.564s-0.591 0.854-0.607 1.374v22c0 0.53 0.211 1.039 0.586 1.414s0.884 0.586 1.414 0.586h18c0.53 0 1.039-0.211 1.414-0.586s0.586-0.884 0.586-1.414v-16zM20 6.412l3.587 3.588h-3.587v-3.588zM25 27h-18v-22h11v6c0 0.265 0.105 0.52 0.293 0.707s0.442 0.293 0.707 0.293h6v15zM19.313 20.9c0.452-0.719 0.691-1.551 0.687-2.4-0.001-1.194-0.473-2.339-1.313-3.187-0.599-0.598-1.355-1.014-2.181-1.202s-1.687-0.138-2.486 0.142c-0.799 0.28-1.502 0.78-2.030 1.442s-0.857 1.46-0.952 2.301c-0.095 0.841 0.050 1.692 0.417 2.455s0.942 1.407 1.659 1.857 1.546 0.69 2.392 0.691c0.847 0.001 1.676-0.237 2.393-0.687l1.363 1.375c0.192 0.184 0.447 0.286 0.712 0.288 0.265-0.004 0.519-0.106 0.712-0.288 0.188-0.19 0.293-0.446 0.293-0.712s-0.105-0.523-0.293-0.712l-1.375-1.363zM13.738 20.263c-0.401-0.407-0.65-0.941-0.702-1.51s0.094-1.139 0.414-1.613c0.32-0.474 0.795-0.822 1.343-0.986s1.136-0.132 1.663 0.088 0.962 0.617 1.231 1.122c0.268 0.505 0.353 1.087 0.241 1.648s-0.416 1.065-0.858 1.427c-0.442 0.362-0.997 0.56-1.568 0.56-0.328 0.001-0.653-0.064-0.956-0.191s-0.577-0.312-0.807-0.547z"></path>
</symbol>
<symbol id="file-search-bold" viewBox="0 0 32 32">
<path d="M27.5 11.5v-0.5c-0.003-0.397-0.16-0.778-0.437-1.063l-7-7c-0.284-0.278-0.665-0.434-1.063-0.438h-12c-0.662 0.003-1.296 0.268-1.764 0.736s-0.733 1.102-0.736 1.764v22c0.003 0.662 0.268 1.296 0.736 1.764s1.102 0.733 1.764 0.736h18c0.662-0.003 1.296-0.268 1.764-0.736s0.733-1.102 0.736-1.764v-15.5zM22.875 10h-2.875v-2.875l2.875 2.875zM7.5 26.5v-21h9.5v6c0 0.398 0.158 0.779 0.439 1.061s0.663 0.439 1.061 0.439h6v13.5h-17zM19.563 20.437c0.29-0.605 0.439-1.267 0.437-1.937 0.002-0.892-0.261-1.764-0.755-2.506s-1.198-1.321-2.022-1.662c-0.824-0.342-1.73-0.431-2.605-0.256s-1.677 0.605-2.307 1.237c-0.841 0.848-1.313 1.993-1.313 3.187s0.472 2.34 1.313 3.187c0.661 0.655 1.507 1.091 2.424 1.247s1.86 0.027 2.701-0.372l1.475 1.475c0.283 0.279 0.665 0.436 1.063 0.436s0.779-0.157 1.062-0.436c0.14-0.139 0.251-0.305 0.327-0.487s0.115-0.378 0.115-0.575c0-0.197-0.039-0.393-0.115-0.575s-0.187-0.348-0.327-0.487l-1.475-1.475zM14.437 19.563c-0.279-0.283-0.436-0.665-0.436-1.063s0.157-0.779 0.436-1.063c0.139-0.14 0.305-0.251 0.487-0.327s0.378-0.115 0.575-0.115 0.393 0.039 0.575 0.115c0.182 0.076 0.348 0.187 0.487 0.327 0.279 0.283 0.436 0.665 0.436 1.063s-0.157 0.779-0.436 1.063c-0.139 0.14-0.305 0.251-0.487 0.327s-0.378 0.115-0.575 0.115-0.393-0.039-0.575-0.115c-0.182-0.076-0.348-0.187-0.487-0.327z"></path>
</symbol>
<symbol id="file-plus" viewBox="0 0 32 32">
<path d="M26.712 10.288l-7-7c-0.19-0.186-0.446-0.289-0.712-0.288h-12c-0.53 0-1.039 0.211-1.414 0.586s-0.586 0.884-0.586 1.414v22c0 0.53 0.211 1.039 0.586 1.414s0.884 0.586 1.414 0.586h18c0.53 0 1.039-0.211 1.414-0.586s0.586-0.884 0.586-1.414v-16c0.002-0.266-0.102-0.522-0.288-0.712zM20 6.412l3.587 3.588h-3.587v-3.588zM25 27h-18v-22h11v6c0 0.265 0.105 0.52 0.293 0.707s0.442 0.293 0.707 0.293h6v15zM20 19c0 0.265-0.105 0.52-0.293 0.707s-0.442 0.293-0.707 0.293h-2v2c0 0.265-0.105 0.52-0.293 0.707s-0.442 0.293-0.707 0.293c-0.265 0-0.52-0.105-0.707-0.293s-0.293-0.442-0.293-0.707v-2h-2c-0.265 0-0.52-0.105-0.707-0.293s-0.293-0.442-0.293-0.707c0-0.265 0.105-0.52 0.293-0.707s0.442-0.293 0.707-0.293h2v-2c0-0.265 0.105-0.52 0.293-0.707s0.442-0.293 0.707-0.293c0.265 0 0.52 0.105 0.707 0.293s0.293 0.442 0.293 0.707v2h2c0.265 0 0.52 0.105 0.707 0.293s0.293 0.442 0.293 0.707z"></path>
</symbol>
<symbol id="files" viewBox="0 0 32 32">
<path d="M26.712 8.288l-5-5c-0.19-0.186-0.446-0.289-0.712-0.288h-10c-0.53 0-1.039 0.211-1.414 0.586s-0.586 0.884-0.586 1.414v2h-2c-0.53 0-1.039 0.211-1.414 0.586s-0.586 0.884-0.586 1.414v18c0 0.53 0.211 1.039 0.586 1.414s0.884 0.586 1.414 0.586h14c0.53 0 1.039-0.211 1.414-0.586s0.586-0.884 0.586-1.414v-2h2c0.53 0 1.039-0.211 1.414-0.586s0.586-0.884 0.586-1.414v-14c0.002-0.266-0.102-0.522-0.288-0.712zM21 27h-14v-18h9.587l4.413 4.413v13.587zM25 23h-2v-10c0.002-0.266-0.102-0.522-0.288-0.712l-5-5c-0.19-0.186-0.446-0.289-0.712-0.288h-6v-2h9.587l4.413 4.413v13.587zM18 19c0 0.265-0.105 0.52-0.293 0.707s-0.442 0.293-0.707 0.293h-6c-0.265 0-0.52-0.105-0.707-0.293s-0.293-0.442-0.293-0.707c0-0.265 0.105-0.52 0.293-0.707s0.442-0.293 0.707-0.293h6c0.265 0 0.52 0.105 0.707 0.293s0.293 0.442 0.293 0.707zM18 23c0 0.265-0.105 0.52-0.293 0.707s-0.442 0.293-0.707 0.293h-6c-0.265 0-0.52-0.105-0.707-0.293s-0.293-0.442-0.293-0.707c0-0.265 0.105-0.52 0.293-0.707s0.442-0.293 0.707-0.293h6c0.265 0 0.52 0.105 0.707 0.293s0.293 0.442 0.293 0.707z"></path>
</symbol>
<symbol id="file-text" viewBox="0 0 32 32">
<path d="M26.712 10.288l-7-7c-0.19-0.186-0.446-0.289-0.712-0.288h-12c-0.53 0-1.039 0.211-1.414 0.586s-0.586 0.884-0.586 1.414v22c0 0.53 0.211 1.039 0.586 1.414s0.884 0.586 1.414 0.586h18c0.53 0 1.039-0.211 1.414-0.586s0.586-0.884 0.586-1.414v-16c0.002-0.266-0.102-0.522-0.288-0.712zM20 6.412l3.587 3.588h-3.587v-3.588zM25 27h-18v-22h11v6c0 0.265 0.105 0.52 0.293 0.707s0.442 0.293 0.707 0.293h6v15zM21 17c0 0.265-0.105 0.52-0.293 0.707s-0.442 0.293-0.707 0.293h-8c-0.265 0-0.52-0.105-0.707-0.293s-0.293-0.442-0.293-0.707c0-0.265 0.105-0.52 0.293-0.707s0.442-0.293 0.707-0.293h8c0.265 0 0.52 0.105 0.707 0.293s0.293 0.442 0.293 0.707zM21 21c0 0.265-0.105 0.52-0.293 0.707s-0.442 0.293-0.707 0.293h-8c-0.265 0-0.52-0.105-0.707-0.293s-0.293-0.442-0.293-0.707c0-0.265 0.105-0.52 0.293-0.707s0.442-0.293 0.707-0.293h8c0.265 0 0.52 0.105 0.707 0.293s0.293 0.442 0.293 0.707z"></path>
</symbol>
<symbol id="find-document" viewBox="0 0 32 32">
<path d="M7.224 1.996c-1.385 0-2.507 1.122-2.507 2.507v22.925c0 1.385 1.122 2.507 2.507 2.507h17.552c1.385 0 2.507-1.122 2.507-2.507v-22.925c0-1.385-1.122-2.507-2.507-2.507h-17.552zM4 4.504c0-1.781 1.443-3.224 3.224-3.224h17.552c1.781 0 3.224 1.443 3.224 3.224v22.925c0 1.781-1.443 3.224-3.224 3.224h-17.552c-1.781 0-3.224-1.443-3.224-3.224v-22.925z"></path>
<path d="M11.343 4.504c-2.176 0-3.94 1.764-3.94 3.94s1.764 3.94 3.94 3.94c2.176 0 3.94-1.764 3.94-3.94s-1.764-3.94-3.94-3.94zM6.328 8.444c0-2.77 2.245-5.015 5.015-5.015s5.015 2.245 5.015 5.015c0 2.77-2.245 5.015-5.015 5.015s-5.015-2.245-5.015-5.015z"></path>
<path d="M7.94 16.146c0-0.198 0.16-0.358 0.358-0.358h15.403c0.198 0 0.358 0.16 0.358 0.358s-0.16 0.358-0.358 0.358h-15.403c-0.198 0-0.358-0.16-0.358-0.358z"></path>
<path d="M16.537 11.847c0-0.198 0.16-0.358 0.358-0.358h6.806c0.198 0 0.358 0.16 0.358 0.358s-0.16 0.358-0.358 0.358h-6.806c-0.198 0-0.358-0.16-0.358-0.358z"></path>
<path d="M17.97 8.086c0-0.198 0.16-0.358 0.358-0.358h5.373c0.198 0 0.358 0.16 0.358 0.358s-0.16 0.358-0.358 0.358h-5.373c-0.198 0-0.358-0.16-0.358-0.358z"></path>
<path d="M7.94 24.026c0-0.198 0.16-0.358 0.358-0.358h15.403c0.198 0 0.358 0.16 0.358 0.358s-0.16 0.358-0.358 0.358h-15.403c-0.198 0-0.358-0.16-0.358-0.358z"></path>
<path d="M7.94 20.086c0-0.198 0.16-0.358 0.358-0.358h15.403c0.198 0 0.358 0.16 0.358 0.358s-0.16 0.358-0.358 0.358h-15.403c-0.198 0-0.358-0.16-0.358-0.358z"></path>
<path d="M8.35 9.423c-0.030 0.107 0.034 0.193 0.146 0.193h0.413c0.112 0 0.219-0.086 0.249-0.198l0.142-0.529h1.492v0.529c0 0.112 0.086 0.198 0.198 0.198h0.395c0.107 0 0.198-0.086 0.198-0.193v-2.622c0-0.103-0.077-0.193-0.181-0.193h-1.13c-0.61 0-1.216 0.15-1.393 0.817l-0.529 1.999zM9.64 7.622c0.069-0.258 0.284-0.421 0.555-0.421h0.598v1.096h-1.337l0.185-0.675z"></path>
<path d="M13.078 9.182c-0.224 0-0.34-0.112-0.34-0.262 0-0.142 0.116-0.254 0.318-0.254h0.645v0.327c-0.15 0.095-0.365 0.189-0.623 0.189zM13.272 7.751c0.288 0 0.43 0.103 0.43 0.438h-0.696c-0.563 0-0.993 0.245-0.993 0.731s0.43 0.739 0.993 0.739c0.331 0 0.567-0.099 0.761-0.236v0.064c0 0.073 0.056 0.129 0.129 0.129h0.404c0.073 0 0.129-0.056 0.129-0.129v-1.298c0-0.658-0.486-0.916-1.105-0.916-0.696 0-1.143 0.155-1.143 0.602 0 0.073 0.056 0.129 0.129 0.129h0.314c0.107 0 0.185-0.043 0.241-0.112 0.073-0.090 0.232-0.142 0.408-0.142z"></path>
<path d="M14.071 14.232c0.248 0.024 0.477 0.177 0.586 0.421l1.875 4.202c0.161 0.361-0.001 0.785-0.362 0.946s-0.785-0.001-0.946-0.362l-1.875-4.202c-0.107-0.24-0.071-0.508 0.071-0.708l-0.78-1.739 0.654-0.293 0.778 1.735z"></path>
</symbol>
<symbol id="find-test-tube" viewBox="0 0 32 32">
<path d="M18.551 7.494c-3.161 0-5.725 2.566-5.725 5.734s2.564 5.733 5.725 5.733c3.161 0 5.725-2.566 5.725-5.733s-2.564-5.734-5.725-5.734zM11.51 13.228c0-3.893 3.151-7.050 7.041-7.050s7.041 3.157 7.041 7.050-3.151 7.050-7.041 7.050c-3.889 0-7.041-3.157-7.041-7.050z"></path>
<path d="M21.667 22.024l-1.099-2.424 0.799-0.362 1.099 2.424-0.799 0.362z"></path>
<path d="M21.687 21.076c0.443-0.197 0.961 0.003 1.158 0.446l2.641 5.951c0.196 0.443-0.003 0.961-0.446 1.158s-0.961-0.003-1.158-0.446l-2.641-5.951c-0.197-0.443 0.003-0.961 0.446-1.158z"></path>
<path d="M26.613 10.41c-0.324 0.328-0.792 0.802-1.368 1.385l-0.624-0.617c0.576-0.582 1.043-1.056 1.367-1.384 0.162-0.164 0.288-0.292 0.373-0.378l0.13-0.132 0.625 0.616-0.13 0.132c-0.086 0.087-0.212 0.214-0.373 0.379z"></path>
<path d="M12.097 14.655l0.621 0.62-9.258 9.267c-0.199 0.199-0.262 0.551-0.043 1.118 0.212 0.551 0.651 1.174 1.199 1.723s1.172 0.988 1.722 1.201c0.566 0.218 0.918 0.156 1.117-0.043l0.62 0.62c-0.569 0.569-1.37 0.505-2.053 0.241-0.699-0.27-1.422-0.793-2.027-1.399s-1.128-1.329-1.397-2.028c-0.263-0.684-0.327-1.484 0.242-2.053l9.258-9.267zM9.228 28.005c-0.145 0.146-0.433 0.435-0.685 0.687-0.126 0.126-0.244 0.244-0.329 0.33l-0.14 0.14-0.621-0.62 0.14-0.14c0.086-0.086 0.203-0.203 0.329-0.329 0.253-0.253 0.541-0.541 0.684-0.686l0.001-0.001c0.29-0.29 4.009-4.053 7.982-8.076l0.624 0.616c-3.969 4.019-7.688 7.783-7.985 8.080z"></path>
<path d="M19.975 6.767l2.114-2.117 0.621 0.62-2.114 2.117-0.621-0.62z"></path>
<path d="M22.342 3.429l-0.076 0.076c-0.203 0.204-0.201 0.533-0 0.733l5.5 5.504c0.201 0.203 0.528 0.203 0.729 0l0.001-0.001 0.076-0.076c0.203-0.204 0.202-0.533 0.001-0.733l-5.499-5.503c-0.202-0.201-0.529-0.202-0.731 0zM21.721 2.808c0.544-0.544 1.427-0.544 1.972 0l5.499 5.503c0.545 0.545 0.543 1.427 0.001 1.973l-0.001 0.001-0.076 0.076c-0.544 0.547-1.428 0.547-1.972-0l-0-0.001-5.498-5.502c-0.545-0.545-0.543-1.427-0.001-1.973l0.001-0.001 0.077-0.077z"></path>
<path d="M19.927 8.796c-0.173-0.173-0.451-0.173-0.624 0l-5.304 5.311c-0.172 0.17-0.173 0.45 0.001 0.624l3.281 3.286c0.173 0.173 0.451 0.173 0.624 0l5.304-5.311c0.172-0.17 0.173-0.45-0.001-0.624l-3.281-3.286zM18.992 8.486c0.344-0.344 0.9-0.344 1.244 0l3.281 3.286c0.344 0.344 0.345 0.902-0 1.245l-0 0-5.303 5.309c-0.344 0.344-0.9 0.345-1.245 0l-3.281-3.286c-0.344-0.344-0.345-0.902 0-1.245l0-0 5.303-5.31z"></path>
<path d="M20.36 10.070c0.086 0.086 0.086 0.225 0 0.31l-4.843 4.847c-0.086 0.086-0.225 0.086-0.31 0s-0.086-0.225-0-0.31l4.843-4.847c0.086-0.086 0.224-0.086 0.31-0z"></path>
<path d="M18.662 14.634c0.086 0.086 0.086 0.225 0 0.31l-1.761 1.761c-0.086 0.086-0.225 0.086-0.31 0s-0.086-0.224 0-0.31l1.761-1.761c0.086-0.086 0.224-0.086 0.31 0z"></path>
<path d="M20.096 13.198c0.086 0.086 0.086 0.225 0 0.31l-0.66 0.66c-0.086 0.086-0.225 0.086-0.31 0s-0.086-0.225 0-0.31l0.66-0.66c0.086-0.086 0.225-0.086 0.31 0z"></path>
<path d="M21.794 11.498c0.086 0.086 0.086 0.224 0 0.31l-0.88 0.882c-0.086 0.086-0.224 0.086-0.31 0s-0.086-0.224-0-0.31l0.88-0.882c0.085-0.086 0.224-0.086 0.31-0z"></path>
</symbol>
<symbol id="gear" viewBox="0 0 32 32">
<path d="M16 9c-1.384 0-2.738 0.411-3.889 1.18s-2.048 1.862-2.578 3.142c-0.53 1.279-0.668 2.687-0.398 4.044s0.937 2.605 1.916 3.584c0.979 0.979 2.226 1.646 3.584 1.916s2.765 0.131 4.044-0.398 2.372-1.427 3.142-2.578c0.769-1.151 1.18-2.505 1.18-3.889 0-1.856-0.737-3.637-2.050-4.95s-3.093-2.050-4.95-2.050zM16 21c-0.989 0-1.956-0.293-2.778-0.843s-1.463-1.33-1.842-2.244c-0.378-0.914-0.477-1.919-0.285-2.889s0.669-1.861 1.368-2.56 1.59-1.175 2.56-1.368c0.97-0.193 1.975-0.094 2.889 0.285s1.695 1.019 2.244 1.842c0.549 0.822 0.843 1.789 0.843 2.778 0 1.326-0.527 2.598-1.464 3.536s-2.209 1.464-3.536 1.464zM29.35 18.8l-1.862-2.475c0.012-0.225 0-0.462 0-0.637l1.862-2.488c0.093-0.121 0.156-0.262 0.184-0.412s0.021-0.304-0.021-0.451c-0.315-1.152-0.773-2.261-1.363-3.3-0.076-0.132-0.181-0.245-0.306-0.332s-0.269-0.144-0.419-0.168l-3.062-0.438-0.463-0.462-0.437-3.063c-0.024-0.15-0.082-0.294-0.168-0.419s-0.2-0.23-0.332-0.306c-1.039-0.59-2.148-1.047-3.3-1.363-0.146-0.042-0.301-0.050-0.451-0.021s-0.291 0.091-0.412 0.184l-2.475 1.85h-0.65l-2.475-1.85c-0.121-0.093-0.262-0.156-0.412-0.184s-0.304-0.021-0.451 0.021c-1.152 0.315-2.261 0.773-3.3 1.362-0.132 0.076-0.245 0.181-0.332 0.306s-0.144 0.269-0.168 0.419l-0.438 3.063-0.462 0.462-3.063 0.438c-0.15 0.024-0.294 0.082-0.419 0.168s-0.23 0.2-0.306 0.332c-0.59 1.039-1.047 2.148-1.363 3.3-0.042 0.146-0.050 0.301-0.021 0.451s0.091 0.291 0.184 0.412l1.863 2.475v0.638l-1.862 2.487c-0.093 0.121-0.156 0.262-0.184 0.412s-0.021 0.304 0.021 0.451c0.315 1.152 0.773 2.261 1.363 3.3 0.076 0.132 0.181 0.245 0.306 0.332s0.269 0.144 0.419 0.168l3.063 0.437 0.462 0.463 0.438 3.062c0.024 0.15 0.082 0.294 0.168 0.419s0.2 0.23 0.332 0.306c1.039 0.59 2.148 1.048 3.3 1.363 0.085 0.025 0.174 0.037 0.262 0.037 0.217 0.003 0.428-0.068 0.6-0.2l2.475-1.85h0.65l2.475 1.85c0.121 0.093 0.262 0.156 0.412 0.184s0.304 0.021 0.451-0.021c1.152-0.315 2.261-0.773 3.3-1.363 0.132-0.076 0.245-0.181 0.332-0.306s0.144-0.269 0.168-0.419l0.437-3.075c0.15-0.15 0.325-0.312 0.45-0.45l3.075-0.437c0.15-0.024 0.294-0.082 0.419-0.168s0.23-0.2 0.306-0.332c0.59-1.039 1.048-2.148 1.363-3.3 0.042-0.146 0.049-0.301 0.021-0.451s-0.091-0.291-0.184-0.412zM26.638 21.55l-2.913 0.413c-0.225 0.037-0.431 0.147-0.587 0.312-0.15 0.163-0.613 0.638-0.838 0.838-0.183 0.157-0.302 0.374-0.337 0.612l-0.413 2.913c-0.623 0.332-1.276 0.604-1.95 0.812l-2.362-1.775c-0.19-0.142-0.426-0.209-0.663-0.187h-1.15c-0.236-0.021-0.472 0.045-0.662 0.187l-2.363 1.775c-0.674-0.208-1.327-0.48-1.95-0.812l-0.412-2.913c-0.035-0.238-0.155-0.456-0.338-0.612-0.289-0.252-0.561-0.523-0.812-0.813-0.157-0.183-0.374-0.302-0.613-0.337l-2.912-0.413c-0.327-0.625-0.599-1.278-0.813-1.95l1.775-2.362c0.129-0.183 0.198-0.401 0.2-0.625-0.013-0.225-0.025-0.875-0.013-1.188 0.021-0.236-0.045-0.472-0.188-0.662l-1.775-2.363c0.214-0.672 0.485-1.325 0.813-1.95l2.912-0.412c0.238-0.035 0.456-0.155 0.613-0.338 0.252-0.289 0.523-0.561 0.812-0.812 0.183-0.157 0.302-0.374 0.338-0.613l0.412-2.912c0.625-0.327 1.278-0.599 1.95-0.813l2.363 1.775c0.19 0.142 0.426 0.209 0.662 0.188 0.375-0.013 0.775-0.013 1.15 0 0.236 0.021 0.472-0.045 0.663-0.188l2.362-1.775c0.674 0.208 1.327 0.48 1.95 0.813l0.413 2.912c0.035 0.238 0.155 0.456 0.337 0.613 0.289 0.252 0.561 0.523 0.813 0.812 0.157 0.183 0.374 0.302 0.612 0.338l2.913 0.412c0.332 0.623 0.604 1.276 0.812 1.95l-1.775 2.363c-0.129 0.183-0.198 0.401-0.2 0.625 0.013 0.225 0.025 0.875 0.013 1.187-0.021 0.236 0.045 0.472 0.187 0.663l1.775 2.362c-0.208 0.674-0.48 1.327-0.812 1.95z"></path>
</symbol>
<symbol id="gear-bold" viewBox="0 0 32 32">
<path d="M16 9c-1.385 0-2.738 0.411-3.889 1.18s-2.048 1.862-2.578 3.142c-0.53 1.279-0.668 2.687-0.398 4.044s0.937 2.605 1.916 3.584c0.979 0.979 2.226 1.646 3.584 1.916s2.765 0.131 4.044-0.398c1.279-0.53 2.372-1.427 3.142-2.578s1.18-2.505 1.18-3.889c0-1.857-0.738-3.637-2.050-4.95s-3.093-2.050-4.95-2.050zM16 20c-0.791 0-1.565-0.235-2.222-0.674s-1.17-1.064-1.473-1.795-0.382-1.535-0.228-2.311c0.154-0.776 0.535-1.489 1.095-2.048s1.272-0.94 2.048-1.095c0.776-0.154 1.58-0.075 2.311 0.228s1.356 0.815 1.795 1.473c0.439 0.658 0.674 1.431 0.674 2.222-0.003 1.060-0.426 2.075-1.175 2.825s-1.765 1.172-2.825 1.175zM29.75 18.5l-1.763-2.35v-0.3l1.763-2.35c0.134-0.183 0.226-0.393 0.269-0.616s0.037-0.452-0.019-0.672c-0.323-1.199-0.802-2.351-1.425-3.425-0.112-0.199-0.268-0.369-0.457-0.497s-0.405-0.21-0.63-0.241l-2.887-0.412-0.238-0.237-0.412-2.888c-0.031-0.226-0.113-0.442-0.241-0.63s-0.298-0.345-0.497-0.457c-1.074-0.623-2.226-1.102-3.425-1.425-0.219-0.059-0.45-0.068-0.673-0.025s-0.433 0.137-0.615 0.275l-2.338 1.75h-0.325l-2.337-1.75c-0.183-0.134-0.393-0.226-0.616-0.269s-0.452-0.037-0.672 0.019c-1.199 0.323-2.351 0.802-3.425 1.425-0.199 0.112-0.369 0.268-0.497 0.457s-0.21 0.404-0.241 0.63l-0.412 2.888c-0.085 0.073-0.165 0.152-0.237 0.237l-2.888 0.413c-0.226 0.031-0.442 0.113-0.63 0.241s-0.345 0.298-0.457 0.497c-0.623 1.074-1.102 2.226-1.425 3.425-0.059 0.219-0.068 0.45-0.025 0.673s0.137 0.434 0.275 0.615l1.763 2.35v0.3l-1.763 2.35c-0.134 0.183-0.226 0.393-0.269 0.616s-0.037 0.452 0.019 0.672c0.323 1.199 0.802 2.351 1.425 3.425 0.112 0.199 0.268 0.369 0.457 0.497s0.404 0.211 0.63 0.241l2.888 0.412 0.237 0.238 0.413 2.887c0.031 0.226 0.113 0.442 0.241 0.63s0.298 0.345 0.497 0.457c1.074 0.623 2.226 1.102 3.425 1.425 0.126 0.036 0.257 0.053 0.387 0.050 0.325 0.002 0.641-0.104 0.9-0.3l2.337-1.75h0.325l2.338 1.75c0.183 0.134 0.393 0.226 0.616 0.269s0.452 0.037 0.672-0.019c1.199-0.323 2.351-0.802 3.425-1.425 0.199-0.112 0.369-0.268 0.497-0.457s0.211-0.405 0.241-0.63l0.425-2.9 0.213-0.213 2.9-0.425c0.226-0.031 0.442-0.113 0.63-0.241s0.345-0.298 0.457-0.497c0.623-1.074 1.102-2.226 1.425-3.425 0.059-0.219 0.068-0.45 0.025-0.673s-0.137-0.433-0.275-0.615zM26.313 21.088l-2.662 0.387c-0.333 0.049-0.641 0.207-0.875 0.45-0.213 0.225-0.613 0.637-0.813 0.813-0.264 0.238-0.436 0.561-0.487 0.913l-0.387 2.662c-0.452 0.229-0.92 0.425-1.4 0.588l-2.15-1.625c-0.283-0.212-0.634-0.314-0.987-0.287h-1.1c-0.353-0.025-0.703 0.077-0.988 0.287l-2.15 1.625c-0.48-0.162-0.948-0.359-1.4-0.588l-0.387-2.662c-0.051-0.352-0.224-0.675-0.488-0.913-0.277-0.239-0.536-0.498-0.775-0.775-0.238-0.264-0.561-0.436-0.912-0.487l-2.662-0.387c-0.229-0.452-0.425-0.92-0.588-1.4l1.625-2.15c0.199-0.272 0.305-0.601 0.3-0.937-0.013-0.313-0.025-0.888-0.013-1.15 0.025-0.353-0.077-0.703-0.287-0.988l-1.625-2.15c0.162-0.48 0.359-0.948 0.588-1.4l2.662-0.387c0.352-0.051 0.674-0.224 0.912-0.488 0.239-0.277 0.498-0.536 0.775-0.775 0.264-0.238 0.436-0.561 0.488-0.912l0.387-2.662c0.452-0.229 0.92-0.425 1.4-0.588l2.15 1.625c0.284 0.212 0.634 0.314 0.988 0.287 0.362-0.013 0.737-0.013 1.1 0 0.353 0.027 0.704-0.075 0.987-0.287l2.15-1.625c0.48 0.162 0.948 0.359 1.4 0.588l0.387 2.662c0.051 0.352 0.224 0.674 0.487 0.912 0.277 0.239 0.536 0.498 0.775 0.775 0.238 0.264 0.561 0.436 0.913 0.488l2.662 0.387c0.229 0.452 0.425 0.92 0.588 1.4l-1.625 2.15c-0.201 0.27-0.302 0.601-0.287 0.938 0 0.312 0.013 0.887 0 1.15-0.027 0.353 0.075 0.704 0.287 0.987l1.625 2.15c-0.162 0.48-0.359 0.948-0.588 1.4z"></path>
</symbol>
<symbol id="list-plus" viewBox="0 0 32 32">
<path d="M4 8c0-0.265 0.105-0.52 0.293-0.707s0.442-0.293 0.707-0.293h22c0.265 0 0.52 0.105 0.707 0.293s0.293 0.442 0.293 0.707c0 0.265-0.105 0.52-0.293 0.707s-0.442 0.293-0.707 0.293h-22c-0.265 0-0.52-0.105-0.707-0.293s-0.293-0.442-0.293-0.707zM5 17h22c0.265 0 0.52-0.105 0.707-0.293s0.293-0.442 0.293-0.707c0-0.265-0.105-0.52-0.293-0.707s-0.442-0.293-0.707-0.293h-22c-0.265 0-0.52 0.105-0.707 0.293s-0.293 0.442-0.293 0.707c0 0.265 0.105 0.52 0.293 0.707s0.442 0.293 0.707 0.293zM18 23h-13c-0.265 0-0.52 0.105-0.707 0.293s-0.293 0.442-0.293 0.707c0 0.265 0.105 0.52 0.293 0.707s0.442 0.293 0.707 0.293h13c0.265 0 0.52-0.105 0.707-0.293s0.293-0.442 0.293-0.707c0-0.265-0.105-0.52-0.293-0.707s-0.442-0.293-0.707-0.293zM29 23h-2v-2c0-0.265-0.105-0.52-0.293-0.707s-0.442-0.293-0.707-0.293c-0.265 0-0.52 0.105-0.707 0.293s-0.293 0.442-0.293 0.707v2h-2c-0.265 0-0.52 0.105-0.707 0.293s-0.293 0.442-0.293 0.707c0 0.265 0.105 0.52 0.293 0.707s0.442 0.293 0.707 0.293h2v2c0 0.265 0.105 0.52 0.293 0.707s0.442 0.293 0.707 0.293c0.265 0 0.52-0.105 0.707-0.293s0.293-0.442 0.293-0.707v-2h2c0.265 0 0.52-0.105 0.707-0.293s0.293-0.442 0.293-0.707c0-0.265-0.105-0.52-0.293-0.707s-0.442-0.293-0.707-0.293z"></path>
</symbol>
<symbol id="list-plus-bold" viewBox="0 0 32 32">
<path d="M3.5 8c0-0.398 0.158-0.779 0.439-1.061s0.663-0.439 1.061-0.439h22c0.398 0 0.779 0.158 1.061 0.439s0.439 0.663 0.439 1.061c0 0.398-0.158 0.779-0.439 1.061s-0.663 0.439-1.061 0.439h-22c-0.398 0-0.779-0.158-1.061-0.439s-0.439-0.663-0.439-1.061zM5 17.5h22c0.398 0 0.779-0.158 1.061-0.439s0.439-0.663 0.439-1.061c0-0.398-0.158-0.779-0.439-1.061s-0.663-0.439-1.061-0.439h-22c-0.398 0-0.779 0.158-1.061 0.439s-0.439 0.663-0.439 1.061c0 0.398 0.158 0.779 0.439 1.061s0.663 0.439 1.061 0.439zM18 22.5h-13c-0.398 0-0.779 0.158-1.061 0.439s-0.439 0.663-0.439 1.061c0 0.398 0.158 0.779 0.439 1.061s0.663 0.439 1.061 0.439h13c0.398 0 0.779-0.158 1.061-0.439s0.439-0.663 0.439-1.061c0-0.398-0.158-0.779-0.439-1.061s-0.663-0.439-1.061-0.439zM29 22.5h-1.5v-1.5c0-0.398-0.158-0.779-0.439-1.061s-0.663-0.439-1.061-0.439c-0.398 0-0.779 0.158-1.061 0.439s-0.439 0.663-0.439 1.061v1.5h-1.5c-0.398 0-0.779 0.158-1.061 0.439s-0.439 0.663-0.439 1.061c0 0.398 0.158 0.779 0.439 1.061s0.663 0.439 1.061 0.439h1.5v1.5c0 0.398 0.158 0.779 0.439 1.061s0.663 0.439 1.061 0.439c0.398 0 0.779-0.158 1.061-0.439s0.439-0.663 0.439-1.061v-1.5h1.5c0.398 0 0.779-0.158 1.061-0.439s0.439-0.663 0.439-1.061c0-0.398-0.158-0.779-0.439-1.061s-0.663-0.439-1.061-0.439z"></path>
</symbol>
<symbol id="minus" viewBox="0 0 32 32">
<path d="M27 17h-22c-0.265 0-0.52-0.105-0.707-0.293s-0.293-0.442-0.293-0.707c0-0.265 0.105-0.52 0.293-0.707s0.442-0.293 0.707-0.293h22c0.265 0 0.52 0.105 0.707 0.293s0.293 0.442 0.293 0.707c0 0.265-0.105 0.52-0.293 0.707s-0.442 0.293-0.707 0.293z"></path>
</symbol>
<symbol id="minus-bold" viewBox="0 0 32 32">
<path d="M27 17.5h-22c-0.398 0-0.779-0.158-1.061-0.439s-0.439-0.663-0.439-1.061c0-0.398 0.158-0.779 0.439-1.061s0.663-0.439 1.061-0.439h22c0.398 0 0.779 0.158 1.061 0.439s0.439 0.663 0.439 1.061c0 0.398-0.158 0.779-0.439 1.061s-0.663 0.439-1.061 0.439z"></path>
</symbol>
<symbol id="plus" viewBox="0 0 32 32">
<path d="M28 16c0 0.265-0.105 0.52-0.293 0.707s-0.442 0.293-0.707 0.293h-10v10c0 0.265-0.105 0.52-0.293 0.707s-0.442 0.293-0.707 0.293c-0.265 0-0.52-0.105-0.707-0.293s-0.293-0.442-0.293-0.707v-10h-10c-0.265 0-0.52-0.105-0.707-0.293s-0.293-0.442-0.293-0.707c0-0.265 0.105-0.52 0.293-0.707s0.442-0.293 0.707-0.293h10v-10c0-0.265 0.105-0.52 0.293-0.707s0.442-0.293 0.707-0.293c0.265 0 0.52 0.105 0.707 0.293s0.293 0.442 0.293 0.707v10h10c0.265 0 0.52 0.105 0.707 0.293s0.293 0.442 0.293 0.707z"></path>
</symbol>
<symbol id="plus-bold" viewBox="0 0 32 32">
<path d="M28.5 16c0 0.398-0.158 0.779-0.439 1.061s-0.663 0.439-1.061 0.439h-9.5v9.5c0 0.398-0.158 0.779-0.439 1.061s-0.663 0.439-1.061 0.439c-0.398 0-0.779-0.158-1.061-0.439s-0.439-0.663-0.439-1.061v-9.5h-9.5c-0.398 0-0.779-0.158-1.061-0.439s-0.439-0.663-0.439-1.061c0-0.398 0.158-0.779 0.439-1.061s0.663-0.439 1.061-0.439h9.5v-9.5c0-0.398 0.158-0.779 0.439-1.061s0.663-0.439 1.061-0.439c0.398 0 0.779 0.158 1.061 0.439s0.439 0.663 0.439 1.061v9.5h9.5c0.398 0 0.779 0.158 1.061 0.439s0.439 0.663 0.439 1.061z"></path>
</symbol>
<symbol id="test-tube" viewBox="0 0 32 32">
<path d="M29.533 10.2l-7.467-7.533c-0.2-0.2-0.467-0.267-0.733-0.267s-0.533 0.133-0.733 0.267l-16.267 16.267c-1 1.067-1.6 2.467-1.6 4 0 1.467 0.6 2.933 1.667 3.933s2.467 1.667 3.933 1.667c1.467 0 2.933-0.6 3.933-1.667l14.067-14.067 2.8-0.933c0.133-0.067 0.333-0.133 0.4-0.267 0.133-0.133 0.2-0.267 0.267-0.467 0.067-0.133 0-0.333 0-0.533-0.067-0.133-0.133-0.267-0.267-0.4zM10.867 25.467c-0.333 0.333-0.733 0.6-1.133 0.8-0.467 0.2-0.933 0.267-1.4 0.267s-0.933-0.067-1.4-0.267c-0.467-0.2-0.8-0.467-1.133-0.8s-0.6-0.733-0.8-1.133c-0.2-0.467-0.267-0.933-0.267-1.4s0.067-0.933 0.267-1.4c0.2-0.467 0.467-0.8 0.8-1.133l3.2-3.2c0.267-0.2 2.267-1.467 5.4 0.133 1.4 0.667 2.6 0.933 3.667 1l-7.2 7.133zM25.533 10.933c-0.133 0.067-0.267 0.133-0.4 0.267l-4.467 4.467c-0.267 0.2-2.2 1.467-5.4-0.133-1.4-0.667-2.6-0.933-3.667-1l9.733-9.733 5.667 5.667-1.467 0.467z"></path>
<path d="M21.733 23.667c0.667-0.267 1.2-0.733 1.533-1.267 0.4-0.6 0.6-1.267 0.6-1.933 0-0.867-0.333-1.667-0.867-2.333l-0.733 0.733c0.067 0.067 0.133 0.133 0.2 0.2 0.267 0.4 0.4 0.867 0.4 1.4 0 0.667-0.267 1.267-0.733 1.733s-1.067 0.733-1.733 0.733c-0.467 0-1-0.133-1.4-0.4-0.067-0.067-0.133-0.133-0.2-0.2l-0.733 0.733c0.467 0.4 1 0.733 1.667 0.8 0.667 0.133 1.4 0.067 2-0.2z"></path>
<path d="M23.028 17.634l0.233 0.291c0.572 0.715 0.94 1.586 0.94 2.542 0 0.733-0.22 1.462-0.653 2.114-0.37 0.589-0.955 1.1-1.684 1.393-0.663 0.293-1.457 0.364-2.179 0.223-0.756-0.080-1.347-0.46-1.834-0.877l-0.273-0.234 1.224-1.224 0.411 0.411c0.334 0.213 0.787 0.327 1.189 0.327 0.572 0 1.089-0.227 1.498-0.636s0.636-0.925 0.636-1.498c0-0.463-0.112-0.855-0.327-1.189l-0.411-0.411 1.232-1.232zM22.736 18.869l0.008 0.013c0.307 0.461 0.456 0.993 0.456 1.585 0 0.761-0.306 1.444-0.831 1.969s-1.208 0.831-1.969 0.831c-0.52 0-1.121-0.147-1.585-0.456l-0.013-0.008-0.236 0.236c0.362 0.264 0.75 0.452 1.2 0.497l0.016 0.002 0.016 0.003c0.605 0.121 1.268 0.058 1.799-0.178l0.006-0.003 0.006-0.002c0.6-0.24 1.078-0.66 1.374-1.134l0.003-0.004 0.003-0.004c0.365-0.547 0.544-1.15 0.544-1.748 0-0.655-0.211-1.274-0.573-1.822l-0.225 0.225z"></path>
<path d="M27.133 18.8c0-0.067 0-0.133 0-0.2-0.133-0.6-0.4-1.133-0.667-1.667-0.067-0.067-0.067-0.133-0.133-0.133-0.067-0.067-0.133-0.067-0.2-0.067l-1.467-0.2-0.733 0.733 0.067 0.067c0.067 0.067 0.2 0.133 0.333 0.2l1.467 0.2c0.133 0.333 0.333 0.667 0.4 1l-0.867 1.2c-0.067 0.067-0.067 0.2-0.067 0.333s0 0.467 0 0.6c0 0.133 0 0.267 0.067 0.333l0.867 1.2c-0.133 0.333-0.267 0.667-0.4 1l-1.467 0.2c-0.133 0-0.2 0.067-0.267 0.133s-0.333 0.333-0.4 0.4c-0.067 0.067-0.133 0.2-0.2 0.333l-0.2 1.467c-0.333 0.133-0.667 0.333-1 0.4l-1.2-0.867c-0.067-0.067-0.2-0.133-0.333-0.133h-0.6c-0.133 0.067-0.267 0.067-0.333 0.133l-1.2 0.867c-0.333-0.133-0.667-0.267-1-0.4l-0.2-1.467c0-0.133-0.067-0.2-0.2-0.333l-0.067-0.067-0.733 0.733 0.2 1.467c0 0.067 0.067 0.133 0.067 0.2 0.067 0.067 0.067 0.133 0.133 0.133 0.533 0.267 1.067 0.533 1.667 0.667 0.067 0 0.067 0 0.133 0 0.133 0 0.2-0.067 0.267-0.067l1.2-0.667h0.333l1.2 0.667c0.067 0.067 0.133 0.067 0.2 0.067s0.133 0 0.2 0c0.6-0.133 1.133-0.4 1.667-0.667 0.067-0.067 0.133-0.067 0.133-0.133 0.067-0.067 0.067-0.133 0.067-0.2l0.2-1.533c0.067-0.067 0.133-0.133 0.2-0.2l1.533-0.2c0.067 0 0.133-0.067 0.2-0.067 0.067-0.067 0.133-0.067 0.133-0.133 0.267-0.533 0.533-1.067 0.667-1.667 0-0.067 0-0.133 0-0.2s-0.067-0.133-0.067-0.2l-0.933-1.2c0-0.133 0-0.2 0-0.333l0.933-1.267c0.4-0.267 0.4-0.333 0.4-0.467z"></path>
<path d="M24.548 16.181l1.608 0.219c0.070 0 0.201 0.007 0.332 0.097 0.026 0.011 0.051 0.024 0.076 0.042 0.062 0.044 0.098 0.096 0.113 0.118 0.007 0.011 0.014 0.022 0.018 0.028l0.001 0.002c0.004 0.007 0.006 0.010 0.008 0.013l0 0.001 0.036 0.036 0.032 0.064c0.262 0.523 0.544 1.088 0.686 1.728l0.008 0.036v0.237c0 0.002 0 0.004 0 0.006 0 0.030 0 0.091-0.014 0.156-0.017 0.080-0.051 0.153-0.103 0.222-0.081 0.108-0.21 0.21-0.383 0.328l-0.834 1.132v0.109l0.933 1.2v0.069c0.008 0.015 0.023 0.045 0.035 0.078 0.014 0.037 0.032 0.096 0.032 0.167v0.237l-0.008 0.036c-0.14 0.629-0.415 1.185-0.672 1.7-0.011 0.043-0.030 0.085-0.058 0.125-0.044 0.062-0.096 0.098-0.118 0.113-0.011 0.007-0.022 0.014-0.028 0.018l-0.002 0.001c-0.007 0.004-0.010 0.006-0.013 0.008l-0.001 0-0.095 0.095h-0.093c-0.015 0.008-0.045 0.023-0.078 0.035s-0.080 0.027-0.138 0.031l-1.407 0.184-0.040 0.040-0.183 1.399c-0 0.070-0.006 0.202-0.097 0.333-0.011 0.026-0.024 0.051-0.042 0.076-0.044 0.062-0.096 0.098-0.118 0.113-0.011 0.007-0.022 0.014-0.028 0.018l-0.002 0.001c-0.007 0.004-0.010 0.006-0.013 0.008l-0.001 0-0.036 0.036-0.064 0.032c-0.523 0.262-1.088 0.544-1.728 0.686l-0.036 0.008h-0.237c-0.002 0-0.005 0-0.007 0-0.070 0-0.234 0.001-0.387-0.127l-1.092-0.607h-0.161l-1.2 0.667h-0.048c-0.007 0.003-0.015 0.006-0.023 0.009-0.060 0.024-0.155 0.057-0.282 0.057h-0.17l-0.036-0.008c-0.629-0.14-1.185-0.415-1.7-0.672-0.043-0.011-0.085-0.030-0.125-0.058-0.062-0.044-0.098-0.096-0.113-0.118-0.007-0.011-0.014-0.022-0.018-0.028l-0.001-0.002c-0.004-0.007-0.006-0.010-0.008-0.013l-0-0.001-0.095-0.095v-0.093c-0.008-0.015-0.023-0.045-0.035-0.078-0.012-0.032-0.027-0.079-0.031-0.137l-0.22-1.616 1.086-1.086 0.302 0.302c0.007 0.007 0.015 0.014 0.022 0.022 0.111 0.109 0.265 0.262 0.275 0.521l0.171 1.256 0.649 0.26 1.037-0.749c0.094-0.081 0.205-0.112 0.253-0.126 0.003-0.001 0.005-0.001 0.007-0.002 0.008-0.002 0.016-0.004 0.023-0.006 0.056-0.016 0.083-0.024 0.111-0.038l0.070-0.035h0.679c0.214 0 0.418 0.094 0.546 0.209l1.055 0.762c0.091-0.029 0.188-0.069 0.295-0.117 0.047-0.021 0.097-0.045 0.151-0.069 0.058-0.027 0.12-0.056 0.181-0.084l0.182-1.334 0.027-0.054c0.032-0.064 0.069-0.137 0.107-0.204 0.036-0.064 0.088-0.146 0.154-0.212l0.4-0.4c0.002-0.002 0.004-0.004 0.006-0.006 0.070-0.071 0.215-0.215 0.47-0.224l1.255-0.171 0.26-0.649-0.748-1.036c-0.091-0.105-0.118-0.229-0.129-0.305-0.012-0.082-0.012-0.17-0.012-0.23v-0.617c-0-0.060-0-0.148 0.012-0.23 0.011-0.076 0.038-0.2 0.129-0.305l0.764-1.058c-0.029-0.091-0.069-0.188-0.117-0.295-0.021-0.047-0.045-0.097-0.069-0.151-0.027-0.058-0.056-0.12-0.084-0.181l-1.334-0.182-0.054-0.027c-0.064-0.032-0.137-0.069-0.204-0.107-0.064-0.036-0.146-0.088-0.212-0.154l-0.302-0.302 1.086-1.086zM24.785 16.886l-0.328 0.328 1.58 0.215 0.072 0.18c0.041 0.103 0.086 0.199 0.135 0.305 0.027 0.057 0.055 0.117 0.084 0.182 0.077 0.172 0.157 0.366 0.198 0.571l0.029 0.143-0.951 1.317c-0.001 0.012-0.003 0.029-0.003 0.051-0.001 0.020-0.001 0.040-0.001 0.064l0.9-1.221 0.049-0.032c0.096-0.064 0.161-0.111 0.206-0.148 0.022-0.018 0.036-0.031 0.046-0.040v-0.164c-0.122-0.523-0.353-0.998-0.607-1.507l-0.064-0.064h-0.018l-1.325-0.181zM25.97 23.713l-1.614 0.22h-0.017l-0.001 0.001c-0.009 0.008-0.018 0.017-0.036 0.035l-0.4 0.4c-0.001 0.001-0.005 0.006-0.013 0.017-0.009 0.013-0.021 0.031-0.034 0.055-0.012 0.022-0.025 0.045-0.038 0.070l0.293-0.293 1.635-0.213c0.001-0.001 0.003-0.001 0.005-0.002l0.003-0.001c0.015-0.007 0.046-0.023 0.079-0.035 0.005-0.002 0.009-0.003 0.014-0.005 0.042-0.083 0.082-0.165 0.122-0.246zM23.541 26.182l-0.151 0.060c-0.103 0.041-0.199 0.086-0.305 0.135-0.057 0.027-0.117 0.055-0.182 0.084-0.172 0.077-0.366 0.157-0.571 0.198l-0.143 0.029-1.34-0.967-0.018-0.018c0 0-0.003-0.003-0.009-0.006-0.008-0.005-0.018-0.010-0.029-0.016-0.025-0.011-0.047-0.015-0.060-0.015h-0.531c-0.061 0.024-0.116 0.039-0.152 0.049-0.007 0.002-0.013 0.003-0.018 0.005-0.011 0.003-0.020 0.006-0.026 0.008l-1.361 0.983-1.351-0.54-0.215-1.58-0.328 0.328 0.176 1.294c0.001 0.001 0.002 0.003 0.002 0.005l0.001 0.003c0.007 0.015 0.023 0.046 0.035 0.079 0.002 0.005 0.003 0.009 0.005 0.015 0.518 0.259 0.999 0.496 1.531 0.619h0.096c0.006 0 0.011-0 0.035-0.009 0.005-0.002 0.009-0.004 0.015-0.006 0.003-0.001 0.007-0.003 0.012-0.005 0.011-0.004 0.026-0.011 0.043-0.017 0.013-0.005 0.030-0.010 0.050-0.015l1.226-0.681h0.506l1.318 0.733h0.158c0.523-0.122 0.998-0.353 1.507-0.607l0.064-0.064v-0.017l0.008-0.063z"></path>
</symbol>
<symbol id="trash" viewBox="0 0 32 32">
<path d="M27 6h-5v-1c-0.003-0.795-0.32-1.556-0.882-2.118s-1.323-0.879-2.118-0.882h-6c-0.795 0.003-1.556 0.32-2.118 0.882s-0.879 1.323-0.882 2.118v1h-5c-0.265 0-0.52 0.105-0.707 0.293s-0.293 0.442-0.293 0.707c0 0.265 0.105 0.52 0.293 0.707s0.442 0.293 0.707 0.293h1v18c0 0.53 0.211 1.039 0.586 1.414s0.884 0.586 1.414 0.586h16c0.53 0 1.039-0.211 1.414-0.586s0.586-0.884 0.586-1.414v-18h1c0.265 0 0.52-0.105 0.707-0.293s0.293-0.442 0.293-0.707c0-0.265-0.105-0.52-0.293-0.707s-0.442-0.293-0.707-0.293zM12 5c0-0.265 0.105-0.52 0.293-0.707s0.442-0.293 0.707-0.293h6c0.265 0 0.52 0.105 0.707 0.293s0.293 0.442 0.293 0.707v1h-8v-1zM24 26h-16v-18h16v18zM14 13v8c0 0.265-0.105 0.52-0.293 0.707s-0.442 0.293-0.707 0.293c-0.265 0-0.52-0.105-0.707-0.293s-0.293-0.442-0.293-0.707v-8c0-0.265 0.105-0.52 0.293-0.707s0.442-0.293 0.707-0.293c0.265 0 0.52 0.105 0.707 0.293s0.293 0.442 0.293 0.707zM20 13v8c0 0.265-0.105 0.52-0.293 0.707s-0.442 0.293-0.707 0.293c-0.265 0-0.52-0.105-0.707-0.293s-0.293-0.442-0.293-0.707v-8c0-0.265 0.105-0.52 0.293-0.707s0.442-0.293 0.707-0.293c0.265 0 0.52 0.105 0.707 0.293s0.293 0.442 0.293 0.707z"></path>
</symbol>
<symbol id="trash-bold" viewBox="0 0 32 32">
<path d="M27 6h-4.5v-1.5c-0.003-0.927-0.373-1.816-1.029-2.471s-1.544-1.025-2.471-1.029h-6c-0.927 0.003-1.816 0.373-2.471 1.029s-1.025 1.544-1.029 2.471v1.5h-4.5c-0.398 0-0.779 0.158-1.061 0.439s-0.439 0.663-0.439 1.061c0 0.398 0.158 0.779 0.439 1.061s0.663 0.439 1.061 0.439h0.5v17c0.003 0.662 0.268 1.296 0.736 1.764s1.102 0.733 1.764 0.736h16c0.662-0.003 1.296-0.268 1.764-0.736s0.733-1.102 0.736-1.764v-17h0.5c0.398 0 0.779-0.158 1.061-0.439s0.439-0.663 0.439-1.061c0-0.398-0.158-0.779-0.439-1.061s-0.663-0.439-1.061-0.439zM12.5 4.5c0-0.133 0.053-0.26 0.146-0.354s0.221-0.146 0.354-0.146h6c0.133 0 0.26 0.053 0.354 0.146s0.146 0.221 0.146 0.354v1.5h-7v-1.5zM23.5 25.5h-15v-16.5h15v16.5zM14.5 13v8c0 0.398-0.158 0.779-0.439 1.061s-0.663 0.439-1.061 0.439c-0.398 0-0.779-0.158-1.061-0.439s-0.439-0.663-0.439-1.061v-8c0-0.398 0.158-0.779 0.439-1.061s0.663-0.439 1.061-0.439c0.398 0 0.779 0.158 1.061 0.439s0.439 0.663 0.439 1.061zM20.5 13v8c0 0.398-0.158 0.779-0.439 1.061s-0.663 0.439-1.061 0.439c-0.398 0-0.779-0.158-1.061-0.439s-0.439-0.663-0.439-1.061v-8c0-0.398 0.158-0.779 0.439-1.061s0.663-0.439 1.061-0.439c0.398 0 0.779 0.158 1.061 0.439s0.439 0.663 0.439 1.061z"></path>
</symbol>
<symbol id="user-plus" viewBox="0 0 32 32">
<path d="M32 17c0 0.265-0.105 0.52-0.293 0.707s-0.442 0.293-0.707 0.293h-2v2c0 0.265-0.105 0.52-0.293 0.707s-0.442 0.293-0.707 0.293c-0.265 0-0.52-0.105-0.707-0.293s-0.293-0.442-0.293-0.707v-2h-2c-0.265 0-0.52-0.105-0.707-0.293s-0.293-0.442-0.293-0.707c0-0.265 0.105-0.52 0.293-0.707s0.442-0.293 0.707-0.293h2v-2c0-0.265 0.105-0.52 0.293-0.707s0.442-0.293 0.707-0.293c0.265 0 0.52 0.105 0.707 0.293s0.293 0.442 0.293 0.707v2h2c0.265 0 0.52 0.105 0.707 0.293s0.293 0.442 0.293 0.707zM24.987 24.363c0.085 0.1 0.148 0.215 0.188 0.34s0.054 0.256 0.042 0.386c-0.012 0.13-0.049 0.257-0.11 0.373s-0.144 0.218-0.245 0.301c-0.099 0.086-0.214 0.151-0.339 0.192s-0.257 0.055-0.387 0.044c-0.131-0.012-0.258-0.050-0.373-0.112s-0.218-0.147-0.3-0.249c-1.223-1.452-2.748-2.619-4.469-3.419s-3.596-1.215-5.494-1.215c-1.898 0-3.773 0.415-5.494 1.215s-3.246 1.968-4.469 3.419c-0.178 0.17-0.412 0.269-0.658 0.277s-0.486-0.074-0.675-0.232-0.313-0.38-0.348-0.623c-0.035-0.244 0.020-0.492 0.156-0.697 1.827-2.194 4.249-3.814 6.975-4.663-1.563-0.979-2.766-2.441-3.425-4.164s-0.741-3.614-0.231-5.387c0.51-1.773 1.582-3.332 3.056-4.442s3.269-1.71 5.114-1.71c1.845 0 3.64 0.6 5.113 1.71s2.546 2.669 3.056 4.442c0.51 1.773 0.428 3.664-0.231 5.387s-1.862 3.184-3.426 4.164c2.726 0.849 5.148 2.468 6.975 4.663zM13.5 19c1.286 0 2.542-0.381 3.611-1.095s1.902-1.729 2.394-2.917c0.492-1.188 0.621-2.495 0.37-3.756s-0.87-2.419-1.779-3.328c-0.909-0.909-2.067-1.528-3.328-1.779s-2.568-0.122-3.756 0.37c-1.188 0.492-2.203 1.325-2.917 2.394s-1.095 2.326-1.095 3.611c0 1.724 0.685 3.377 1.904 4.596s2.872 1.904 4.596 1.904z"></path>
</symbol>
<symbol id="user-plus-bold" viewBox="0 0 32 32">
<path d="M32 17c0 0.398-0.158 0.779-0.439 1.061s-0.663 0.439-1.061 0.439h-1v1c0 0.398-0.158 0.779-0.439 1.061s-0.663 0.439-1.061 0.439-0.779-0.158-1.061-0.439c-0.281-0.281-0.439-0.663-0.439-1.061v-1h-1c-0.398 0-0.779-0.158-1.061-0.439s-0.439-0.663-0.439-1.061c0-0.398 0.158-0.779 0.439-1.061s0.663-0.439 1.061-0.439h1v-1c0-0.398 0.158-0.779 0.439-1.061s0.663-0.439 1.061-0.439 0.779 0.158 1.061 0.439c0.281 0.281 0.439 0.663 0.439 1.061v1h1c0.398 0 0.779 0.158 1.061 0.439s0.439 0.663 0.439 1.061zM25.375 24.038c0.255 0.305 0.379 0.699 0.344 1.095s-0.226 0.762-0.531 1.017c-0.269 0.228-0.61 0.352-0.963 0.35-0.219-0.002-0.435-0.051-0.633-0.143s-0.375-0.227-0.517-0.394c-1.173-1.398-2.638-2.522-4.293-3.293s-3.457-1.171-5.282-1.171c-1.825 0-3.628 0.4-5.282 1.171s-3.119 1.895-4.293 3.293c-0.125 0.156-0.28 0.285-0.455 0.381s-0.368 0.155-0.567 0.175-0.4-0-0.59-0.059c-0.191-0.059-0.368-0.155-0.521-0.283s-0.279-0.286-0.371-0.463-0.147-0.372-0.162-0.571c-0.015-0.199 0.009-0.399 0.072-0.589s0.163-0.365 0.295-0.515c1.684-2.005 3.846-3.553 6.287-4.5-1.465-1.16-2.532-2.748-3.054-4.542s-0.472-3.707 0.142-5.472 1.763-3.295 3.286-4.378c1.523-1.083 3.346-1.664 5.214-1.664s3.691 0.582 5.214 1.664 2.671 2.613 3.286 4.378c0.614 1.765 0.664 3.677 0.142 5.472s-1.589 3.382-3.054 4.542c2.441 0.947 4.604 2.495 6.287 4.5zM13.5 18.5c1.187 0 2.347-0.352 3.333-1.011s1.756-1.596 2.21-2.693c0.454-1.096 0.573-2.303 0.341-3.467s-0.803-2.233-1.642-3.072c-0.839-0.839-1.908-1.411-3.072-1.642s-2.37-0.113-3.467 0.341c-1.096 0.454-2.033 1.223-2.693 2.21s-1.011 2.147-1.011 3.333c0 1.591 0.632 3.117 1.757 4.243s2.651 1.757 4.243 1.757z"></path>
</symbol>
<symbol id="identification-badge" viewBox="0 0 32 32">
<path d="M9.4 24.8c0.172 0.132 0.383 0.203 0.6 0.2 0.155 0 0.308-0.036 0.447-0.106s0.26-0.17 0.353-0.294c0.605-0.807 1.391-1.462 2.293-1.914s1.898-0.686 2.907-0.686 2.004 0.235 2.907 0.686c0.903 0.451 1.688 1.107 2.293 1.914 0.161 0.209 0.398 0.348 0.659 0.385s0.527-0.029 0.741-0.185c0.105-0.079 0.194-0.178 0.26-0.291s0.111-0.238 0.129-0.368c0.019-0.13 0.011-0.262-0.021-0.39s-0.090-0.247-0.169-0.352c-0.885-1.188-2.066-2.123-3.425-2.713 0.744-0.68 1.264-1.569 1.494-2.551s0.157-2.009-0.208-2.949c-0.365-0.939-1.005-1.747-1.837-2.316s-1.816-0.874-2.824-0.874c-1.008 0-1.992 0.305-2.824 0.874s-1.472 1.376-1.837 2.316c-0.365 0.939-0.437 1.967-0.208 2.949s0.75 1.87 1.494 2.551c-1.359 0.589-2.54 1.525-3.425 2.713-0.159 0.212-0.227 0.479-0.19 0.741s0.178 0.499 0.39 0.659zM16 14c0.593 0 1.173 0.176 1.667 0.506s0.878 0.798 1.105 1.346c0.227 0.548 0.286 1.151 0.171 1.733s-0.401 1.116-0.821 1.536c-0.42 0.42-0.954 0.705-1.536 0.821s-1.185 0.056-1.733-0.171c-0.548-0.227-1.017-0.612-1.346-1.105s-0.506-1.073-0.506-1.667c0.003-0.795 0.32-1.556 0.882-2.118s1.323-0.879 2.118-0.882zM25 3h-18c-0.53 0-1.039 0.211-1.414 0.586s-0.586 0.884-0.586 1.414v22c0 0.53 0.211 1.039 0.586 1.414s0.884 0.586 1.414 0.586h18c0.53 0 1.039-0.211 1.414-0.586s0.586-0.884 0.586-1.414v-22c0-0.53-0.211-1.039-0.586-1.414s-0.884-0.586-1.414-0.586zM25 27h-18v-22h18v22zM11 8c0-0.265 0.105-0.52 0.293-0.707s0.442-0.293 0.707-0.293h8c0.265 0 0.52 0.105 0.707 0.293s0.293 0.442 0.293 0.707c0 0.265-0.105 0.52-0.293 0.707s-0.442 0.293-0.707 0.293h-8c-0.265 0-0.52-0.105-0.707-0.293s-0.293-0.442-0.293-0.707z"></path>
</symbol>
<symbol id="info" viewBox="0 0 32 32">
<path d="M16 3c-2.571 0-5.085 0.762-7.222 2.191s-3.804 3.459-4.788 5.834c-0.984 2.375-1.241 4.989-0.74 7.511s1.74 4.838 3.558 6.656c1.818 1.818 4.134 3.056 6.656 3.558s5.136 0.244 7.511-0.74c2.375-0.984 4.406-2.65 5.834-4.788s2.191-4.651 2.191-7.222c-0.003-3.447-1.374-6.751-3.811-9.189s-5.742-3.808-9.189-3.811zM16 27c-2.176 0-4.302-0.645-6.111-1.854s-3.219-2.927-4.051-4.937c-0.833-2.010-1.050-4.222-0.626-6.356s1.472-4.094 3.010-5.632c1.538-1.538 3.498-2.586 5.632-3.010s4.346-0.207 6.356 0.626c2.010 0.833 3.728 2.242 4.937 4.051s1.854 3.936 1.854 6.111c-0.003 2.916-1.163 5.712-3.225 7.775s-4.858 3.222-7.775 3.225zM18 22c0 0.265-0.105 0.52-0.293 0.707s-0.442 0.293-0.707 0.293h-1c-0.265 0-0.52-0.105-0.707-0.293s-0.293-0.442-0.293-0.707v-6c-0.265 0-0.52-0.105-0.707-0.293s-0.293-0.442-0.293-0.707 0.105-0.52 0.293-0.707c0.188-0.188 0.442-0.293 0.707-0.293h1c0.265 0 0.52 0.105 0.707 0.293s0.293 0.442 0.293 0.707v6c0.265 0 0.52 0.105 0.707 0.293s0.293 0.442 0.293 0.707zM14.25 10.5c0-0.297 0.088-0.587 0.253-0.833s0.399-0.439 0.673-0.552c0.274-0.114 0.576-0.143 0.867-0.085s0.558 0.201 0.768 0.411 0.353 0.477 0.411 0.768c0.058 0.291 0.028 0.593-0.085 0.867s-0.306 0.508-0.552 0.673c-0.247 0.165-0.537 0.253-0.833 0.253-0.398 0-0.779-0.158-1.061-0.439s-0.439-0.663-0.439-1.061z"></path>
</symbol>
<symbol id="info-bold" viewBox="0 0 32 32">
<path d="M16 2.5c-2.67 0-5.28 0.792-7.5 2.275s-3.95 3.592-4.972 6.059c-1.022 2.467-1.289 5.181-0.768 7.8s1.807 5.024 3.695 6.912 4.293 3.174 6.912 3.695c2.619 0.521 5.333 0.253 7.8-0.768s4.575-2.752 6.059-4.972c1.483-2.22 2.275-4.83 2.275-7.5-0.003-3.579-1.427-7.011-3.958-9.542s-5.963-3.954-9.542-3.958zM16 26.5c-2.077 0-4.107-0.616-5.833-1.77s-3.073-2.794-3.867-4.712c-0.795-1.919-1.003-4.030-0.598-6.067s1.405-3.908 2.874-5.376 3.339-2.468 5.376-2.874c2.037-0.405 4.148-0.197 6.067 0.598s3.559 2.141 4.712 3.867 1.77 3.757 1.77 5.833c-0.003 2.784-1.111 5.453-3.079 7.421s-4.637 3.076-7.421 3.079zM18.5 22c0 0.398-0.158 0.779-0.439 1.061s-0.663 0.439-1.061 0.439h-1c-0.398 0-0.779-0.158-1.061-0.439s-0.439-0.663-0.439-1.061v-5.087c-0.293-0.102-0.547-0.293-0.727-0.546s-0.275-0.556-0.273-0.867c0-0.398 0.158-0.779 0.439-1.061s0.663-0.439 1.061-0.439h1c0.398 0 0.779 0.158 1.061 0.439s0.439 0.663 0.439 1.061v5.087c0.293 0.102 0.547 0.293 0.727 0.546s0.275 0.556 0.273 0.867zM13.75 10.5c0-0.396 0.117-0.782 0.337-1.111s0.532-0.585 0.898-0.737c0.365-0.151 0.768-0.191 1.155-0.114s0.744 0.268 1.024 0.547c0.28 0.28 0.47 0.636 0.547 1.024s0.038 0.79-0.114 1.156c-0.151 0.365-0.408 0.678-0.737 0.898s-0.716 0.337-1.111 0.337c-0.53 0-1.039-0.211-1.414-0.586s-0.586-0.884-0.586-1.414z"></path>
</symbol>
<symbol id="magnifying-glass" viewBox="0 0 32 32">
<path d="M28.713 27.288l-5.413-5.4c1.91-2.274 2.869-5.198 2.676-8.162s-1.523-5.739-3.712-7.746-5.069-3.092-8.038-3.027c-2.969 0.064-5.799 1.273-7.899 3.373s-3.308 4.93-3.373 7.899c-0.064 2.969 1.020 5.849 3.027 8.038s4.782 3.519 7.746 3.712c2.964 0.193 5.888-0.765 8.162-2.676l5.4 5.413c0.191 0.185 0.447 0.288 0.712 0.288s0.521-0.103 0.713-0.288c0.188-0.19 0.293-0.446 0.293-0.713s-0.105-0.523-0.293-0.712zM5 14.5c0-1.879 0.557-3.716 1.601-5.278s2.528-2.78 4.263-3.499c1.736-0.719 3.646-0.907 5.489-0.541s3.536 1.271 4.864 2.6c1.329 1.329 2.233 3.021 2.6 4.864s0.178 3.753-0.541 5.489c-0.719 1.736-1.937 3.22-3.499 4.263s-3.399 1.601-5.278 1.601c-2.519-0.003-4.933-1.005-6.714-2.786s-2.783-4.195-2.786-6.714z"></path>
</symbol>
<symbol id="profile" viewBox="0 0 32 32">
<path d="M27 0h-24c-1.65 0-3 1.35-3 3v26c0 1.65 1.35 3 3 3h24c1.65 0 3-1.35 3-3v-26c0-1.65-1.35-3-3-3zM26 28h-22v-24h22v24zM8 18h14v2h-14zM8 22h14v2h-14zM10 9c0-1.657 1.343-3 3-3s3 1.343 3 3c0 1.657-1.343 3-3 3s-3-1.343-3-3zM15 12h-4c-1.65 0-3 0.9-3 2v2h10v-2c0-1.1-1.35-2-3-2z"></path>
</symbol>
<symbol id="file-empty" viewBox="0 0 32 32">
<path d="M28.681 7.159c-0.694-0.947-1.662-2.053-2.724-3.116s-2.169-2.030-3.116-2.724c-1.612-1.182-2.393-1.319-2.841-1.319h-15.5c-1.378 0-2.5 1.121-2.5 2.5v27c0 1.378 1.122 2.5 2.5 2.5h23c1.378 0 2.5-1.122 2.5-2.5v-19.5c0-0.448-0.137-1.23-1.319-2.841zM24.543 5.457c0.959 0.959 1.712 1.825 2.268 2.543h-4.811v-4.811c0.718 0.556 1.584 1.309 2.543 2.268zM28 29.5c0 0.271-0.229 0.5-0.5 0.5h-23c-0.271 0-0.5-0.229-0.5-0.5v-27c0-0.271 0.229-0.5 0.5-0.5 0 0 15.499-0 15.5 0v7c0 0.552 0.448 1 1 1h7v19.5z"></path>
</symbol>
<symbol id="files-empty" viewBox="0 0 32 32">
<path d="M28.681 11.159c-0.694-0.947-1.662-2.053-2.724-3.116s-2.169-2.030-3.116-2.724c-1.612-1.182-2.393-1.319-2.841-1.319h-11.5c-1.379 0-2.5 1.122-2.5 2.5v23c0 1.378 1.121 2.5 2.5 2.5h19c1.378 0 2.5-1.122 2.5-2.5v-15.5c0-0.448-0.137-1.23-1.319-2.841zM24.543 9.457c0.959 0.959 1.712 1.825 2.268 2.543h-4.811v-4.811c0.718 0.556 1.584 1.309 2.543 2.268v0zM28 29.5c0 0.271-0.229 0.5-0.5 0.5h-19c-0.271 0-0.5-0.229-0.5-0.5v-23c0-0.271 0.229-0.5 0.5-0.5 0 0 11.499-0 11.5 0v7c0 0.552 0.448 1 1 1h7v15.5z"></path>
<path d="M18.841 1.319c-1.612-1.182-2.393-1.319-2.841-1.319h-11.5c-1.378 0-2.5 1.121-2.5 2.5v23c0 1.207 0.86 2.217 2 2.45v-25.45c0-0.271 0.229-0.5 0.5-0.5h15.215c-0.301-0.248-0.595-0.477-0.873-0.681z"></path>
</symbol>
<symbol id="file-text" viewBox="0 0 32 32">
<path d="M27 0h-24c-1.65 0-3 1.35-3 3v26c0 1.65 1.35 3 3 3h24c1.65 0 3-1.35 3-3v-26c0-1.65-1.35-3-3-3zM26 28h-22v-24h22v24zM8 14h14v2h-14zM8 18h14v2h-14zM8 22h14v2h-14zM8 10h14v2h-14z"></path>
</symbol>
<symbol id="file-text-2" viewBox="0 0 32 32">
<path d="M28.681 7.159c-0.694-0.947-1.662-2.053-2.724-3.116s-2.169-2.030-3.116-2.724c-1.612-1.182-2.393-1.319-2.841-1.319h-15.5c-1.378 0-2.5 1.121-2.5 2.5v27c0 1.378 1.122 2.5 2.5 2.5h23c1.378 0 2.5-1.122 2.5-2.5v-19.5c0-0.448-0.137-1.23-1.319-2.841zM24.543 5.457c0.959 0.959 1.712 1.825 2.268 2.543h-4.811v-4.811c0.718 0.556 1.584 1.309 2.543 2.268zM28 29.5c0 0.271-0.229 0.5-0.5 0.5h-23c-0.271 0-0.5-0.229-0.5-0.5v-27c0-0.271 0.229-0.5 0.5-0.5 0 0 15.499-0 15.5 0v7c0 0.552 0.448 1 1 1h7v19.5z"></path>
<path d="M23 26h-14c-0.552 0-1-0.448-1-1s0.448-1 1-1h14c0.552 0 1 0.448 1 1s-0.448 1-1 1z"></path>
<path d="M23 22h-14c-0.552 0-1-0.448-1-1s0.448-1 1-1h14c0.552 0 1 0.448 1 1s-0.448 1-1 1z"></path>
<path d="M23 18h-14c-0.552 0-1-0.448-1-1s0.448-1 1-1h14c0.552 0 1 0.448 1 1s-0.448 1-1 1z"></path>
</symbol>
<symbol id="folder" viewBox="0 0 32 32">
<path d="M14 4l4 4h14v22h-32v-26z"></path>
</symbol>
<symbol id="folder-open" viewBox="0 0 32 32">
<path d="M26 30l6-16h-26l-6 16zM4 12l-4 18v-26h9l4 4h13v4z"></path>
</symbol>
<symbol id="barcode" viewBox="0 0 32 32">
<path d="M0 4h4v20h-4zM6 4h2v20h-2zM10 4h2v20h-2zM16 4h2v20h-2zM24 4h2v20h-2zM30 4h2v20h-2zM20 4h1v20h-1zM14 4h1v20h-1zM27 4h1v20h-1zM0 26h2v2h-2zM6 26h2v2h-2zM10 26h2v2h-2zM20 26h2v2h-2zM30 26h2v2h-2zM24 26h4v2h-4zM14 26h4v2h-4z"></path>
</symbol>
<symbol id="qrcode" viewBox="0 0 32 32">
<path d="M10 2h-8v8h8v-8zM12 0v0 12h-12v-12h12zM4 4h4v4h-4zM30 2h-8v8h8v-8zM32 0v0 12h-12v-12h12zM24 4h4v4h-4zM10 22h-8v8h8v-8zM12 20v0 12h-12v-12h12zM4 24h4v4h-4zM14 0h2v2h-2zM16 2h2v2h-2zM14 4h2v2h-2zM16 6h2v2h-2zM14 8h2v2h-2zM16 10h2v2h-2zM14 12h2v2h-2zM14 16h2v2h-2zM16 18h2v2h-2zM14 20h2v2h-2zM16 22h2v2h-2zM14 24h2v2h-2zM16 26h2v2h-2zM14 28h2v2h-2zM16 30h2v2h-2zM30 16h2v2h-2zM2 16h2v2h-2zM4 14h2v2h-2zM0 14h2v2h-2zM8 14h2v2h-2zM10 16h2v2h-2zM12 14h2v2h-2zM18 16h2v2h-2zM20 14h2v2h-2zM22 16h2v2h-2zM24 14h2v2h-2zM26 16h2v2h-2zM28 14h2v2h-2zM30 20h2v2h-2zM18 20h2v2h-2zM20 18h2v2h-2zM22 20h2v2h-2zM26 20h2v2h-2zM28 18h2v2h-2zM30 24h2v2h-2zM18 24h2v2h-2zM20 22h2v2h-2zM24 22h2v2h-2zM26 24h2v2h-2zM28 22h2v2h-2zM30 28h2v2h-2zM20 26h2v2h-2zM22 28h2v2h-2zM24 26h2v2h-2zM26 28h2v2h-2zM20 30h2v2h-2zM24 30h2v2h-2zM28 30h2v2h-2z"></path>
</symbol>
<symbol id="credit-card" viewBox="0 0 32 32">
<path d="M29 4h-26c-1.65 0-3 1.35-3 3v18c0 1.65 1.35 3 3 3h26c1.65 0 3-1.35 3-3v-18c0-1.65-1.35-3-3-3zM3 6h26c0.542 0 1 0.458 1 1v3h-28v-3c0-0.542 0.458-1 1-1zM29 26h-26c-0.542 0-1-0.458-1-1v-9h28v9c0 0.542-0.458 1-1 1zM4 20h2v4h-2zM8 20h2v4h-2zM12 20h2v4h-2z"></path>
</symbol>
<symbol id="phone" viewBox="0 0 32 32">
<path d="M22 20c-2 2-2 4-4 4s-4-2-6-4-4-4-4-6 2-2 4-4-4-8-6-8-6 6-6 6c0 4 4.109 12.109 8 16s12 8 16 8c0 0 6-4 6-6s-6-8-8-6z"></path>
</symbol>
<symbol id="calendar" viewBox="0 0 32 32">
<path d="M10 12h4v4h-4zM16 12h4v4h-4zM22 12h4v4h-4zM4 24h4v4h-4zM10 24h4v4h-4zM16 24h4v4h-4zM10 18h4v4h-4zM16 18h4v4h-4zM22 18h4v4h-4zM4 18h4v4h-4zM26 0v2h-4v-2h-14v2h-4v-2h-4v32h30v-32h-4zM28 30h-26v-22h26v22z"></path>
</symbol>
<symbol id="user-plus" viewBox="0 0 32 32">
<path d="M12 23c0-4.726 2.996-8.765 7.189-10.319 0.509-1.142 0.811-2.411 0.811-3.681 0-4.971 0-9-6-9s-6 4.029-6 9c0 3.096 1.797 6.191 4 7.432v1.649c-6.784 0.555-12 3.888-12 7.918h12.416c-0.271-0.954-0.416-1.96-0.416-3z"></path>
<path d="M23 14c-4.971 0-9 4.029-9 9s4.029 9 9 9c4.971 0 9-4.029 9-9s-4.029-9-9-9zM28 24h-4v4h-2v-4h-4v-2h4v-4h2v4h4v2z"></path>
</symbol>
<symbol id="user-minus" viewBox="0 0 32 32">
<path d="M12 23c0-4.726 2.996-8.765 7.189-10.319 0.509-1.142 0.811-2.411 0.811-3.681 0-4.971 0-9-6-9s-6 4.029-6 9c0 3.096 1.797 6.191 4 7.432v1.649c-6.784 0.555-12 3.888-12 7.918h12.416c-0.271-0.954-0.416-1.96-0.416-3z"></path>
<path d="M23 14c-4.971 0-9 4.029-9 9s4.029 9 9 9c4.971 0 9-4.029 9-9s-4.029-9-9-9zM28 24h-10v-2h10v2z"></path>
</symbol>
<symbol id="user-check" viewBox="0 0 32 32">
<path d="M30 19l-9 9-3-3-2 2 5 5 11-11z"></path>
<path d="M14 24h10v-3.598c-2.101-1.225-4.885-2.066-8-2.321v-1.649c2.203-1.242 4-4.337 4-7.432 0-4.971 0-9-6-9s-6 4.029-6 9c0 3.096 1.797 6.191 4 7.432v1.649c-6.784 0.555-12 3.888-12 7.918h14v-2z"></path>
</symbol>
<symbol id="lab" viewBox="0 0 32 32">
<path d="M29.884 25.14l-9.884-16.47v-6.671h1c0.55 0 1-0.45 1-1s-0.45-1-1-1h-10c-0.55 0-1 0.45-1 1s0.45 1 1 1h1v6.671l-9.884 16.47c-2.264 3.773-0.516 6.86 3.884 6.86h20c4.4 0 6.148-3.087 3.884-6.86zM7.532 20l6.468-10.779v-7.221h4v7.221l6.468 10.779h-16.935z"></path>
</symbol>
<symbol id="clipboard-2" viewBox="0 0 32 32">
<path d="M29 4h-9c0-2.209-1.791-4-4-4s-4 1.791-4 4h-9c-0.552 0-1 0.448-1 1v26c0 0.552 0.448 1 1 1h26c0.552 0 1-0.448 1-1v-26c0-0.552-0.448-1-1-1zM16 2c1.105 0 2 0.895 2 2s-0.895 2-2 2c-1.105 0-2-0.895-2-2s0.895-2 2-2zM28 30h-24v-24h4v3c0 0.552 0.448 1 1 1h14c0.552 0 1-0.448 1-1v-3h4v24z"></path>
<path d="M14 26.828l-6.414-7.414 1.828-1.828 4.586 3.586 8.586-7.586 1.829 1.828z"></path>
</symbol>
</defs>
</svg>
