<svg width="11" height="18" viewBox="0 0 11 18" xmlns="http://www.w3.org/2000/svg">
<path d="M1.99995 17.625C1.70171 17.6237 1.41576 17.506 1.20308 17.2969C1.0982 17.1924 1.01498 17.0682 0.958202 16.9314C0.901421 16.7947 0.872192 16.6481 0.872192 16.5C0.872192 16.3519 0.901421 16.2053 0.958202 16.0686C1.01498 15.9318 1.0982 15.8076 1.20308 15.7031L7.9062 9L1.20308 2.29687C0.991735 2.08553 0.873003 1.79888 0.873003 1.5C0.873003 1.35201 0.902153 1.20546 0.958788 1.06873C1.01542 0.932005 1.09843 0.807771 1.20308 0.703123C1.30773 0.598476 1.43196 0.515466 1.56869 0.458831C1.70542 0.402196 1.85196 0.373047 1.99995 0.373047C2.29884 0.373047 2.58549 0.491779 2.79683 0.703123L10.2968 8.20312C10.4017 8.30764 10.4849 8.43183 10.5417 8.56858C10.5985 8.70532 10.6277 8.85193 10.6277 9C10.6277 9.14806 10.5985 9.29467 10.5417 9.43142C10.4849 9.56816 10.4017 9.69236 10.2968 9.79687L2.79683 17.2969C2.58415 17.506 2.2982 17.6237 1.99995 17.625Z"/>
</svg>
