<svg width="24" height="24" viewBox="0 0 24 24" xmlns="http://www.w3.org/2000/svg">
<path d="M20.2969 18.7032C20.4018 18.8077 20.485 18.9319 20.5418 19.0687C20.5985 19.2054 20.6278 19.352 20.6278 19.5001C20.6278 19.6481 20.5985 19.7948 20.5418 19.9315C20.485 20.0682 20.4018 20.1924 20.2969 20.297C20.0846 20.5065 19.7983 20.624 19.5 20.624C19.2017 20.624 18.9154 20.5065 18.7031 20.297L12 13.5938L5.29687 20.297C5.08553 20.5083 4.79888 20.627 4.5 20.627C4.20111 20.627 3.91447 20.5083 3.70312 20.297C3.49178 20.0856 3.37305 19.799 3.37305 19.5001C3.37305 19.2012 3.49178 18.9145 3.70312 18.7032L11.2031 11.2032C11.3076 11.0983 11.4318 11.0151 11.5686 10.9583C11.7053 10.9015 11.8519 10.8723 12 10.8723C12.1481 10.8723 12.2947 10.9015 12.4314 10.9583C12.5682 11.0151 12.6924 11.0983 12.7969 11.2032L20.2969 18.7032ZM5.29687 12.797L12 6.09383L18.7031 12.797C18.9154 13.0065 19.2017 13.124 19.5 13.124C19.7983 13.124 20.0846 13.0065 20.2969 12.797C20.4018 12.6924 20.485 12.5682 20.5418 12.4315C20.5985 12.2948 20.6278 12.1481 20.6278 12.0001C20.6278 11.852 20.5985 11.7054 20.5418 11.5687C20.485 11.4319 20.4018 11.3077 20.2969 11.2032L12.7969 3.7032C12.6924 3.59832 12.5682 3.51511 12.4314 3.45832C12.2947 3.40154 12.1481 3.37231 12 3.37231C11.8519 3.37231 11.7053 3.40154 11.5686 3.45832C11.4318 3.51511 11.3076 3.59832 11.2031 3.7032L3.70312 11.2032C3.49178 11.4145 3.37305 11.7012 3.37305 12.0001C3.37305 12.299 3.49178 12.5856 3.70312 12.797C3.91447 13.0083 4.20111 13.127 4.5 13.127C4.79888 13.127 5.08553 13.0083 5.29687 12.797Z"/>
</svg>
