<svg width="140" height="140" viewBox="0 0 140 140" xmlns="http://www.w3.org/2000/svg">
<path fill-rule="evenodd" clip-rule="evenodd" d="M31.6045 8.7343C25.5431 8.7343 20.6343 13.6431 20.6343 19.7045V120.003C20.6343 126.064 25.5431 130.973 31.6045 130.973H108.396C114.457 130.973 119.366 126.064 119.366 120.003V19.7045C119.366 13.6431 114.457 8.7343 108.396 8.7343H31.6045ZM17.5 19.7045C17.5 11.9121 23.8121 5.59998 31.6045 5.59998H108.396C116.188 5.59998 122.5 11.9121 122.5 19.7045V120.003C122.5 127.795 116.188 134.107 108.396 134.107H31.6045C23.8121 134.107 17.5 127.795 17.5 120.003V19.7045Z"/>
<path fill-rule="evenodd" clip-rule="evenodd" d="M49.6269 19.7045C40.1061 19.7045 32.3881 27.4225 32.3881 36.9433C32.3881 46.464 40.1061 54.1821 49.6269 54.1821C59.1476 54.1821 66.8657 46.464 66.8657 36.9433C66.8657 27.4225 59.1476 19.7045 49.6269 19.7045ZM27.6866 36.9433C27.6866 24.826 37.5096 15.003 49.6269 15.003C61.7442 15.003 71.5672 24.826 71.5672 36.9433C71.5672 49.0606 61.7442 58.8836 49.6269 58.8836C37.5096 58.8836 27.6866 49.0606 27.6866 36.9433Z"/>
<path fill-rule="evenodd" clip-rule="evenodd" d="M34.7388 70.6373C34.7388 69.7718 35.4404 69.0701 36.306 69.0701H103.694C104.56 69.0701 105.261 69.7718 105.261 70.6373C105.261 71.5028 104.56 72.2045 103.694 72.2045H36.306C35.4404 72.2045 34.7388 71.5028 34.7388 70.6373Z"/>
<path fill-rule="evenodd" clip-rule="evenodd" d="M72.3507 51.8313C72.3507 50.9658 73.0524 50.2642 73.9179 50.2642H103.694C104.56 50.2642 105.261 50.9658 105.261 51.8313C105.261 52.6968 104.56 53.3985 103.694 53.3985H73.9179C73.0524 53.3985 72.3507 52.6968 72.3507 51.8313Z"/>
<path fill-rule="evenodd" clip-rule="evenodd" d="M78.6194 35.3761C78.6194 34.5106 79.321 33.8089 80.1866 33.8089H103.694C104.56 33.8089 105.261 34.5106 105.261 35.3761C105.261 36.2416 104.56 36.9433 103.694 36.9433H80.1866C79.321 36.9433 78.6194 36.2416 78.6194 35.3761Z"/>
<path fill-rule="evenodd" clip-rule="evenodd" d="M34.7388 105.115C34.7388 104.249 35.4404 103.548 36.306 103.548H103.694C104.56 103.548 105.261 104.249 105.261 105.115C105.261 105.98 104.56 106.682 103.694 106.682H36.306C35.4404 106.682 34.7388 105.98 34.7388 105.115Z"/>
<path fill-rule="evenodd" clip-rule="evenodd" d="M34.7388 87.8761C34.7388 87.0106 35.4404 86.3089 36.306 86.3089H103.694C104.56 86.3089 105.261 87.0106 105.261 87.8761C105.261 88.7416 104.56 89.4433 103.694 89.4433H36.306C35.4404 89.4433 34.7388 88.7416 34.7388 87.8761Z"/>
<path d="M36.5315 41.2259C36.3998 41.6961 36.6819 42.0722 37.1709 42.0722H38.9763C39.4652 42.0722 39.9354 41.6961 40.067 41.2071L40.6876 38.894H47.2133V41.2071C47.2133 41.6961 47.5894 42.0722 48.0784 42.0722H49.8085C50.2786 42.0722 50.6736 41.6961 50.6736 41.2259V29.7543C50.6736 29.3029 50.3351 28.908 49.8837 28.908H44.9378C42.2673 28.908 39.6157 29.5662 38.8446 32.4812L36.5315 41.2259ZM42.1733 33.3462C42.4742 32.2179 43.4145 31.5032 44.5992 31.5032H47.2133V36.2988H41.3646L42.1733 33.3462Z"/>
<path d="M57.2178 40.1728C56.2398 40.1728 55.7321 39.6838 55.7321 39.0256C55.7321 38.405 56.2398 37.9161 57.1237 37.9161H59.9446V39.3453C59.2864 39.7591 58.3461 40.1728 57.2178 40.1728ZM58.064 33.9104C59.324 33.9104 59.9446 34.3617 59.9446 35.8286H56.8981C54.4345 35.8286 52.5539 36.9006 52.5539 39.0256C52.5539 41.1507 54.4345 42.2603 56.8981 42.2603C58.3461 42.2603 59.3804 41.8277 60.2267 41.2259V41.508C60.2267 41.8277 60.4712 42.0722 60.7909 42.0722H62.5587C62.8784 42.0722 63.1228 41.8277 63.1228 41.508V35.8286C63.1228 32.9513 60.9978 31.8229 58.2897 31.8229C55.2431 31.8229 53.2873 32.5 53.2873 34.4558C53.2873 34.7755 53.5318 35.02 53.8515 35.02H55.2243C55.6945 35.02 56.033 34.8319 56.2775 34.531C56.5972 34.1361 57.293 33.9104 58.064 33.9104Z"/>
<path d="M61.5608 62.2664C62.6476 62.3711 63.6486 63.0415 64.1254 64.1098L72.3295 82.4926C73.035 84.0734 72.3254 85.9267 70.7446 86.6322C69.1639 87.3377 67.3105 86.6281 66.605 85.0474L58.4009 66.6645C57.9321 65.614 58.0882 64.443 58.7097 63.5686L55.2962 55.9597L58.1559 54.6768L61.5608 62.2664Z"/>
</svg>
