<svg width="140" height="140" viewBox="0 0 140 140" xmlns="http://www.w3.org/2000/svg">
<path fill-rule="evenodd" clip-rule="evenodd" d="M81.1597 32.787C67.331 32.787 56.1139 44.0138 56.1139 57.8712C56.1139 71.7285 67.331 82.9553 81.1597 82.9553C94.9884 82.9553 106.205 71.7285 106.205 57.8712C106.205 44.0138 94.9884 32.787 81.1597 32.787ZM50.3563 57.8712C50.3563 40.8414 64.1437 27.0294 81.1597 27.0294C98.1757 27.0294 111.963 40.8414 111.963 57.8712C111.963 74.9009 98.1757 88.713 81.1597 88.713C64.1437 88.713 50.3563 74.9009 50.3563 57.8712Z"/>
<path fill-rule="evenodd" clip-rule="evenodd" d="M94.7943 96.3571L89.9866 85.7534L93.4825 84.1684L98.2902 94.7721L94.7943 96.3571Z"/>
<path fill-rule="evenodd" clip-rule="evenodd" d="M94.8796 92.2097C96.8173 91.3497 99.0852 92.2234 99.9451 94.1611L111.499 120.195C112.359 122.133 111.485 124.401 109.547 125.261C107.61 126.121 105.342 125.247 104.482 123.309L92.9282 97.2751C92.0683 95.3375 92.942 93.0696 94.8796 92.2097Z"/>
<path fill-rule="evenodd" clip-rule="evenodd" d="M116.432 45.5435C115.015 46.9797 112.969 49.053 110.449 51.6012L107.72 48.9025C110.238 46.3553 112.284 44.283 113.7 42.8476C114.408 42.1299 114.959 41.5715 115.332 41.1925L115.902 40.6147L118.637 43.3077L118.066 43.8871C117.692 44.2665 117.141 44.8254 116.432 45.5435Z"/>
<path fill-rule="evenodd" clip-rule="evenodd" d="M52.9234 64.1147L55.6387 66.8278L15.1331 107.372C14.2645 108.24 13.9889 109.783 14.9432 112.261C15.8714 114.671 17.7905 117.398 20.1909 119.801C22.5914 122.204 25.3164 124.125 27.7243 125.054C30.1999 126.01 31.741 125.735 32.6091 124.867L33.9662 126.224L35.3233 127.581C32.8327 130.072 29.3311 129.789 26.3418 128.635C23.2847 127.455 20.1225 125.163 17.4754 122.514C14.8283 119.864 12.5395 116.699 11.3613 113.641C10.2094 110.65 9.92892 107.148 12.4189 104.658L52.9234 64.1147ZM40.3731 122.522C39.741 123.159 38.4788 124.423 37.3764 125.527C36.8238 126.08 36.3105 126.594 35.9354 126.969L35.324 127.58L33.9662 126.224L32.6091 124.867L33.2207 124.255C33.5956 123.88 34.1085 123.367 34.6607 122.814C35.7661 121.708 37.0256 120.446 37.6515 119.815L37.6566 119.81C38.9273 118.539 55.1952 102.079 72.5778 84.4761L75.3091 87.1731C57.945 104.758 41.672 121.223 40.3731 122.522Z"/>
<path fill-rule="evenodd" clip-rule="evenodd" d="M87.3924 29.6074L96.643 20.3472L99.3586 23.0599L90.108 32.3201L87.3924 29.6074Z"/>
<path fill-rule="evenodd" clip-rule="evenodd" d="M97.7458 14.9999L97.4122 15.3335C96.5246 16.2282 96.5308 17.6633 97.4099 18.5424L121.471 42.6229C122.352 43.5091 123.779 43.5091 124.66 42.6229L124.664 42.619L124.996 42.2871L124.998 42.2855C125.885 41.3908 125.879 39.9556 125 39.0765L100.943 14.9999C100.061 14.1186 98.6274 14.1183 97.7458 14.9999ZM95.0316 12.2857C97.4124 9.90491 101.276 9.90491 103.657 12.2857L127.714 36.3623C130.097 38.7453 130.092 42.606 127.718 44.9933L127.714 44.9973L127.382 45.3292L127.38 45.332C124.998 47.7242 121.132 47.724 118.751 45.3314L118.749 45.3292L94.6957 21.2566C92.3132 18.8735 92.3186 15.0127 94.6917 12.6256L94.6957 12.6216L95.0316 12.2857Z"/>
<path fill-rule="evenodd" clip-rule="evenodd" d="M87.1792 38.4843C86.4216 37.7267 85.206 37.7267 84.4484 38.4843L61.2455 61.716L61.2422 61.7193C60.49 62.4651 60.4859 63.6881 61.2451 64.4473L75.6008 78.8222C76.3584 79.5798 77.574 79.5798 78.3316 78.8222L101.535 55.5905L101.538 55.5872C102.29 54.8414 102.294 53.6184 101.535 52.8592L87.1792 38.4843ZM83.0913 37.1272C84.5984 35.6201 87.0292 35.6201 88.5363 37.1272L102.892 51.5022C104.396 53.007 104.402 55.4482 102.891 56.948L102.889 56.9501L79.6891 80.1789C78.1821 81.686 75.7508 81.6864 74.2437 80.1793L59.888 65.8044C58.3831 64.2995 58.3783 61.8581 59.8891 60.3582L59.8909 60.3565L83.0913 37.1272Z"/>
<path fill-rule="evenodd" clip-rule="evenodd" d="M89.0734 44.0553C89.4483 44.4299 89.4486 45.0375 89.074 45.4124L67.8859 66.6197C67.5113 66.9946 66.9037 66.9949 66.5288 66.6203C66.1538 66.2457 66.1536 65.6382 66.5282 65.2632L87.7163 44.0559C88.0909 43.681 88.6985 43.6807 89.0734 44.0553Z"/>
<path fill-rule="evenodd" clip-rule="evenodd" d="M81.6463 64.025C82.0211 64.3998 82.0211 65.0074 81.6463 65.3821L73.9407 73.0878C73.5659 73.4625 72.9583 73.4625 72.5836 73.0878C72.2088 72.713 72.2088 72.1054 72.5836 71.7307L80.2892 64.025C80.664 63.6503 81.2716 63.6503 81.6463 64.025Z"/>
<path fill-rule="evenodd" clip-rule="evenodd" d="M87.9222 57.7396C88.2969 58.1144 88.2969 58.7219 87.9222 59.0967L85.0337 61.9851C84.659 62.3599 84.0514 62.3599 83.6766 61.9851C83.3019 61.6104 83.3019 61.0028 83.6766 60.628L86.5651 57.7396C86.9398 57.3649 87.5474 57.3649 87.9222 57.7396Z"/>
<path fill-rule="evenodd" clip-rule="evenodd" d="M95.3487 50.3018C95.7239 50.6761 95.7247 51.2837 95.3504 51.6589L91.5023 55.5165C91.1281 55.8917 90.5205 55.8925 90.1453 55.5182C89.77 55.1439 89.7693 54.5363 90.1436 54.1611L93.9916 50.3035C94.3659 49.9283 94.9735 49.9275 95.3487 50.3018Z"/>
</svg>
